G75*
%MOIN*%
%OFA0B0*%
%FSLAX25Y25*%
%IPPOS*%
%LPD*%
%AMOC8*
5,1,8,0,0,1.08239X$1,22.5*
%
%ADD10C,0.01990*%
%ADD11C,0.08200*%
%ADD12R,0.04737X0.05131*%
%ADD13C,0.07198*%
%ADD14R,0.04343X0.01745*%
%ADD15R,0.02769X0.02650*%
%ADD16C,0.03778*%
D10*
X0124186Y0026095D02*
X0126932Y0026095D01*
X0124186Y0026095D02*
X0124186Y0028841D01*
X0126932Y0028841D01*
X0126932Y0026095D01*
X0126932Y0027985D02*
X0124186Y0027985D01*
X0136186Y0026095D02*
X0138932Y0026095D01*
X0136186Y0026095D02*
X0136186Y0028841D01*
X0138932Y0028841D01*
X0138932Y0026095D01*
X0138932Y0027985D02*
X0136186Y0027985D01*
X0148186Y0026095D02*
X0150932Y0026095D01*
X0148186Y0026095D02*
X0148186Y0028841D01*
X0150932Y0028841D01*
X0150932Y0026095D01*
X0150932Y0027985D02*
X0148186Y0027985D01*
X0160186Y0026095D02*
X0162932Y0026095D01*
X0160186Y0026095D02*
X0160186Y0028841D01*
X0162932Y0028841D01*
X0162932Y0026095D01*
X0162932Y0027985D02*
X0160186Y0027985D01*
X0172186Y0026095D02*
X0174932Y0026095D01*
X0172186Y0026095D02*
X0172186Y0028841D01*
X0174932Y0028841D01*
X0174932Y0026095D01*
X0174932Y0027985D02*
X0172186Y0027985D01*
X0184186Y0026095D02*
X0186932Y0026095D01*
X0184186Y0026095D02*
X0184186Y0028841D01*
X0186932Y0028841D01*
X0186932Y0026095D01*
X0186932Y0027985D02*
X0184186Y0027985D01*
X0184186Y0033000D02*
X0186932Y0033000D01*
X0184186Y0033000D02*
X0184186Y0035746D01*
X0186932Y0035746D01*
X0186932Y0033000D01*
X0186932Y0034890D02*
X0184186Y0034890D01*
X0174932Y0033000D02*
X0172186Y0033000D01*
X0172186Y0035746D01*
X0174932Y0035746D01*
X0174932Y0033000D01*
X0174932Y0034890D02*
X0172186Y0034890D01*
X0162932Y0033000D02*
X0160186Y0033000D01*
X0160186Y0035746D01*
X0162932Y0035746D01*
X0162932Y0033000D01*
X0162932Y0034890D02*
X0160186Y0034890D01*
X0150932Y0033000D02*
X0148186Y0033000D01*
X0148186Y0035746D01*
X0150932Y0035746D01*
X0150932Y0033000D01*
X0150932Y0034890D02*
X0148186Y0034890D01*
X0138932Y0033000D02*
X0136186Y0033000D01*
X0136186Y0035746D01*
X0138932Y0035746D01*
X0138932Y0033000D01*
X0138932Y0034890D02*
X0136186Y0034890D01*
X0126932Y0033000D02*
X0124186Y0033000D01*
X0124186Y0035746D01*
X0126932Y0035746D01*
X0126932Y0033000D01*
X0126932Y0034890D02*
X0124186Y0034890D01*
D11*
X0038087Y0010779D03*
X0048087Y0010779D03*
X0058087Y0010779D03*
X0068087Y0010779D03*
X0078087Y0010779D03*
X0088087Y0010779D03*
X0098087Y0010779D03*
X0108087Y0010779D03*
X0118087Y0010779D03*
X0128087Y0010779D03*
X0138087Y0010779D03*
X0148087Y0010779D03*
X0158087Y0010779D03*
X0168087Y0010779D03*
X0178087Y0010779D03*
X0188087Y0010779D03*
X0188087Y0081842D03*
X0178087Y0081842D03*
X0168087Y0081842D03*
X0158087Y0081842D03*
X0148087Y0081842D03*
X0138087Y0081842D03*
X0128087Y0081842D03*
X0118087Y0081842D03*
X0108087Y0081842D03*
X0098087Y0081842D03*
X0088087Y0081842D03*
X0078087Y0081842D03*
X0068087Y0081842D03*
X0058087Y0081842D03*
X0048087Y0081842D03*
X0038087Y0081842D03*
D12*
X0131559Y0034267D03*
X0143559Y0034267D03*
X0155559Y0034267D03*
X0167559Y0034267D03*
X0179559Y0034267D03*
X0191559Y0034267D03*
X0191559Y0027574D03*
X0179559Y0027574D03*
X0167559Y0027574D03*
X0155559Y0027574D03*
X0143559Y0027574D03*
X0131559Y0027574D03*
D13*
X0128559Y0051125D03*
X0152559Y0051125D03*
D14*
X0091343Y0051660D03*
X0091343Y0050085D03*
X0091343Y0048510D03*
X0091343Y0046936D03*
X0091343Y0045361D03*
X0091343Y0043786D03*
X0091343Y0042211D03*
X0091343Y0040636D03*
X0083666Y0040636D03*
X0083666Y0042211D03*
X0083666Y0043786D03*
X0083666Y0045361D03*
X0083666Y0046936D03*
X0083666Y0048510D03*
X0083666Y0050085D03*
X0083666Y0051660D03*
X0083666Y0053235D03*
X0083666Y0054810D03*
X0083666Y0056385D03*
X0083666Y0057959D03*
X0091343Y0057959D03*
X0091343Y0056385D03*
X0091343Y0054810D03*
X0091343Y0053235D03*
D15*
X0091926Y0060912D03*
X0082882Y0060912D03*
X0082879Y0037684D03*
X0092140Y0037728D03*
D16*
X0078559Y0038171D03*
X0072934Y0040671D03*
X0070434Y0043171D03*
X0078559Y0045671D03*
X0078559Y0050671D03*
X0076684Y0053796D03*
X0067934Y0050671D03*
X0055707Y0049106D03*
X0036490Y0051406D03*
X0052549Y0038171D03*
X0060434Y0033796D03*
X0053539Y0031307D03*
X0067934Y0028796D03*
X0089809Y0021296D03*
X0091898Y0026474D03*
X0111059Y0036296D03*
X0108559Y0038796D03*
X0108559Y0044421D03*
X0119184Y0046921D03*
X0125259Y0040736D03*
X0120828Y0033630D03*
X0119409Y0029311D03*
X0156059Y0040046D03*
X0161059Y0042546D03*
X0181011Y0040430D03*
X0152309Y0062546D03*
X0131059Y0062546D03*
X0121684Y0056296D03*
X0089184Y0066921D03*
X0080434Y0069421D03*
X0072934Y0070046D03*
X0069184Y0067546D03*
X0077021Y0062794D03*
X0078559Y0058796D03*
X0088133Y0074160D03*
X0096684Y0073796D03*
X0038834Y0032552D03*
M02*
