G75*
%MOIN*%
%OFA0B0*%
%FSLAX25Y25*%
%IPPOS*%
%LPD*%
%AMOC8*
5,1,8,0,0,1.08239X$1,22.5*
%
%ADD10R,0.05131X0.04737*%
%ADD11C,0.08200*%
%ADD12C,0.07198*%
%ADD13R,0.03162X0.02867*%
%ADD14R,0.04737X0.05131*%
%ADD15R,0.01784X0.01981*%
%ADD16R,0.06312X0.06706*%
%ADD17C,0.03778*%
D10*
X0035713Y0020921D03*
X0042406Y0020921D03*
X0083213Y0031921D03*
X0089906Y0031921D03*
X0089906Y0037921D03*
X0083213Y0037921D03*
X0083213Y0043921D03*
X0089906Y0043921D03*
X0089906Y0049921D03*
X0083213Y0049921D03*
X0083213Y0056421D03*
X0089906Y0056421D03*
X0089906Y0062421D03*
X0083213Y0062421D03*
X0043153Y0061581D03*
X0036460Y0061581D03*
X0181213Y0068421D03*
X0187906Y0068421D03*
D11*
X0038087Y0010779D03*
X0048087Y0010779D03*
X0058087Y0010779D03*
X0068087Y0010779D03*
X0078087Y0010779D03*
X0088087Y0010779D03*
X0098087Y0010779D03*
X0108087Y0010779D03*
X0118087Y0010779D03*
X0128087Y0010779D03*
X0138087Y0010779D03*
X0148087Y0010779D03*
X0158087Y0010779D03*
X0168087Y0010779D03*
X0178087Y0010779D03*
X0188087Y0010779D03*
X0188087Y0081842D03*
X0178087Y0081842D03*
X0168087Y0081842D03*
X0158087Y0081842D03*
X0148087Y0081842D03*
X0138087Y0081842D03*
X0128087Y0081842D03*
X0118087Y0081842D03*
X0108087Y0081842D03*
X0098087Y0081842D03*
X0088087Y0081842D03*
X0078087Y0081842D03*
X0068087Y0081842D03*
X0058087Y0081842D03*
X0048087Y0081842D03*
X0038087Y0081842D03*
D12*
X0128559Y0051125D03*
X0152559Y0051125D03*
D13*
X0149016Y0056086D03*
X0149016Y0059432D03*
X0152559Y0059432D03*
X0156102Y0059432D03*
X0156102Y0056086D03*
X0132102Y0056086D03*
X0132102Y0059432D03*
X0128559Y0059432D03*
X0125016Y0059432D03*
X0125016Y0056086D03*
D14*
X0112559Y0047267D03*
X0104559Y0047267D03*
X0104559Y0040574D03*
X0112559Y0040574D03*
X0136559Y0039574D03*
X0144559Y0039574D03*
X0144559Y0046267D03*
X0136559Y0046267D03*
X0049764Y0050993D03*
X0049764Y0057685D03*
X0035354Y0044504D03*
X0035354Y0037811D03*
D15*
X0042674Y0035756D03*
X0044643Y0035756D03*
X0046611Y0035756D03*
X0048580Y0035756D03*
X0048580Y0046337D03*
X0046611Y0046337D03*
X0044643Y0046337D03*
X0042674Y0046337D03*
D16*
X0045716Y0041133D03*
D17*
X0052549Y0038171D03*
X0060434Y0033796D03*
X0053539Y0031307D03*
X0067934Y0028796D03*
X0078559Y0038171D03*
X0072934Y0040671D03*
X0070434Y0043171D03*
X0078559Y0045671D03*
X0078559Y0050671D03*
X0076684Y0053796D03*
X0067934Y0050671D03*
X0055707Y0049106D03*
X0036490Y0051406D03*
X0069184Y0067546D03*
X0072934Y0070046D03*
X0080434Y0069421D03*
X0089184Y0066921D03*
X0077021Y0062794D03*
X0078559Y0058796D03*
X0108559Y0044421D03*
X0119184Y0046921D03*
X0125259Y0040736D03*
X0111059Y0036296D03*
X0108559Y0038796D03*
X0120828Y0033630D03*
X0119409Y0029311D03*
X0091898Y0026474D03*
X0089809Y0021296D03*
X0038834Y0032552D03*
X0121684Y0056296D03*
X0131059Y0062546D03*
X0152309Y0062546D03*
X0161059Y0042546D03*
X0156059Y0040046D03*
X0181011Y0040430D03*
X0096684Y0073796D03*
X0088133Y0074160D03*
M02*
