G75*
%MOIN*%
%OFA0B0*%
%FSLAX25Y25*%
%IPPOS*%
%LPD*%
%AMOC8*
5,1,8,0,0,1.08239X$1,22.5*
%
%ADD10C,0.00000*%
%ADD11R,0.01050X0.00050*%
%ADD12R,0.02100X0.00050*%
%ADD13R,0.02810X0.00050*%
%ADD14R,0.03350X0.00050*%
%ADD15R,0.03790X0.00050*%
%ADD16R,0.04200X0.00050*%
%ADD17R,0.04600X0.00050*%
%ADD18R,0.04900X0.00050*%
%ADD19R,0.05300X0.00050*%
%ADD20R,0.05610X0.00050*%
%ADD21R,0.05810X0.00050*%
%ADD22R,0.06110X0.00050*%
%ADD23R,0.06410X0.00050*%
%ADD24R,0.06610X0.00050*%
%ADD25R,0.06800X0.00050*%
%ADD26R,0.07050X0.00050*%
%ADD27R,0.07300X0.00050*%
%ADD28R,0.07500X0.00050*%
%ADD29R,0.07700X0.00050*%
%ADD30R,0.07890X0.00050*%
%ADD31R,0.08090X0.00050*%
%ADD32R,0.08190X0.00050*%
%ADD33R,0.08390X0.00050*%
%ADD34R,0.08600X0.00050*%
%ADD35R,0.08800X0.00050*%
%ADD36R,0.08900X0.00050*%
%ADD37R,0.09090X0.00050*%
%ADD38R,0.09190X0.00050*%
%ADD39R,0.09390X0.00050*%
%ADD40R,0.09490X0.00050*%
%ADD41R,0.09690X0.00050*%
%ADD42R,0.09790X0.00050*%
%ADD43R,0.09990X0.00050*%
%ADD44R,0.10090X0.00050*%
%ADD45R,0.10210X0.00050*%
%ADD46R,0.10410X0.00050*%
%ADD47R,0.10510X0.00050*%
%ADD48R,0.10610X0.00050*%
%ADD49R,0.10700X0.00050*%
%ADD50R,0.10900X0.00050*%
%ADD51R,0.11000X0.00050*%
%ADD52R,0.11100X0.00050*%
%ADD53R,0.11200X0.00050*%
%ADD54R,0.11300X0.00050*%
%ADD55R,0.11400X0.00050*%
%ADD56R,0.11500X0.00050*%
%ADD57R,0.11600X0.00050*%
%ADD58R,0.11760X0.00050*%
%ADD59R,0.11910X0.00050*%
%ADD60R,0.12010X0.00050*%
%ADD61R,0.12110X0.00050*%
%ADD62R,0.12210X0.00050*%
%ADD63R,0.12260X0.00050*%
%ADD64R,0.12300X0.00050*%
%ADD65R,0.12400X0.00050*%
%ADD66R,0.12500X0.00050*%
%ADD67R,0.05750X0.00050*%
%ADD68R,0.05800X0.00050*%
%ADD69R,0.05400X0.00050*%
%ADD70R,0.05450X0.00050*%
%ADD71R,0.05140X0.00050*%
%ADD72R,0.05200X0.00050*%
%ADD73R,0.04990X0.00050*%
%ADD74R,0.05050X0.00050*%
%ADD75R,0.04840X0.00050*%
%ADD76R,0.04960X0.00050*%
%ADD77R,0.04750X0.00050*%
%ADD78R,0.04810X0.00050*%
%ADD79R,0.04660X0.00050*%
%ADD80R,0.04550X0.00050*%
%ADD81R,0.04460X0.00050*%
%ADD82R,0.04500X0.00050*%
%ADD83R,0.04410X0.00050*%
%ADD84R,0.04450X0.00050*%
%ADD85R,0.04360X0.00050*%
%ADD86R,0.04400X0.00050*%
%ADD87R,0.04210X0.00050*%
%ADD88R,0.04250X0.00050*%
%ADD89R,0.04160X0.00050*%
%ADD90R,0.04150X0.00050*%
%ADD91R,0.04050X0.00050*%
%ADD92R,0.04000X0.00050*%
%ADD93R,0.03940X0.00050*%
%ADD94R,0.03840X0.00050*%
%ADD95R,0.03900X0.00050*%
%ADD96R,0.03750X0.00050*%
%ADD97R,0.03700X0.00050*%
%ADD98R,0.03740X0.00050*%
%ADD99R,0.03650X0.00050*%
%ADD100R,0.03690X0.00050*%
%ADD101R,0.03550X0.00050*%
%ADD102R,0.03590X0.00050*%
%ADD103R,0.03500X0.00050*%
%ADD104R,0.03540X0.00050*%
%ADD105R,0.03450X0.00050*%
%ADD106R,0.03460X0.00050*%
%ADD107R,0.03410X0.00050*%
%ADD108R,0.03360X0.00050*%
%ADD109R,0.00350X0.00050*%
%ADD110R,0.03400X0.00050*%
%ADD111R,0.01250X0.00050*%
%ADD112R,0.03300X0.00050*%
%ADD113R,0.01750X0.00050*%
%ADD114R,0.03290X0.00050*%
%ADD115R,0.02150X0.00050*%
%ADD116R,0.03240X0.00050*%
%ADD117R,0.02510X0.00050*%
%ADD118R,0.02760X0.00050*%
%ADD119R,0.03050X0.00050*%
%ADD120R,0.03250X0.00050*%
%ADD121R,0.03190X0.00050*%
%ADD122R,0.03200X0.00050*%
%ADD123R,0.03640X0.00050*%
%ADD124R,0.03150X0.00050*%
%ADD125R,0.03850X0.00050*%
%ADD126R,0.03210X0.00050*%
%ADD127R,0.00660X0.00050*%
%ADD128R,0.02350X0.00050*%
%ADD129R,0.02250X0.00050*%
%ADD130R,0.04350X0.00050*%
%ADD131R,0.00610X0.00050*%
%ADD132R,0.02210X0.00050*%
%ADD133R,0.00560X0.00050*%
%ADD134R,0.02110X0.00050*%
%ADD135R,0.04650X0.00050*%
%ADD136R,0.02010X0.00050*%
%ADD137R,0.00510X0.00050*%
%ADD138R,0.01960X0.00050*%
%ADD139R,0.00490X0.00050*%
%ADD140R,0.01860X0.00050*%
%ADD141R,0.05000X0.00050*%
%ADD142R,0.00440X0.00050*%
%ADD143R,0.01760X0.00050*%
%ADD144R,0.05150X0.00050*%
%ADD145R,0.03100X0.00050*%
%ADD146R,0.00400X0.00050*%
%ADD147R,0.01700X0.00050*%
%ADD148R,0.05250X0.00050*%
%ADD149R,0.01600X0.00050*%
%ADD150R,0.02840X0.00050*%
%ADD151R,0.01550X0.00050*%
%ADD152R,0.02640X0.00050*%
%ADD153R,0.01400X0.00050*%
%ADD154R,0.00300X0.00050*%
%ADD155R,0.02550X0.00050*%
%ADD156R,0.01260X0.00050*%
%ADD157R,0.00100X0.00050*%
%ADD158R,0.01300X0.00050*%
%ADD159R,0.02460X0.00050*%
%ADD160R,0.01160X0.00050*%
%ADD161R,0.00240X0.00050*%
%ADD162R,0.00200X0.00050*%
%ADD163R,0.02360X0.00050*%
%ADD164R,0.01110X0.00050*%
%ADD165R,0.00190X0.00050*%
%ADD166R,0.00290X0.00050*%
%ADD167R,0.01140X0.00050*%
%ADD168R,0.02310X0.00050*%
%ADD169R,0.01060X0.00050*%
%ADD170R,0.03000X0.00050*%
%ADD171R,0.00390X0.00050*%
%ADD172R,0.01090X0.00050*%
%ADD173R,0.02260X0.00050*%
%ADD174R,0.01000X0.00050*%
%ADD175R,0.00150X0.00050*%
%ADD176R,0.00990X0.00050*%
%ADD177R,0.00900X0.00050*%
%ADD178R,0.02990X0.00050*%
%ADD179R,0.00590X0.00050*%
%ADD180R,0.00950X0.00050*%
%ADD181R,0.00690X0.00050*%
%ADD182R,0.00850X0.00050*%
%ADD183R,0.02160X0.00050*%
%ADD184R,0.00050X0.00050*%
%ADD185R,0.00800X0.00050*%
%ADD186R,0.00910X0.00050*%
%ADD187R,0.00750X0.00050*%
%ADD188R,0.02940X0.00050*%
%ADD189R,0.00650X0.00050*%
%ADD190R,0.02060X0.00050*%
%ADD191R,0.01100X0.00050*%
%ADD192R,0.00600X0.00050*%
%ADD193R,0.01200X0.00050*%
%ADD194R,0.02000X0.00050*%
%ADD195R,0.02950X0.00050*%
%ADD196R,0.01510X0.00050*%
%ADD197R,0.01950X0.00050*%
%ADD198R,0.01610X0.00050*%
%ADD199R,0.00250X0.00050*%
%ADD200R,0.01940X0.00050*%
%ADD201R,0.01710X0.00050*%
%ADD202R,0.01890X0.00050*%
%ADD203R,0.02900X0.00050*%
%ADD204R,0.01800X0.00050*%
%ADD205R,0.01840X0.00050*%
%ADD206R,0.01990X0.00050*%
%ADD207R,0.00550X0.00050*%
%ADD208R,0.02090X0.00050*%
%ADD209R,0.02190X0.00050*%
%ADD210R,0.00500X0.00050*%
%ADD211R,0.02300X0.00050*%
%ADD212R,0.01790X0.00050*%
%ADD213R,0.02850X0.00050*%
%ADD214R,0.02400X0.00050*%
%ADD215R,0.02560X0.00050*%
%ADD216R,0.02650X0.00050*%
%ADD217R,0.02750X0.00050*%
%ADD218R,0.00450X0.00050*%
%ADD219R,0.03160X0.00050*%
%ADD220R,0.03260X0.00050*%
%ADD221R,0.03440X0.00050*%
%ADD222R,0.02800X0.00050*%
%ADD223R,0.03960X0.00050*%
%ADD224R,0.07790X0.00050*%
%ADD225R,0.04760X0.00050*%
%ADD226R,0.07840X0.00050*%
%ADD227R,0.04850X0.00050*%
%ADD228R,0.04950X0.00050*%
%ADD229R,0.05290X0.00050*%
%ADD230R,0.05390X0.00050*%
%ADD231R,0.05510X0.00050*%
%ADD232R,0.05600X0.00050*%
%ADD233R,0.05410X0.00050*%
%ADD234R,0.05310X0.00050*%
%ADD235R,0.05210X0.00050*%
%ADD236R,0.05110X0.00050*%
%ADD237R,0.05010X0.00050*%
%ADD238R,0.04910X0.00050*%
%ADD239R,0.04710X0.00050*%
%ADD240R,0.04610X0.00050*%
%ADD241R,0.04510X0.00050*%
%ADD242R,0.04310X0.00050*%
%ADD243R,0.01850X0.00050*%
%ADD244R,0.04110X0.00050*%
%ADD245R,0.03800X0.00050*%
%ADD246R,0.01900X0.00050*%
%ADD247R,0.02050X0.00050*%
%ADD248R,0.02040X0.00050*%
%ADD249R,0.02140X0.00050*%
%ADD250R,0.02450X0.00050*%
%ADD251R,0.02860X0.00050*%
%ADD252R,0.02240X0.00050*%
%ADD253R,0.02290X0.00050*%
%ADD254R,0.02910X0.00050*%
%ADD255R,0.02500X0.00050*%
%ADD256R,0.02600X0.00050*%
%ADD257R,0.01740X0.00050*%
%ADD258R,0.02700X0.00050*%
%ADD259R,0.01640X0.00050*%
%ADD260R,0.01540X0.00050*%
%ADD261R,0.01440X0.00050*%
%ADD262R,0.01340X0.00050*%
%ADD263R,0.06660X0.00050*%
%ADD264R,0.01240X0.00050*%
%ADD265R,0.02890X0.00050*%
%ADD266R,0.06560X0.00050*%
%ADD267R,0.01040X0.00050*%
%ADD268R,0.06460X0.00050*%
%ADD269R,0.00940X0.00050*%
%ADD270R,0.00840X0.00050*%
%ADD271R,0.06360X0.00050*%
%ADD272R,0.00740X0.00050*%
%ADD273R,0.06260X0.00050*%
%ADD274R,0.00640X0.00050*%
%ADD275R,0.06160X0.00050*%
%ADD276R,0.01210X0.00050*%
%ADD277R,0.00540X0.00050*%
%ADD278R,0.06010X0.00050*%
%ADD279R,0.01360X0.00050*%
%ADD280R,0.00340X0.00050*%
%ADD281R,0.05910X0.00050*%
%ADD282R,0.01410X0.00050*%
%ADD283R,0.05860X0.00050*%
%ADD284R,0.05760X0.00050*%
%ADD285R,0.01560X0.00050*%
%ADD286R,0.05660X0.00050*%
%ADD287R,0.01660X0.00050*%
%ADD288R,0.05550X0.00050*%
%ADD289R,0.01810X0.00050*%
%ADD290R,0.05350X0.00050*%
%ADD291R,0.01910X0.00050*%
%ADD292R,0.03060X0.00050*%
%ADD293R,0.03110X0.00050*%
%ADD294R,0.05100X0.00050*%
%ADD295R,0.02410X0.00050*%
%ADD296R,0.04300X0.00050*%
%ADD297R,0.03600X0.00050*%
%ADD298R,0.03890X0.00050*%
%ADD299R,0.03950X0.00050*%
%ADD300R,0.03990X0.00050*%
%ADD301R,0.04100X0.00050*%
%ADD302R,0.04260X0.00050*%
%ADD303R,0.04560X0.00050*%
%ADD304R,0.04700X0.00050*%
%ADD305R,0.04790X0.00050*%
%ADD306R,0.04860X0.00050*%
%ADD307R,0.05650X0.00050*%
%ADD308R,0.12600X0.00050*%
%ADD309R,0.11810X0.00050*%
%ADD310R,0.11710X0.00050*%
%ADD311R,0.10800X0.00050*%
%ADD312R,0.10310X0.00050*%
%ADD313R,0.09890X0.00050*%
%ADD314R,0.08700X0.00050*%
%ADD315R,0.07990X0.00050*%
%ADD316R,0.07600X0.00050*%
%ADD317R,0.07400X0.00050*%
%ADD318R,0.07200X0.00050*%
%ADD319R,0.07000X0.00050*%
%ADD320R,0.06310X0.00050*%
%ADD321R,0.02710X0.00050*%
%ADD322R,0.00790X0.00050*%
%ADD323R,0.22100X0.00033*%
%ADD324R,0.22100X0.00034*%
%ADD325R,0.00030X0.00034*%
%ADD326R,0.00060X0.00034*%
%ADD327R,0.00100X0.00033*%
%ADD328R,0.00140X0.00033*%
%ADD329R,0.00200X0.00033*%
%ADD330R,0.00260X0.00034*%
%ADD331R,0.00340X0.00033*%
%ADD332R,0.00300X0.00033*%
%ADD333R,0.00400X0.00033*%
%ADD334R,0.00460X0.00034*%
%ADD335R,0.00470X0.00034*%
%ADD336R,0.00540X0.00033*%
%ADD337R,0.00530X0.00033*%
%ADD338R,0.00570X0.00033*%
%ADD339R,0.00600X0.00033*%
%ADD340R,0.00670X0.00034*%
%ADD341R,0.00730X0.00033*%
%ADD342R,0.00800X0.00033*%
%ADD343R,0.00760X0.00033*%
%ADD344R,0.00870X0.00034*%
%ADD345R,0.00930X0.00033*%
%ADD346R,0.01000X0.00033*%
%ADD347R,0.01070X0.00034*%
%ADD348R,0.01130X0.00033*%
%ADD349R,0.01160X0.00033*%
%ADD350R,0.01170X0.00034*%
%ADD351R,0.02330X0.00034*%
%ADD352R,0.00800X0.00034*%
%ADD353R,0.01170X0.00033*%
%ADD354R,0.02330X0.00033*%
%ADD355R,0.01100X0.00033*%
%ADD356R,0.01140X0.00033*%
%ADD357R,0.01340X0.00033*%
%ADD358R,0.01540X0.00034*%
%ADD359R,0.01130X0.00034*%
%ADD360R,0.01700X0.00033*%
%ADD361R,0.01860X0.00033*%
%ADD362R,0.02000X0.00034*%
%ADD363R,0.01160X0.00034*%
%ADD364R,0.02140X0.00033*%
%ADD365R,0.02230X0.00033*%
%ADD366R,0.02340X0.00034*%
%ADD367R,0.02430X0.00033*%
%ADD368R,0.02540X0.00033*%
%ADD369R,0.02630X0.00034*%
%ADD370R,0.02740X0.00033*%
%ADD371R,0.02800X0.00033*%
%ADD372R,0.02860X0.00034*%
%ADD373R,0.02940X0.00033*%
%ADD374R,0.03030X0.00033*%
%ADD375R,0.03100X0.00034*%
%ADD376R,0.01140X0.00034*%
%ADD377R,0.03170X0.00033*%
%ADD378R,0.03200X0.00033*%
%ADD379R,0.03260X0.00034*%
%ADD380R,0.00770X0.00033*%
%ADD381R,0.01440X0.00033*%
%ADD382R,0.01400X0.00033*%
%ADD383R,0.01300X0.00033*%
%ADD384R,0.00760X0.00034*%
%ADD385R,0.00730X0.00034*%
%ADD386R,0.01200X0.00034*%
%ADD387R,0.01230X0.00034*%
%ADD388R,0.01100X0.00034*%
%ADD389R,0.01030X0.00033*%
%ADD390R,0.01060X0.00033*%
%ADD391R,0.01040X0.00034*%
%ADD392R,0.01000X0.00034*%
%ADD393R,0.00970X0.00033*%
%ADD394R,0.00930X0.00034*%
%ADD395R,0.00900X0.00033*%
%ADD396R,0.00900X0.00034*%
%ADD397R,0.00540X0.00034*%
%ADD398R,0.00870X0.00033*%
%ADD399R,0.00740X0.00033*%
%ADD400R,0.00860X0.00034*%
%ADD401R,0.00860X0.00033*%
%ADD402R,0.00830X0.00033*%
%ADD403R,0.01200X0.00033*%
%ADD404R,0.00830X0.00034*%
%ADD405R,0.01300X0.00034*%
%ADD406R,0.00840X0.00034*%
%ADD407R,0.00840X0.00033*%
%ADD408R,0.01370X0.00033*%
%ADD409R,0.01430X0.00033*%
%ADD410R,0.01500X0.00034*%
%ADD411R,0.01540X0.00033*%
%ADD412R,0.01600X0.00033*%
%ADD413R,0.01630X0.00034*%
%ADD414R,0.01660X0.00033*%
%ADD415R,0.01740X0.00033*%
%ADD416R,0.01770X0.00034*%
%ADD417R,0.01770X0.00033*%
%ADD418R,0.08800X0.00033*%
%ADD419R,0.01800X0.00033*%
%ADD420R,0.08800X0.00034*%
%ADD421R,0.01830X0.00034*%
%ADD422R,0.00770X0.00034*%
%ADD423R,0.01900X0.00034*%
%ADD424R,0.00740X0.00034*%
%ADD425R,0.08770X0.00033*%
%ADD426R,0.08830X0.00033*%
%ADD427R,0.08830X0.00034*%
%ADD428R,0.08870X0.00033*%
%ADD429R,0.08870X0.00034*%
%ADD430R,0.01830X0.00033*%
%ADD431R,0.08900X0.00034*%
%ADD432R,0.01740X0.00034*%
%ADD433R,0.01570X0.00033*%
%ADD434R,0.01500X0.00033*%
%ADD435R,0.01460X0.00034*%
%ADD436R,0.01260X0.00034*%
%ADD437R,0.00970X0.00034*%
%ADD438R,0.00660X0.00033*%
%ADD439R,0.00430X0.00034*%
%ADD440R,0.01070X0.00033*%
%ADD441R,0.01270X0.00034*%
%ADD442R,0.03230X0.00034*%
%ADD443R,0.03140X0.00033*%
%ADD444R,0.03060X0.00034*%
%ADD445R,0.03000X0.00033*%
%ADD446R,0.02900X0.00033*%
%ADD447R,0.02830X0.00034*%
%ADD448R,0.02660X0.00033*%
%ADD449R,0.02600X0.00034*%
%ADD450R,0.02500X0.00033*%
%ADD451R,0.02400X0.00033*%
%ADD452R,0.02260X0.00034*%
%ADD453R,0.02170X0.00033*%
%ADD454R,0.02060X0.00033*%
%ADD455R,0.01940X0.00034*%
%ADD456R,0.01630X0.00033*%
%ADD457R,0.01430X0.00034*%
%ADD458R,0.01230X0.00033*%
%ADD459R,0.01900X0.00033*%
%ADD460R,0.01730X0.00034*%
%ADD461R,0.01670X0.00033*%
%ADD462R,0.01870X0.00033*%
%ADD463R,0.01840X0.00033*%
%ADD464R,0.01760X0.00034*%
%ADD465R,0.01730X0.00033*%
%ADD466R,0.01470X0.00033*%
%ADD467R,0.01440X0.00034*%
%ADD468R,0.01660X0.00034*%
%ADD469R,0.01370X0.00034*%
%ADD470R,0.01600X0.00034*%
%ADD471R,0.01530X0.00033*%
%ADD472R,0.01260X0.00033*%
%ADD473R,0.01470X0.00034*%
%ADD474R,0.01400X0.00034*%
%ADD475R,0.01330X0.00033*%
%ADD476R,0.01240X0.00033*%
%ADD477R,0.01240X0.00034*%
%ADD478R,0.01270X0.00033*%
%ADD479R,0.01560X0.00034*%
%ADD480R,0.01340X0.00034*%
%ADD481R,0.01530X0.00034*%
%ADD482R,0.01870X0.00034*%
%ADD483R,0.01940X0.00033*%
%ADD484R,0.01760X0.00033*%
%ADD485R,0.02270X0.00034*%
%ADD486R,0.02100X0.00034*%
%ADD487R,0.02030X0.00033*%
%ADD488R,0.01970X0.00033*%
%ADD489R,0.01570X0.00034*%
%ADD490R,0.01970X0.00034*%
%ADD491R,0.02000X0.00033*%
%ADD492R,0.02300X0.00034*%
%ADD493R,0.05700X0.00033*%
%ADD494R,0.05770X0.00034*%
%ADD495R,0.05830X0.00033*%
%ADD496R,0.05860X0.00033*%
%ADD497R,0.05940X0.00034*%
%ADD498R,0.06000X0.00033*%
%ADD499R,0.06060X0.00033*%
%ADD500R,0.06140X0.00034*%
%ADD501R,0.06170X0.00033*%
%ADD502R,0.06230X0.00033*%
%ADD503R,0.06260X0.00034*%
%ADD504R,0.06340X0.00033*%
%ADD505R,0.06400X0.00033*%
%ADD506R,0.06460X0.00034*%
%ADD507R,0.06540X0.00033*%
%ADD508R,0.06570X0.00033*%
%ADD509R,0.06630X0.00034*%
%ADD510R,0.06700X0.00033*%
%ADD511R,0.06740X0.00033*%
%ADD512R,0.06800X0.00034*%
%ADD513R,0.06860X0.00033*%
%ADD514R,0.06940X0.00033*%
%ADD515R,0.03470X0.00034*%
%ADD516R,0.01460X0.00033*%
%ADD517R,0.03470X0.00033*%
%ADD518R,0.03430X0.00034*%
%ADD519R,0.03430X0.00033*%
%ADD520R,0.01560X0.00033*%
%ADD521R,0.01700X0.00034*%
%ADD522R,0.03400X0.00033*%
%ADD523R,0.03400X0.00034*%
%ADD524R,0.07860X0.00034*%
%ADD525R,0.07940X0.00033*%
%ADD526R,0.07970X0.00033*%
%ADD527R,0.05660X0.00034*%
%ADD528R,0.03370X0.00034*%
%ADD529R,0.05660X0.00033*%
%ADD530R,0.03370X0.00033*%
%ADD531R,0.03300X0.00033*%
%ADD532R,0.03300X0.00034*%
%ADD533R,0.03270X0.00033*%
%ADD534R,0.03270X0.00034*%
%ADD535R,0.03230X0.00033*%
%ADD536R,0.03200X0.00034*%
%ADD537R,0.01640X0.00033*%
%ADD538R,0.07340X0.00034*%
%ADD539R,0.15470X0.00033*%
%ADD540R,0.15500X0.00033*%
%ADD541R,0.15500X0.00034*%
%ADD542R,0.15530X0.00033*%
%ADD543R,0.15530X0.00034*%
%ADD544R,0.15560X0.00033*%
%ADD545R,0.15600X0.00034*%
%ADD546R,0.15600X0.00033*%
%ADD547R,0.15630X0.00033*%
%ADD548R,0.15660X0.00034*%
%ADD549R,0.15740X0.00033*%
%ADD550R,0.15770X0.00033*%
%ADD551R,0.15830X0.00034*%
%ADD552R,0.15900X0.00033*%
%ADD553R,0.15970X0.00033*%
%ADD554R,0.16030X0.00034*%
%ADD555R,0.16060X0.00033*%
%ADD556R,0.01800X0.00034*%
%ADD557R,0.02100X0.00033*%
%ADD558R,0.02070X0.00033*%
%ADD559R,0.16630X0.00033*%
%ADD560R,0.16700X0.00034*%
%ADD561R,0.16770X0.00033*%
%ADD562R,0.16830X0.00033*%
%ADD563R,0.16900X0.00034*%
%ADD564R,0.15700X0.00033*%
%ADD565R,0.15670X0.00034*%
%ADD566R,0.15660X0.00033*%
%ADD567R,0.15640X0.00033*%
%ADD568R,0.14160X0.00034*%
%ADD569R,0.14000X0.00033*%
%ADD570R,0.13900X0.00033*%
%ADD571R,0.13800X0.00034*%
%ADD572R,0.13700X0.00033*%
%ADD573R,0.13600X0.00033*%
%ADD574R,0.13530X0.00034*%
%ADD575R,0.13470X0.00033*%
%ADD576R,0.13400X0.00033*%
%ADD577R,0.13300X0.00034*%
%ADD578R,0.13230X0.00033*%
%ADD579R,0.13200X0.00033*%
%ADD580R,0.13100X0.00034*%
%ADD581R,0.01960X0.00033*%
%ADD582R,0.02300X0.00033*%
%ADD583R,0.02030X0.00034*%
%ADD584R,0.02400X0.00034*%
%ADD585R,0.02530X0.00033*%
%ADD586R,0.02630X0.00033*%
%ADD587R,0.02200X0.00034*%
%ADD588R,0.02770X0.00034*%
%ADD589R,0.01330X0.00034*%
%ADD590R,0.02260X0.00033*%
%ADD591R,0.02370X0.00033*%
%ADD592R,0.02430X0.00034*%
%ADD593R,0.02640X0.00033*%
%ADD594R,0.02840X0.00034*%
%ADD595R,0.02640X0.00034*%
%ADD596R,0.03040X0.00033*%
%ADD597R,0.03240X0.00033*%
%ADD598R,0.02870X0.00033*%
%ADD599R,0.03500X0.00034*%
%ADD600R,0.03030X0.00034*%
%ADD601R,0.03770X0.00033*%
%ADD602R,0.04140X0.00033*%
%ADD603R,0.04600X0.00034*%
%ADD604R,0.03800X0.00034*%
%ADD605R,0.05870X0.00033*%
%ADD606R,0.04500X0.00033*%
%ADD607R,0.09870X0.00033*%
%ADD608R,0.02130X0.00033*%
%ADD609R,0.09670X0.00034*%
%ADD610R,0.09530X0.00033*%
%ADD611R,0.09430X0.00033*%
%ADD612R,0.09330X0.00034*%
%ADD613R,0.02240X0.00034*%
%ADD614R,0.09200X0.00033*%
%ADD615R,0.02200X0.00033*%
%ADD616R,0.09100X0.00033*%
%ADD617R,0.02160X0.00033*%
%ADD618R,0.08960X0.00034*%
%ADD619R,0.08860X0.00033*%
%ADD620R,0.07830X0.00033*%
%ADD621R,0.02040X0.00033*%
%ADD622R,0.07570X0.00034*%
%ADD623R,0.01960X0.00034*%
%ADD624R,0.07270X0.00033*%
%ADD625R,0.06970X0.00033*%
%ADD626R,0.06260X0.00033*%
%ADD627R,0.05900X0.00033*%
%ADD628R,0.05500X0.00034*%
%ADD629R,0.05030X0.00033*%
%ADD630R,0.04530X0.00033*%
%ADD631R,0.04100X0.00034*%
%ADD632R,0.03930X0.00033*%
%ADD633R,0.01040X0.00033*%
%ADD634R,0.02700X0.00033*%
%ADD635R,0.00640X0.00034*%
%ADD636R,0.01670X0.00034*%
%ADD637R,0.03930X0.00034*%
%ADD638R,0.01060X0.00034*%
%ADD639R,0.00700X0.00033*%
%ADD640R,0.00560X0.00033*%
%ADD641R,0.00500X0.00033*%
%ADD642R,0.00440X0.00034*%
%ADD643R,0.00360X0.00033*%
%ADD644R,0.00240X0.00034*%
%ADD645R,0.00130X0.00033*%
%ADD646R,0.00940X0.00034*%
%ADD647R,0.03160X0.00034*%
%ADD648R,0.03630X0.00033*%
%ADD649R,0.03660X0.00033*%
%ADD650R,0.03860X0.00034*%
%ADD651R,0.04030X0.00033*%
%ADD652R,0.04200X0.00033*%
%ADD653R,0.04230X0.00033*%
%ADD654R,0.04360X0.00034*%
%ADD655R,0.04400X0.00034*%
%ADD656R,0.04660X0.00033*%
%ADD657R,0.04700X0.00033*%
%ADD658R,0.04800X0.00034*%
%ADD659R,0.04830X0.00034*%
%ADD660R,0.04960X0.00033*%
%ADD661R,0.05060X0.00033*%
%ADD662R,0.05100X0.00033*%
%ADD663R,0.05200X0.00034*%
%ADD664R,0.05330X0.00033*%
%ADD665R,0.05430X0.00033*%
%ADD666R,0.05530X0.00034*%
%ADD667R,0.05560X0.00034*%
%ADD668R,0.05760X0.00033*%
%ADD669R,0.05860X0.00034*%
%ADD670R,0.05960X0.00033*%
%ADD671R,0.06160X0.00034*%
%ADD672R,0.06330X0.00033*%
%ADD673R,0.06360X0.00033*%
%ADD674R,0.06430X0.00034*%
%ADD675R,0.06530X0.00033*%
%ADD676R,0.06600X0.00033*%
%ADD677R,0.06630X0.00033*%
%ADD678R,0.06700X0.00034*%
%ADD679R,0.06760X0.00033*%
%ADD680R,0.06800X0.00033*%
%ADD681R,0.06930X0.00034*%
%ADD682R,0.06960X0.00034*%
%ADD683R,0.07000X0.00033*%
%ADD684R,0.07030X0.00033*%
%ADD685R,0.07100X0.00033*%
%ADD686R,0.07160X0.00034*%
%ADD687R,0.07230X0.00033*%
%ADD688R,0.07260X0.00033*%
%ADD689R,0.07330X0.00033*%
%ADD690R,0.07400X0.00034*%
%ADD691R,0.07460X0.00033*%
%ADD692R,0.07530X0.00033*%
%ADD693R,0.07600X0.00034*%
%ADD694R,0.07630X0.00034*%
%ADD695R,0.07660X0.00033*%
%ADD696R,0.07700X0.00033*%
%ADD697R,0.07730X0.00033*%
%ADD698R,0.07760X0.00033*%
%ADD699R,0.07800X0.00034*%
%ADD700R,0.07830X0.00034*%
%ADD701R,0.07860X0.00033*%
%ADD702R,0.07900X0.00033*%
%ADD703R,0.07930X0.00033*%
%ADD704R,0.07960X0.00033*%
%ADD705R,0.08000X0.00034*%
%ADD706R,0.08030X0.00034*%
%ADD707R,0.08060X0.00033*%
%ADD708R,0.08130X0.00033*%
%ADD709R,0.08200X0.00034*%
%ADD710R,0.08260X0.00033*%
%ADD711R,0.08300X0.00033*%
%ADD712R,0.08330X0.00033*%
%ADD713R,0.08360X0.00034*%
%ADD714R,0.08400X0.00034*%
%ADD715R,0.08430X0.00033*%
%ADD716R,0.08500X0.00033*%
%ADD717R,0.08560X0.00034*%
%ADD718R,0.08600X0.00033*%
%ADD719R,0.08630X0.00033*%
%ADD720R,0.08660X0.00033*%
%ADD721R,0.08730X0.00034*%
%ADD722R,0.08760X0.00033*%
%ADD723R,0.08930X0.00033*%
%ADD724R,0.08960X0.00033*%
%ADD725R,0.09000X0.00033*%
%ADD726R,0.09030X0.00034*%
%ADD727R,0.09060X0.00034*%
%ADD728R,0.09160X0.00033*%
%ADD729R,0.09200X0.00034*%
%ADD730R,0.09260X0.00033*%
%ADD731R,0.09300X0.00033*%
%ADD732R,0.09360X0.00034*%
%ADD733R,0.09400X0.00033*%
%ADD734R,0.09460X0.00033*%
%ADD735R,0.09500X0.00034*%
%ADD736R,0.09560X0.00033*%
%ADD737R,0.09600X0.00033*%
%ADD738R,0.09630X0.00034*%
%ADD739R,0.09660X0.00034*%
%ADD740R,0.09700X0.00033*%
%ADD741R,0.09730X0.00033*%
%ADD742R,0.09760X0.00033*%
%ADD743R,0.09800X0.00034*%
%ADD744R,0.09830X0.00033*%
%ADD745R,0.09860X0.00033*%
%ADD746R,0.09900X0.00033*%
%ADD747R,0.09930X0.00034*%
%ADD748R,0.09960X0.00033*%
%ADD749R,0.10000X0.00033*%
%ADD750R,0.10030X0.00033*%
%ADD751R,0.10060X0.00034*%
%ADD752R,0.10100X0.00033*%
%ADD753R,0.10130X0.00033*%
%ADD754R,0.10160X0.00033*%
%ADD755R,0.10160X0.00034*%
%ADD756R,0.10200X0.00034*%
%ADD757R,0.10230X0.00033*%
%ADD758R,0.10260X0.00033*%
%ADD759R,0.10300X0.00034*%
%ADD760R,0.10330X0.00034*%
%ADD761R,0.10360X0.00033*%
%ADD762R,0.10400X0.00033*%
%ADD763R,0.10430X0.00034*%
%ADD764R,0.10460X0.00033*%
%ADD765R,0.10500X0.00033*%
%ADD766R,0.10530X0.00033*%
%ADD767R,0.10560X0.00034*%
%ADD768R,0.10600X0.00033*%
%ADD769R,0.10630X0.00033*%
%ADD770R,0.10660X0.00034*%
%ADD771R,0.10700X0.00034*%
%ADD772R,0.10700X0.00033*%
%ADD773R,0.10730X0.00033*%
%ADD774R,0.10760X0.00033*%
%ADD775R,0.10800X0.00034*%
%ADD776R,0.10830X0.00033*%
%ADD777R,0.10860X0.00033*%
%ADD778R,0.10900X0.00034*%
%ADD779R,0.10930X0.00034*%
%ADD780R,0.10930X0.00033*%
%ADD781R,0.10960X0.00033*%
%ADD782R,0.11000X0.00033*%
%ADD783R,0.11000X0.00034*%
%ADD784R,0.11030X0.00034*%
%ADD785R,0.11060X0.00033*%
%ADD786R,0.11100X0.00033*%
%ADD787R,0.11130X0.00034*%
%ADD788R,0.11160X0.00033*%
%ADD789R,0.11200X0.00033*%
%ADD790R,0.11230X0.00034*%
%ADD791R,0.11260X0.00033*%
%ADD792R,0.11300X0.00033*%
%ADD793R,0.11330X0.00034*%
%ADD794R,0.11360X0.00033*%
%ADD795R,0.11400X0.00033*%
%ADD796R,0.11430X0.00033*%
%ADD797R,0.11430X0.00034*%
%ADD798R,0.11460X0.00034*%
%ADD799R,0.11460X0.00033*%
%ADD800R,0.11500X0.00033*%
%ADD801R,0.11530X0.00033*%
%ADD802R,0.11530X0.00034*%
%ADD803R,0.11560X0.00034*%
%ADD804R,0.11560X0.00033*%
%ADD805R,0.11600X0.00033*%
%ADD806R,0.09840X0.00033*%
%ADD807R,0.00300X0.00034*%
%ADD808R,0.09030X0.00033*%
%ADD809R,0.08840X0.00033*%
%ADD810R,0.08630X0.00034*%
%ADD811R,0.08370X0.00033*%
%ADD812R,0.08230X0.00034*%
%ADD813R,0.08040X0.00033*%
%ADD814R,0.07930X0.00034*%
%ADD815R,0.07770X0.00033*%
%ADD816R,0.07640X0.00034*%
%ADD817R,0.07670X0.00034*%
%ADD818R,0.07570X0.00033*%
%ADD819R,0.07600X0.00033*%
%ADD820R,0.07500X0.00033*%
%ADD821R,0.07540X0.00033*%
%ADD822R,0.07440X0.00034*%
%ADD823R,0.07370X0.00033*%
%ADD824R,0.07300X0.00033*%
%ADD825R,0.07270X0.00034*%
%ADD826R,0.07200X0.00033*%
%ADD827R,0.07130X0.00033*%
%ADD828R,0.07060X0.00034*%
%ADD829R,0.07100X0.00034*%
%ADD830R,0.07040X0.00033*%
%ADD831R,0.07070X0.00033*%
%ADD832R,0.06900X0.00033*%
%ADD833R,0.06840X0.00033*%
%ADD834R,0.06830X0.00033*%
%ADD835R,0.06730X0.00033*%
%ADD836R,0.06770X0.00033*%
%ADD837R,0.06670X0.00034*%
%ADD838R,0.06560X0.00033*%
%ADD839R,0.06540X0.00034*%
%ADD840R,0.06570X0.00034*%
%ADD841R,0.06500X0.00033*%
%ADD842R,0.06460X0.00033*%
%ADD843R,0.06470X0.00034*%
%ADD844R,0.06430X0.00033*%
%ADD845R,0.06370X0.00033*%
%ADD846R,0.06330X0.00034*%
%ADD847R,0.06270X0.00033*%
%ADD848R,0.06300X0.00033*%
%ADD849R,0.06230X0.00034*%
%ADD850R,0.06200X0.00033*%
%ADD851R,0.06170X0.00034*%
%ADD852R,0.06130X0.00033*%
%ADD853R,0.06100X0.00033*%
%ADD854R,0.06100X0.00034*%
%ADD855R,0.06040X0.00033*%
%ADD856R,0.06070X0.00033*%
%ADD857R,0.06030X0.00033*%
%ADD858R,0.06000X0.00034*%
%ADD859R,0.05970X0.00033*%
%ADD860R,0.05930X0.00034*%
%ADD861R,0.05870X0.00034*%
%ADD862R,0.05800X0.00033*%
%ADD863R,0.05800X0.00034*%
%ADD864R,0.05770X0.00033*%
%ADD865R,0.05740X0.00033*%
%ADD866R,0.05730X0.00034*%
%ADD867R,0.05730X0.00033*%
%ADD868R,0.05670X0.00034*%
%ADD869R,0.05670X0.00033*%
%ADD870R,0.05630X0.00033*%
%ADD871R,0.05630X0.00034*%
%ADD872R,0.05600X0.00034*%
%ADD873R,0.05600X0.00033*%
%ADD874R,0.05570X0.00033*%
%ADD875R,0.05570X0.00034*%
%ADD876R,0.05530X0.00033*%
%ADD877R,0.05560X0.00033*%
%ADD878R,0.05500X0.00033*%
%ADD879R,0.05540X0.00034*%
%ADD880R,0.05470X0.00033*%
%ADD881R,0.05430X0.00034*%
%ADD882R,0.05460X0.00034*%
%ADD883R,0.05440X0.00033*%
%ADD884R,0.05400X0.00034*%
%ADD885R,0.05400X0.00033*%
%ADD886R,0.05370X0.00033*%
%ADD887R,0.05360X0.00034*%
%ADD888R,0.05340X0.00033*%
%ADD889R,0.05330X0.00034*%
%ADD890R,0.05300X0.00033*%
%ADD891R,0.05260X0.00034*%
%ADD892R,0.05300X0.00034*%
%ADD893R,0.05270X0.00033*%
%ADD894R,0.05240X0.00033*%
%ADD895R,0.05230X0.00034*%
%ADD896R,0.05230X0.00033*%
%ADD897R,0.05200X0.00033*%
%ADD898R,0.05170X0.00033*%
%ADD899R,0.05170X0.00034*%
%ADD900R,0.05160X0.00034*%
%ADD901R,0.05160X0.00033*%
%ADD902R,0.05130X0.00033*%
%ADD903R,0.05140X0.00034*%
%ADD904R,0.05100X0.00034*%
%ADD905R,0.05070X0.00033*%
%ADD906R,0.05070X0.00034*%
%ADD907R,0.05040X0.00033*%
%ADD908R,0.05030X0.00034*%
%ADD909R,0.05000X0.00033*%
%ADD910R,0.05000X0.00034*%
%ADD911R,0.04970X0.00033*%
%ADD912R,0.04970X0.00034*%
%ADD913R,0.04960X0.00034*%
%ADD914R,0.04930X0.00033*%
%ADD915R,0.04940X0.00034*%
%ADD916R,0.04940X0.00033*%
%ADD917R,0.04900X0.00034*%
%ADD918R,0.04900X0.00033*%
%ADD919R,0.04860X0.00034*%
%ADD920R,0.04870X0.00033*%
%ADD921R,0.04870X0.00034*%
%ADD922R,0.04830X0.00033*%
%ADD923R,0.04860X0.00033*%
%ADD924R,0.04800X0.00033*%
%ADD925R,0.04840X0.00033*%
%ADD926R,0.04770X0.00033*%
%ADD927R,0.04770X0.00034*%
%ADD928R,0.04760X0.00033*%
%ADD929R,0.04740X0.00033*%
%ADD930R,0.04730X0.00034*%
%ADD931R,0.04730X0.00033*%
%ADD932R,0.04700X0.00034*%
%ADD933R,0.04670X0.00033*%
%ADD934R,0.04670X0.00034*%
%ADD935R,0.04660X0.00034*%
%ADD936R,0.04640X0.00033*%
%ADD937R,0.04640X0.00034*%
%ADD938R,0.04630X0.00033*%
%ADD939R,0.04630X0.00034*%
%ADD940R,0.04600X0.00033*%
%ADD941R,0.04570X0.00034*%
%ADD942R,0.04570X0.00033*%
%ADD943R,0.04560X0.00033*%
%ADD944R,0.04560X0.00034*%
%ADD945R,0.04540X0.00033*%
%ADD946R,0.04540X0.00034*%
%ADD947R,0.04530X0.00034*%
%ADD948R,0.04500X0.00034*%
%ADD949R,0.04470X0.00034*%
%ADD950R,0.04470X0.00033*%
%ADD951R,0.04460X0.00033*%
%ADD952R,0.04460X0.00034*%
%ADD953R,0.04430X0.00034*%
%ADD954R,0.04430X0.00033*%
%ADD955R,0.04440X0.00034*%
%ADD956R,0.04440X0.00033*%
%ADD957R,0.04400X0.00033*%
%ADD958R,0.04370X0.00033*%
%ADD959R,0.04370X0.00034*%
%ADD960R,0.04360X0.00033*%
%ADD961R,0.04340X0.00034*%
%ADD962R,0.04340X0.00033*%
%ADD963R,0.04330X0.00033*%
%ADD964R,0.04330X0.00034*%
%ADD965R,0.12670X0.00033*%
%ADD966R,0.12700X0.00033*%
%ADD967R,0.12700X0.00034*%
%ADD968R,0.12740X0.00034*%
%ADD969R,0.04300X0.00033*%
%ADD970R,0.12740X0.00033*%
%ADD971R,0.04300X0.00034*%
%ADD972R,0.12770X0.00034*%
%ADD973R,0.12770X0.00033*%
%ADD974R,0.12800X0.00033*%
%ADD975R,0.04270X0.00033*%
%ADD976R,0.04270X0.00034*%
%ADD977R,0.12800X0.00034*%
%ADD978R,0.04260X0.00034*%
%ADD979R,0.04260X0.00033*%
%ADD980R,0.12840X0.00033*%
%ADD981R,0.12840X0.00034*%
%ADD982R,0.12670X0.00034*%
%ADD983R,0.04740X0.00034*%
%ADD984R,0.04760X0.00034*%
%ADD985R,0.04840X0.00034*%
%ADD986R,0.04930X0.00034*%
%ADD987R,0.05040X0.00034*%
%ADD988R,0.05060X0.00034*%
%ADD989R,0.05130X0.00034*%
%ADD990R,0.05140X0.00033*%
%ADD991R,0.05270X0.00034*%
%ADD992R,0.05260X0.00033*%
%ADD993R,0.05370X0.00034*%
%ADD994R,0.05360X0.00033*%
%ADD995R,0.05460X0.00033*%
%ADD996R,0.05540X0.00033*%
%ADD997R,0.05700X0.00034*%
%ADD998R,0.05830X0.00034*%
%ADD999R,0.05900X0.00034*%
%ADD1000R,0.05930X0.00033*%
%ADD1001R,0.05960X0.00034*%
%ADD1002R,0.06040X0.00034*%
%ADD1003R,0.06070X0.00034*%
%ADD1004R,0.06130X0.00034*%
%ADD1005R,0.06200X0.00034*%
%ADD1006R,0.06340X0.00034*%
%ADD1007R,0.06300X0.00034*%
%ADD1008R,0.06400X0.00034*%
%ADD1009R,0.06470X0.00033*%
%ADD1010R,0.06440X0.00033*%
%ADD1011R,0.06500X0.00034*%
%ADD1012R,0.06670X0.00033*%
%ADD1013R,0.06730X0.00034*%
%ADD1014R,0.06770X0.00034*%
%ADD1015R,0.06870X0.00033*%
%ADD1016R,0.06900X0.00034*%
%ADD1017R,0.06930X0.00033*%
%ADD1018R,0.07040X0.00034*%
%ADD1019R,0.07070X0.00034*%
%ADD1020R,0.07060X0.00033*%
%ADD1021R,0.07200X0.00034*%
%ADD1022R,0.07370X0.00034*%
%ADD1023R,0.07440X0.00033*%
%ADD1024R,0.07640X0.00033*%
%ADD1025R,0.07670X0.00033*%
%ADD1026R,0.07740X0.00033*%
%ADD1027R,0.08130X0.00034*%
%ADD1028R,0.08230X0.00033*%
%ADD1029R,0.08500X0.00034*%
%ADD1030R,0.09070X0.00034*%
%ADD1031R,0.09330X0.00033*%
%ADD1032R,0.11600X0.00034*%
%ADD1033R,0.11500X0.00034*%
%ADD1034R,0.11360X0.00034*%
%ADD1035R,0.11330X0.00033*%
%ADD1036R,0.11260X0.00034*%
%ADD1037R,0.11230X0.00033*%
%ADD1038R,0.11160X0.00034*%
%ADD1039R,0.11130X0.00033*%
%ADD1040R,0.11060X0.00034*%
%ADD1041R,0.11030X0.00033*%
%ADD1042R,0.10960X0.00034*%
%ADD1043R,0.10900X0.00033*%
%ADD1044R,0.10830X0.00034*%
%ADD1045R,0.10800X0.00033*%
%ADD1046R,0.10730X0.00034*%
%ADD1047R,0.10660X0.00033*%
%ADD1048R,0.10600X0.00034*%
%ADD1049R,0.10560X0.00033*%
%ADD1050R,0.10460X0.00034*%
%ADD1051R,0.10500X0.00034*%
%ADD1052R,0.10430X0.00033*%
%ADD1053R,0.10360X0.00034*%
%ADD1054R,0.10300X0.00033*%
%ADD1055R,0.10330X0.00033*%
%ADD1056R,0.10230X0.00034*%
%ADD1057R,0.10200X0.00033*%
%ADD1058R,0.10100X0.00034*%
%ADD1059R,0.10060X0.00033*%
%ADD1060R,0.09960X0.00034*%
%ADD1061R,0.09930X0.00033*%
%ADD1062R,0.09830X0.00034*%
%ADD1063R,0.09800X0.00033*%
%ADD1064R,0.09700X0.00034*%
%ADD1065R,0.09630X0.00033*%
%ADD1066R,0.09660X0.00033*%
%ADD1067R,0.09530X0.00034*%
%ADD1068R,0.09560X0.00034*%
%ADD1069R,0.09500X0.00033*%
%ADD1070R,0.09400X0.00034*%
%ADD1071R,0.09430X0.00034*%
%ADD1072R,0.09360X0.00033*%
%ADD1073R,0.09260X0.00034*%
%ADD1074R,0.09100X0.00034*%
%ADD1075R,0.09060X0.00033*%
%ADD1076R,0.08930X0.00034*%
%ADD1077R,0.08900X0.00033*%
%ADD1078R,0.08760X0.00034*%
%ADD1079R,0.08730X0.00033*%
%ADD1080R,0.08600X0.00034*%
%ADD1081R,0.08560X0.00033*%
%ADD1082R,0.08430X0.00034*%
%ADD1083R,0.08360X0.00033*%
%ADD1084R,0.08400X0.00033*%
%ADD1085R,0.08260X0.00034*%
%ADD1086R,0.08200X0.00033*%
%ADD1087R,0.08060X0.00034*%
%ADD1088R,0.08000X0.00033*%
%ADD1089R,0.08030X0.00033*%
%ADD1090R,0.07900X0.00034*%
%ADD1091R,0.07800X0.00033*%
%ADD1092R,0.07660X0.00034*%
%ADD1093R,0.07700X0.00034*%
%ADD1094R,0.07630X0.00033*%
%ADD1095R,0.07460X0.00034*%
%ADD1096R,0.07400X0.00033*%
%ADD1097R,0.07230X0.00034*%
%ADD1098R,0.07260X0.00034*%
%ADD1099R,0.07160X0.00033*%
%ADD1100R,0.07030X0.00034*%
%ADD1101R,0.06960X0.00033*%
%ADD1102R,0.06760X0.00034*%
%ADD1103R,0.06530X0.00034*%
%ADD1104R,0.06160X0.00033*%
%ADD1105R,0.04030X0.00034*%
%ADD1106R,0.04060X0.00034*%
%ADD1107R,0.03860X0.00033*%
%ADD1108R,0.03160X0.00033*%
%ADD1109R,0.00940X0.00033*%
%ADD1110C,0.00500*%
%ADD1111R,0.01800X0.03000*%
%ADD1112C,0.00100*%
%ADD1113C,0.00400*%
%ADD1114R,0.03000X0.01800*%
%ADD1115C,0.00039*%
D10*
X0001000Y0001921D02*
X0197850Y0001921D01*
X0197850Y0092472D01*
X0001000Y0092472D01*
X0001000Y0001921D01*
D11*
X0013362Y0022295D03*
X0007712Y0033145D03*
D12*
X0013337Y0022345D03*
D13*
X0013342Y0022395D03*
D14*
X0013322Y0022445D03*
X0019212Y0026895D03*
X0007422Y0026995D03*
X0007372Y0027045D03*
X0006212Y0031845D03*
X0007372Y0034395D03*
X0007422Y0034445D03*
X0007472Y0034545D03*
X0019212Y0034595D03*
X0019262Y0034495D03*
D15*
X0018542Y0035345D03*
X0013292Y0034245D03*
X0008092Y0035295D03*
X0008142Y0026145D03*
X0013342Y0022495D03*
X0018542Y0026095D03*
D16*
X0013337Y0022545D03*
X0008637Y0025695D03*
X0013337Y0038945D03*
D17*
X0017637Y0036045D03*
X0013287Y0033995D03*
X0008987Y0035995D03*
X0009037Y0025445D03*
X0013337Y0022595D03*
X0017587Y0025395D03*
D18*
X0013287Y0027695D03*
X0013337Y0022645D03*
X0013337Y0038845D03*
D19*
X0013337Y0022695D03*
D20*
X0013342Y0022745D03*
D21*
X0013342Y0022795D03*
X0013342Y0038695D03*
D22*
X0013342Y0038645D03*
X0013292Y0033295D03*
X0013342Y0022845D03*
D23*
X0013342Y0022895D03*
X0013292Y0033095D03*
D24*
X0013292Y0032945D03*
X0013342Y0038545D03*
X0013342Y0022945D03*
D25*
X0013337Y0022995D03*
X0013337Y0038495D03*
D26*
X0013312Y0023045D03*
D27*
X0013337Y0023095D03*
D28*
X0013337Y0023145D03*
D29*
X0013337Y0023195D03*
D30*
X0013342Y0023245D03*
X0013292Y0030595D03*
X0013292Y0030645D03*
X0013292Y0030695D03*
X0013292Y0030745D03*
X0013292Y0030795D03*
X0013292Y0030845D03*
X0013292Y0030895D03*
X0013292Y0030945D03*
X0013292Y0030995D03*
D31*
X0013342Y0023295D03*
D32*
X0013342Y0023345D03*
X0013342Y0038145D03*
D33*
X0013342Y0038095D03*
X0013342Y0023395D03*
D34*
X0013347Y0023445D03*
X0013347Y0038045D03*
D35*
X0013347Y0023495D03*
D36*
X0013347Y0023545D03*
X0013347Y0037945D03*
D37*
X0013342Y0037895D03*
X0013342Y0023595D03*
D38*
X0013342Y0023645D03*
X0013342Y0037845D03*
D39*
X0013342Y0037795D03*
X0013342Y0023695D03*
D40*
X0013342Y0023745D03*
X0013342Y0037745D03*
D41*
X0013342Y0037695D03*
X0013342Y0023795D03*
D42*
X0013342Y0023845D03*
X0013342Y0037645D03*
D43*
X0013342Y0023895D03*
D44*
X0013342Y0023945D03*
X0013342Y0037545D03*
D45*
X0013342Y0037495D03*
X0013342Y0023995D03*
D46*
X0013342Y0024045D03*
D47*
X0013342Y0024095D03*
X0013342Y0037395D03*
D48*
X0013342Y0037345D03*
X0013342Y0024145D03*
D49*
X0013337Y0024195D03*
X0013337Y0037295D03*
D50*
X0013337Y0024245D03*
D51*
X0013337Y0024295D03*
X0013337Y0037195D03*
D52*
X0013337Y0037145D03*
X0013337Y0024345D03*
D53*
X0013337Y0024395D03*
X0013337Y0037095D03*
D54*
X0013337Y0037045D03*
X0013337Y0024445D03*
D55*
X0013337Y0024495D03*
X0013337Y0036995D03*
D56*
X0013337Y0036945D03*
X0013337Y0024545D03*
D57*
X0013337Y0024595D03*
X0013337Y0036895D03*
D58*
X0013317Y0024645D03*
D59*
X0013342Y0024695D03*
X0013342Y0036745D03*
D60*
X0013342Y0036695D03*
X0013342Y0024745D03*
D61*
X0013342Y0024795D03*
X0013342Y0036645D03*
D62*
X0013342Y0036595D03*
X0013342Y0024845D03*
D63*
X0013317Y0024895D03*
D64*
X0013337Y0024945D03*
X0013337Y0036545D03*
D65*
X0013337Y0036495D03*
X0013337Y0024995D03*
D66*
X0013337Y0025045D03*
X0013337Y0036445D03*
D67*
X0016762Y0025095D03*
D68*
X0009937Y0025095D03*
D69*
X0016987Y0025145D03*
X0009637Y0036295D03*
D70*
X0013262Y0033645D03*
X0009712Y0025145D03*
D71*
X0017167Y0025195D03*
X0017217Y0036245D03*
D72*
X0013337Y0038795D03*
X0009487Y0036245D03*
X0020347Y0030545D03*
X0009537Y0025195D03*
D73*
X0017292Y0025245D03*
X0017342Y0036195D03*
D74*
X0009362Y0036195D03*
X0020372Y0030495D03*
X0009412Y0025245D03*
D75*
X0017417Y0025295D03*
D76*
X0009317Y0025295D03*
D77*
X0013262Y0027645D03*
X0017512Y0025345D03*
X0013262Y0033945D03*
D78*
X0006242Y0031145D03*
X0009192Y0025345D03*
D79*
X0009117Y0025395D03*
X0009067Y0036045D03*
D80*
X0020362Y0030245D03*
X0017662Y0025445D03*
D81*
X0017767Y0025495D03*
X0017817Y0035945D03*
D82*
X0013337Y0038895D03*
X0008887Y0035945D03*
X0013287Y0027545D03*
X0008937Y0025495D03*
D83*
X0017842Y0025545D03*
X0006242Y0031345D03*
D84*
X0013262Y0034045D03*
X0020362Y0030195D03*
X0008862Y0025545D03*
D85*
X0017917Y0025595D03*
X0020367Y0030145D03*
X0017867Y0035895D03*
D86*
X0008837Y0035895D03*
X0008787Y0025595D03*
D87*
X0017992Y0025645D03*
X0006242Y0031445D03*
X0018092Y0035745D03*
D88*
X0008612Y0035745D03*
X0020362Y0030095D03*
X0008712Y0025645D03*
D89*
X0018067Y0025695D03*
X0018117Y0025745D03*
D90*
X0013262Y0027445D03*
X0008562Y0025745D03*
X0008512Y0025795D03*
X0020362Y0030045D03*
X0013262Y0034145D03*
X0008562Y0035695D03*
D91*
X0008412Y0035595D03*
X0008362Y0035545D03*
X0018222Y0035645D03*
X0020362Y0029995D03*
X0018172Y0025795D03*
X0008462Y0025845D03*
D92*
X0008387Y0025895D03*
X0008337Y0025945D03*
X0013287Y0027395D03*
X0018247Y0025845D03*
X0006237Y0031545D03*
X0013287Y0034195D03*
D93*
X0018367Y0025945D03*
X0018317Y0025895D03*
D94*
X0018417Y0025995D03*
X0018467Y0026045D03*
X0020367Y0029895D03*
X0018517Y0035395D03*
X0008167Y0035345D03*
X0008167Y0026095D03*
D95*
X0008237Y0026045D03*
X0008287Y0025995D03*
X0006237Y0031595D03*
D96*
X0018612Y0035295D03*
X0018562Y0026145D03*
D97*
X0018637Y0026195D03*
X0018687Y0026245D03*
X0018687Y0035195D03*
X0018637Y0035245D03*
D98*
X0008067Y0035245D03*
X0008017Y0035195D03*
X0020367Y0029845D03*
X0008067Y0026195D03*
X0008017Y0026245D03*
D99*
X0018712Y0026295D03*
X0018762Y0026345D03*
X0006212Y0031695D03*
X0018762Y0035145D03*
D100*
X0013342Y0038995D03*
X0007942Y0035145D03*
X0007942Y0026345D03*
X0007992Y0026295D03*
D101*
X0018812Y0026395D03*
X0018862Y0026445D03*
X0018912Y0026495D03*
X0006212Y0031745D03*
X0018912Y0034945D03*
D102*
X0007792Y0034945D03*
X0007792Y0026495D03*
X0007842Y0026445D03*
X0007892Y0026395D03*
D103*
X0007697Y0026645D03*
X0007647Y0026695D03*
X0018937Y0026545D03*
X0018987Y0026595D03*
X0018987Y0034895D03*
X0007697Y0034845D03*
X0007647Y0034795D03*
D104*
X0007717Y0034895D03*
X0020367Y0029745D03*
X0007767Y0026545D03*
X0007717Y0026595D03*
D105*
X0007622Y0026745D03*
X0007572Y0026795D03*
X0013272Y0027245D03*
X0019012Y0026645D03*
X0006212Y0031795D03*
X0007572Y0034695D03*
X0007622Y0034745D03*
X0013272Y0034345D03*
X0019012Y0034845D03*
D106*
X0019067Y0034795D03*
X0019067Y0026695D03*
D107*
X0019092Y0026745D03*
X0019142Y0026795D03*
X0011592Y0032845D03*
X0019092Y0034745D03*
X0019142Y0034695D03*
D108*
X0019167Y0034645D03*
X0020367Y0029645D03*
X0019167Y0026845D03*
D109*
X0021162Y0027945D03*
X0018862Y0028695D03*
X0013272Y0026845D03*
X0007862Y0032695D03*
X0005622Y0033745D03*
X0005572Y0033695D03*
D110*
X0007447Y0034495D03*
X0007497Y0034595D03*
X0007547Y0034645D03*
X0007447Y0026945D03*
X0007497Y0026895D03*
X0007547Y0026845D03*
D111*
X0013262Y0026895D03*
X0019012Y0028095D03*
D112*
X0019237Y0026945D03*
X0007347Y0027095D03*
X0007297Y0027195D03*
X0007247Y0034195D03*
X0007297Y0034295D03*
X0007347Y0034345D03*
X0013347Y0039045D03*
X0019237Y0034545D03*
D113*
X0013262Y0034645D03*
X0016312Y0030195D03*
X0016312Y0030145D03*
X0016262Y0029995D03*
X0016262Y0029945D03*
X0016262Y0029895D03*
X0016212Y0029795D03*
X0016212Y0029745D03*
X0016162Y0029645D03*
X0016162Y0029595D03*
X0016112Y0029495D03*
X0016062Y0029395D03*
X0013262Y0026945D03*
D114*
X0019292Y0026995D03*
X0019342Y0034395D03*
X0019292Y0034445D03*
D115*
X0013262Y0034595D03*
X0013262Y0026995D03*
D116*
X0019317Y0027045D03*
X0019367Y0027095D03*
X0019367Y0027145D03*
X0019417Y0027195D03*
X0019467Y0034195D03*
X0019417Y0034295D03*
X0019367Y0034345D03*
D117*
X0013292Y0027045D03*
D118*
X0013267Y0027095D03*
X0013267Y0034495D03*
D119*
X0019762Y0033645D03*
X0019812Y0033595D03*
X0019812Y0033545D03*
X0019862Y0033445D03*
X0020362Y0029495D03*
X0013272Y0027145D03*
X0006872Y0027995D03*
X0006822Y0028045D03*
X0006822Y0028095D03*
X0006772Y0028195D03*
X0006212Y0031995D03*
D120*
X0006212Y0031895D03*
X0007222Y0034145D03*
X0007272Y0034245D03*
X0013272Y0034395D03*
X0015022Y0032845D03*
X0007172Y0027395D03*
X0007222Y0027295D03*
X0007272Y0027245D03*
X0007322Y0027145D03*
X0013272Y0027195D03*
D121*
X0019442Y0027245D03*
X0019442Y0034245D03*
D122*
X0019487Y0034145D03*
X0007147Y0027445D03*
X0007097Y0027495D03*
X0007197Y0027345D03*
X0019487Y0027295D03*
D123*
X0013267Y0027295D03*
X0020367Y0029795D03*
X0013267Y0034295D03*
X0007917Y0035095D03*
X0007867Y0035045D03*
X0007817Y0034995D03*
D124*
X0006212Y0031945D03*
X0006972Y0027745D03*
X0007022Y0027695D03*
X0007022Y0027645D03*
X0007072Y0027595D03*
X0007072Y0027545D03*
X0019512Y0027345D03*
D125*
X0013262Y0027345D03*
D126*
X0019542Y0027395D03*
X0019542Y0034095D03*
D127*
X0020867Y0027495D03*
X0020817Y0027445D03*
D128*
X0019162Y0027445D03*
X0015612Y0032545D03*
X0010862Y0032395D03*
X0006212Y0032345D03*
D129*
X0006212Y0032395D03*
X0010762Y0032295D03*
X0019162Y0027495D03*
D130*
X0013262Y0027495D03*
X0008762Y0035845D03*
D131*
X0020892Y0027545D03*
D132*
X0019142Y0027545D03*
X0015242Y0028295D03*
X0010692Y0032195D03*
X0007542Y0033895D03*
D133*
X0020917Y0027595D03*
X0020967Y0027645D03*
D134*
X0019142Y0027595D03*
X0015392Y0028445D03*
X0015342Y0028395D03*
X0010592Y0031995D03*
X0010592Y0032045D03*
X0010542Y0031945D03*
X0007542Y0033845D03*
D135*
X0013262Y0027595D03*
X0020362Y0030295D03*
D136*
X0019142Y0027645D03*
D137*
X0020992Y0027695D03*
D138*
X0019117Y0027695D03*
X0007567Y0033745D03*
D139*
X0018892Y0028595D03*
X0020392Y0028245D03*
X0021042Y0027745D03*
D140*
X0019117Y0027745D03*
D141*
X0013287Y0027745D03*
X0013287Y0033845D03*
D142*
X0006217Y0033295D03*
X0018867Y0028645D03*
X0021067Y0027795D03*
D143*
X0019117Y0027795D03*
D144*
X0013262Y0027795D03*
D145*
X0006947Y0027795D03*
X0006947Y0027845D03*
X0006897Y0027895D03*
X0006897Y0027945D03*
X0019737Y0033695D03*
D146*
X0021137Y0027895D03*
X0021087Y0027845D03*
X0005647Y0033795D03*
D147*
X0016287Y0030095D03*
X0016287Y0030045D03*
X0016237Y0029845D03*
X0016187Y0029695D03*
X0019087Y0027845D03*
D148*
X0013262Y0027845D03*
X0013262Y0033745D03*
D149*
X0011387Y0027895D03*
X0019087Y0027895D03*
D150*
X0014517Y0027895D03*
D151*
X0019062Y0027945D03*
D152*
X0014667Y0027945D03*
D153*
X0011237Y0027945D03*
X0019037Y0027995D03*
X0020387Y0028695D03*
D154*
X0021187Y0027995D03*
X0021237Y0028045D03*
X0018837Y0028745D03*
X0005547Y0033645D03*
X0005497Y0033595D03*
D155*
X0006212Y0032245D03*
X0011062Y0032595D03*
X0014762Y0027995D03*
D156*
X0011117Y0027995D03*
X0007667Y0033295D03*
D157*
X0006197Y0033445D03*
X0005347Y0033345D03*
X0005297Y0033295D03*
X0018787Y0028895D03*
X0020387Y0028045D03*
X0021387Y0028295D03*
X0021437Y0028345D03*
D158*
X0020387Y0028645D03*
X0019037Y0028045D03*
D159*
X0014867Y0028045D03*
D160*
X0011017Y0028045D03*
D161*
X0021267Y0028095D03*
X0006217Y0033395D03*
D162*
X0005447Y0033495D03*
X0005397Y0033445D03*
X0007887Y0032595D03*
X0020387Y0028095D03*
D163*
X0014967Y0028095D03*
D164*
X0010942Y0028095D03*
D165*
X0021292Y0028145D03*
X0021342Y0028195D03*
D166*
X0020392Y0028145D03*
D167*
X0019017Y0028145D03*
X0006217Y0032945D03*
D168*
X0007542Y0033945D03*
X0015042Y0028145D03*
D169*
X0010867Y0028145D03*
D170*
X0006797Y0028145D03*
X0019887Y0033345D03*
X0019887Y0033395D03*
X0019837Y0033495D03*
X0013297Y0034445D03*
D171*
X0020392Y0028195D03*
D172*
X0018992Y0028195D03*
D173*
X0015167Y0028245D03*
X0015117Y0028195D03*
X0010717Y0032245D03*
D174*
X0010787Y0028195D03*
X0020387Y0028495D03*
D175*
X0021362Y0028245D03*
X0018812Y0028845D03*
X0007912Y0032545D03*
X0005372Y0033395D03*
D176*
X0018992Y0028245D03*
D177*
X0010737Y0028245D03*
X0010687Y0028295D03*
X0007737Y0033045D03*
D178*
X0006642Y0028545D03*
X0006692Y0028395D03*
X0006692Y0028345D03*
X0006742Y0028295D03*
X0006742Y0028245D03*
X0019942Y0033245D03*
X0019942Y0033295D03*
X0019992Y0033145D03*
D179*
X0020392Y0028295D03*
D180*
X0018972Y0028295D03*
X0007712Y0033095D03*
D181*
X0020392Y0028345D03*
D182*
X0018972Y0028345D03*
X0010612Y0028345D03*
X0010562Y0028395D03*
D183*
X0010617Y0032095D03*
X0010667Y0032145D03*
X0015317Y0028345D03*
D184*
X0018762Y0028945D03*
X0021462Y0028395D03*
X0007912Y0032495D03*
X0005272Y0033245D03*
D185*
X0007737Y0032995D03*
X0010487Y0028445D03*
X0018947Y0028395D03*
X0020397Y0028395D03*
D186*
X0020392Y0028445D03*
D187*
X0018922Y0028445D03*
X0010462Y0028495D03*
X0010412Y0028545D03*
X0010362Y0028595D03*
X0007762Y0032945D03*
D188*
X0006617Y0028645D03*
X0006617Y0028595D03*
X0006667Y0028495D03*
X0006667Y0028445D03*
X0020017Y0033045D03*
X0020017Y0033095D03*
X0019967Y0033195D03*
D189*
X0018922Y0028495D03*
X0010312Y0028645D03*
X0010262Y0028695D03*
X0010212Y0028745D03*
X0007762Y0032895D03*
D190*
X0007567Y0033795D03*
X0010517Y0031895D03*
X0010517Y0031845D03*
X0015467Y0028495D03*
X0015517Y0028545D03*
D191*
X0020387Y0028545D03*
X0007687Y0033195D03*
D192*
X0007787Y0032845D03*
X0005847Y0034095D03*
X0010087Y0028945D03*
X0010137Y0028895D03*
X0010137Y0028845D03*
X0010187Y0028795D03*
X0018897Y0028545D03*
D193*
X0020387Y0028595D03*
X0013287Y0034695D03*
D194*
X0010447Y0031745D03*
X0010447Y0031695D03*
X0015547Y0028595D03*
X0015597Y0028645D03*
X0015647Y0028695D03*
X0013337Y0039145D03*
D195*
X0011362Y0032795D03*
X0006212Y0032045D03*
X0006512Y0028945D03*
X0006562Y0028795D03*
X0006562Y0028745D03*
X0006562Y0028695D03*
X0020362Y0029445D03*
X0020072Y0032945D03*
D196*
X0020392Y0028745D03*
X0007642Y0033445D03*
D197*
X0010422Y0031645D03*
X0010422Y0031595D03*
X0016062Y0031945D03*
X0016112Y0031845D03*
X0015672Y0028745D03*
D198*
X0020392Y0028795D03*
D199*
X0018812Y0028795D03*
X0007862Y0032645D03*
X0005472Y0033545D03*
D200*
X0006217Y0032545D03*
X0010367Y0031545D03*
X0010367Y0031495D03*
X0010367Y0031445D03*
X0015717Y0028795D03*
D201*
X0020392Y0028845D03*
X0007592Y0033595D03*
D202*
X0010342Y0031395D03*
X0010342Y0031345D03*
X0015742Y0028845D03*
X0015792Y0028895D03*
X0015842Y0028995D03*
X0020392Y0028945D03*
D203*
X0020097Y0032795D03*
X0020097Y0032845D03*
X0020097Y0032895D03*
X0006537Y0028895D03*
X0006537Y0028845D03*
X0006487Y0028995D03*
X0006487Y0029045D03*
X0006487Y0029095D03*
X0006437Y0029195D03*
X0006437Y0029245D03*
X0006437Y0029295D03*
X0006387Y0029445D03*
X0006387Y0029495D03*
D204*
X0015987Y0029245D03*
X0016037Y0029295D03*
X0016037Y0029345D03*
X0016087Y0029445D03*
X0016137Y0029545D03*
X0016287Y0031345D03*
X0016287Y0031395D03*
X0016237Y0031495D03*
X0016237Y0031545D03*
X0020387Y0028895D03*
D205*
X0015967Y0029195D03*
X0015917Y0029095D03*
X0015867Y0029045D03*
X0015817Y0028945D03*
X0006217Y0032595D03*
D206*
X0015992Y0032095D03*
X0016042Y0032045D03*
X0016042Y0031995D03*
X0020392Y0028995D03*
D207*
X0010062Y0028995D03*
X0010012Y0029045D03*
X0009962Y0029145D03*
X0007812Y0032795D03*
X0005822Y0034045D03*
D208*
X0015892Y0032245D03*
X0020392Y0029045D03*
D209*
X0020392Y0029095D03*
D210*
X0009987Y0029095D03*
X0009937Y0029195D03*
X0009887Y0029245D03*
X0009887Y0029295D03*
X0009837Y0029345D03*
X0009837Y0029395D03*
X0009787Y0029495D03*
X0009737Y0029645D03*
X0005747Y0033945D03*
X0005797Y0033995D03*
D211*
X0010787Y0032345D03*
X0020397Y0029145D03*
D212*
X0015942Y0029145D03*
D213*
X0020362Y0029395D03*
X0020312Y0031995D03*
X0020262Y0032195D03*
X0020262Y0032245D03*
X0020262Y0032295D03*
X0015262Y0032795D03*
X0011262Y0032745D03*
X0006212Y0032095D03*
X0006262Y0030745D03*
X0006262Y0030695D03*
X0006262Y0030645D03*
X0006262Y0030595D03*
X0006312Y0030095D03*
X0006312Y0030045D03*
X0006312Y0029995D03*
X0006312Y0029945D03*
X0006312Y0029895D03*
X0006312Y0029845D03*
X0006362Y0029745D03*
X0006362Y0029695D03*
X0006362Y0029645D03*
X0006362Y0029595D03*
X0006362Y0029545D03*
X0006412Y0029395D03*
X0006412Y0029345D03*
X0006462Y0029145D03*
D214*
X0010887Y0032445D03*
X0010937Y0032495D03*
X0020397Y0029195D03*
D215*
X0020367Y0029245D03*
D216*
X0020362Y0029295D03*
X0006212Y0032195D03*
D217*
X0006212Y0032145D03*
X0020412Y0031295D03*
X0020412Y0031245D03*
X0020412Y0031195D03*
X0020412Y0031145D03*
X0020412Y0031095D03*
X0020412Y0031045D03*
X0020412Y0030995D03*
X0020412Y0030945D03*
X0020412Y0030895D03*
X0020412Y0030845D03*
X0020362Y0029345D03*
D218*
X0009812Y0029445D03*
X0009762Y0029545D03*
X0009762Y0029595D03*
X0007812Y0032745D03*
X0005722Y0033895D03*
X0005672Y0033845D03*
D219*
X0019567Y0033995D03*
X0019567Y0034045D03*
X0019617Y0033945D03*
X0019667Y0033845D03*
X0020367Y0029545D03*
D220*
X0020367Y0029595D03*
D221*
X0020367Y0029695D03*
D222*
X0020437Y0030795D03*
X0020387Y0031345D03*
X0020387Y0031395D03*
X0020387Y0031445D03*
X0020387Y0031495D03*
X0020387Y0031545D03*
X0020387Y0031595D03*
X0020387Y0031645D03*
X0020337Y0031695D03*
X0020337Y0031745D03*
X0020337Y0031795D03*
X0020337Y0031845D03*
X0020337Y0031895D03*
X0020337Y0031945D03*
X0020287Y0032045D03*
X0020287Y0032095D03*
X0020287Y0032145D03*
X0006287Y0030545D03*
X0006287Y0030495D03*
X0006287Y0030445D03*
X0006287Y0030395D03*
X0006287Y0030345D03*
X0006287Y0030295D03*
X0006287Y0030245D03*
X0006287Y0030195D03*
X0006287Y0030145D03*
X0006337Y0029795D03*
D223*
X0020367Y0029945D03*
D224*
X0013292Y0030245D03*
X0013292Y0030295D03*
X0013292Y0031295D03*
X0013342Y0038245D03*
D225*
X0009167Y0036095D03*
X0020367Y0030345D03*
D226*
X0013267Y0030345D03*
X0013267Y0030395D03*
X0013267Y0030445D03*
X0013267Y0030495D03*
X0013267Y0030545D03*
X0013267Y0031045D03*
X0013267Y0031095D03*
X0013267Y0031145D03*
X0013267Y0031195D03*
X0013267Y0031245D03*
D227*
X0013262Y0033895D03*
X0020362Y0030395D03*
D228*
X0020362Y0030445D03*
D229*
X0020342Y0030595D03*
D230*
X0020342Y0030645D03*
D231*
X0020342Y0030695D03*
X0006242Y0030795D03*
X0013342Y0038745D03*
D232*
X0020337Y0030745D03*
D233*
X0006242Y0030845D03*
D234*
X0006242Y0030895D03*
D235*
X0006242Y0030945D03*
D236*
X0006242Y0030995D03*
D237*
X0006242Y0031045D03*
D238*
X0006242Y0031095D03*
D239*
X0006242Y0031195D03*
D240*
X0006242Y0031245D03*
D241*
X0006242Y0031295D03*
D242*
X0006242Y0031395D03*
X0017942Y0035845D03*
D243*
X0016162Y0031745D03*
X0016212Y0031645D03*
X0016212Y0031595D03*
X0016262Y0031445D03*
D244*
X0006242Y0031495D03*
D245*
X0006237Y0031645D03*
D246*
X0016087Y0031895D03*
X0016137Y0031795D03*
X0016187Y0031695D03*
D247*
X0010472Y0031795D03*
D248*
X0006217Y0032495D03*
X0015917Y0032195D03*
X0015967Y0032145D03*
D249*
X0015867Y0032295D03*
X0015817Y0032345D03*
X0006217Y0032445D03*
D250*
X0006212Y0032295D03*
X0013262Y0034545D03*
X0015512Y0032645D03*
X0015562Y0032595D03*
D251*
X0020167Y0032595D03*
X0020167Y0032645D03*
X0020217Y0032495D03*
X0020217Y0032445D03*
X0020217Y0032395D03*
X0020217Y0032345D03*
D252*
X0015767Y0032395D03*
X0015717Y0032445D03*
D253*
X0015692Y0032495D03*
D254*
X0020142Y0032695D03*
X0020142Y0032745D03*
X0020192Y0032545D03*
D255*
X0010987Y0032545D03*
X0007497Y0034045D03*
D256*
X0007497Y0034095D03*
X0011087Y0032645D03*
X0015437Y0032695D03*
D257*
X0006217Y0032645D03*
D258*
X0011187Y0032695D03*
X0015337Y0032745D03*
D259*
X0006217Y0032695D03*
D260*
X0006217Y0032745D03*
D261*
X0006217Y0032795D03*
D262*
X0006217Y0032845D03*
D263*
X0013267Y0032895D03*
D264*
X0006217Y0032895D03*
D265*
X0020042Y0032995D03*
D266*
X0013267Y0032995D03*
D267*
X0006217Y0032995D03*
D268*
X0013267Y0033045D03*
D269*
X0006217Y0033045D03*
D270*
X0006217Y0033095D03*
D271*
X0013267Y0033145D03*
D272*
X0006217Y0033145D03*
D273*
X0013267Y0033195D03*
D274*
X0006217Y0033195D03*
D275*
X0013267Y0033245D03*
D276*
X0007692Y0033245D03*
D277*
X0006217Y0033245D03*
D278*
X0013292Y0033345D03*
D279*
X0007667Y0033345D03*
D280*
X0006217Y0033345D03*
D281*
X0013292Y0033395D03*
D282*
X0007642Y0033395D03*
D283*
X0013267Y0033445D03*
D284*
X0013267Y0033495D03*
D285*
X0007617Y0033495D03*
D286*
X0013267Y0033545D03*
D287*
X0007617Y0033545D03*
D288*
X0013262Y0033595D03*
D289*
X0007592Y0033645D03*
D290*
X0013262Y0033695D03*
X0017062Y0036295D03*
D291*
X0007592Y0033695D03*
D292*
X0019717Y0033745D03*
D293*
X0019692Y0033795D03*
X0019642Y0033895D03*
D294*
X0013287Y0033795D03*
D295*
X0007542Y0033995D03*
D296*
X0008687Y0035795D03*
X0013287Y0034095D03*
D297*
X0018787Y0035095D03*
X0018837Y0035045D03*
X0018887Y0034995D03*
D298*
X0018442Y0035445D03*
X0018392Y0035495D03*
X0008192Y0035395D03*
D299*
X0008262Y0035445D03*
X0008312Y0035495D03*
D300*
X0018292Y0035595D03*
X0018342Y0035545D03*
D301*
X0018147Y0035695D03*
X0008487Y0035645D03*
D302*
X0018017Y0035795D03*
D303*
X0017717Y0035995D03*
D304*
X0017537Y0036095D03*
D305*
X0017442Y0036145D03*
D306*
X0009267Y0036145D03*
D307*
X0009812Y0036345D03*
X0016862Y0036345D03*
D308*
X0013337Y0036395D03*
D309*
X0013342Y0036795D03*
D310*
X0013342Y0036845D03*
D311*
X0013337Y0037245D03*
D312*
X0013342Y0037445D03*
D313*
X0013342Y0037595D03*
D314*
X0013347Y0037995D03*
D315*
X0013342Y0038195D03*
D316*
X0013337Y0038295D03*
D317*
X0013337Y0038345D03*
D318*
X0013337Y0038395D03*
D319*
X0013337Y0038445D03*
D320*
X0013342Y0038595D03*
D321*
X0013342Y0039095D03*
D322*
X0013342Y0039195D03*
D323*
X0015475Y0041224D03*
X0015475Y0041257D03*
X0015475Y0041324D03*
X0015475Y0041357D03*
X0015475Y0041424D03*
X0015475Y0041457D03*
X0015475Y0041524D03*
X0015475Y0041557D03*
X0015475Y0041624D03*
X0015475Y0041657D03*
X0015475Y0041724D03*
X0015475Y0041757D03*
X0015475Y0041824D03*
X0015475Y0041857D03*
X0015475Y0041924D03*
X0015475Y0041957D03*
X0015475Y0042024D03*
X0015475Y0042057D03*
X0015475Y0042124D03*
X0015475Y0042157D03*
X0015475Y0042224D03*
X0015475Y0042257D03*
X0015475Y0042324D03*
X0015475Y0042357D03*
X0015475Y0042424D03*
X0015475Y0042457D03*
X0015475Y0042524D03*
X0015475Y0042557D03*
X0015475Y0042624D03*
X0015475Y0042657D03*
X0015475Y0042724D03*
X0015475Y0042757D03*
X0015475Y0042824D03*
X0015475Y0042857D03*
X0015475Y0042924D03*
X0015475Y0042957D03*
X0015475Y0043024D03*
X0015475Y0043057D03*
X0015475Y0043124D03*
X0015475Y0043157D03*
X0015475Y0043224D03*
X0015475Y0043257D03*
X0015475Y0043324D03*
X0015475Y0043357D03*
X0015475Y0043424D03*
X0015475Y0043457D03*
X0015475Y0043524D03*
X0015475Y0043557D03*
X0015475Y0043624D03*
X0015475Y0043657D03*
X0015475Y0043724D03*
X0015475Y0043757D03*
X0015475Y0043824D03*
X0015475Y0043857D03*
X0015475Y0043924D03*
X0015475Y0043957D03*
X0015475Y0044024D03*
X0015475Y0044057D03*
X0015475Y0044124D03*
X0015475Y0044157D03*
X0015475Y0044224D03*
X0015475Y0044257D03*
X0015475Y0044324D03*
X0015475Y0044357D03*
X0015475Y0044424D03*
X0015475Y0044457D03*
X0015475Y0044524D03*
X0015475Y0044557D03*
X0015475Y0044624D03*
X0015475Y0044657D03*
X0015475Y0044724D03*
X0015475Y0044757D03*
X0015475Y0044824D03*
X0015475Y0044857D03*
X0015475Y0044924D03*
X0015475Y0044957D03*
X0015475Y0045024D03*
X0015475Y0045057D03*
X0015475Y0045124D03*
X0015475Y0045157D03*
X0015475Y0045224D03*
X0015475Y0045257D03*
X0015475Y0045324D03*
X0015475Y0045357D03*
X0015475Y0045424D03*
X0015475Y0045457D03*
X0015475Y0045524D03*
X0015475Y0045557D03*
X0015475Y0045624D03*
X0015475Y0045657D03*
X0015475Y0045724D03*
X0015475Y0045757D03*
X0015475Y0045824D03*
X0015475Y0045857D03*
X0015475Y0045924D03*
X0015475Y0045957D03*
X0015475Y0046024D03*
X0015475Y0046057D03*
X0015475Y0046124D03*
X0015475Y0046157D03*
X0015475Y0046224D03*
X0015475Y0046257D03*
X0015475Y0046324D03*
X0015475Y0046357D03*
X0015475Y0046424D03*
X0015475Y0046457D03*
X0015475Y0046524D03*
X0015475Y0046557D03*
X0015475Y0046624D03*
X0015475Y0046657D03*
X0015475Y0046724D03*
X0015475Y0046757D03*
D324*
X0015475Y0046791D03*
X0015475Y0046691D03*
X0015475Y0046591D03*
X0015475Y0046491D03*
X0015475Y0046391D03*
X0015475Y0046291D03*
X0015475Y0046191D03*
X0015475Y0046091D03*
X0015475Y0045991D03*
X0015475Y0045891D03*
X0015475Y0045791D03*
X0015475Y0045691D03*
X0015475Y0045591D03*
X0015475Y0045491D03*
X0015475Y0045391D03*
X0015475Y0045291D03*
X0015475Y0045191D03*
X0015475Y0045091D03*
X0015475Y0044991D03*
X0015475Y0044891D03*
X0015475Y0044791D03*
X0015475Y0044691D03*
X0015475Y0044591D03*
X0015475Y0044491D03*
X0015475Y0044391D03*
X0015475Y0044291D03*
X0015475Y0044191D03*
X0015475Y0044091D03*
X0015475Y0043991D03*
X0015475Y0043891D03*
X0015475Y0043791D03*
X0015475Y0043691D03*
X0015475Y0043591D03*
X0015475Y0043491D03*
X0015475Y0043391D03*
X0015475Y0043291D03*
X0015475Y0043191D03*
X0015475Y0043091D03*
X0015475Y0042991D03*
X0015475Y0042891D03*
X0015475Y0042791D03*
X0015475Y0042691D03*
X0015475Y0042591D03*
X0015475Y0042491D03*
X0015475Y0042391D03*
X0015475Y0042291D03*
X0015475Y0042191D03*
X0015475Y0042091D03*
X0015475Y0041991D03*
X0015475Y0041891D03*
X0015475Y0041791D03*
X0015475Y0041691D03*
X0015475Y0041591D03*
X0015475Y0041491D03*
X0015475Y0041391D03*
X0015475Y0041291D03*
D325*
X0027280Y0050791D03*
X0003980Y0078991D03*
D326*
X0003795Y0050791D03*
D327*
X0027275Y0050824D03*
X0003975Y0078957D03*
D328*
X0003795Y0050824D03*
D329*
X0003795Y0050857D03*
X0010695Y0052557D03*
X0027295Y0050857D03*
D330*
X0027295Y0050891D03*
X0003795Y0050891D03*
D331*
X0010695Y0051357D03*
X0027295Y0050924D03*
D332*
X0003775Y0050924D03*
X0008345Y0076024D03*
X0003945Y0078857D03*
X0153997Y0041339D03*
X0178297Y0041339D03*
D333*
X0027295Y0050957D03*
X0003765Y0050957D03*
D334*
X0027295Y0050991D03*
D335*
X0003760Y0050991D03*
D336*
X0027295Y0051024D03*
D337*
X0003760Y0051024D03*
D338*
X0027310Y0051057D03*
D339*
X0003765Y0051057D03*
D340*
X0003760Y0051091D03*
X0027330Y0051091D03*
X0003930Y0078691D03*
D341*
X0008360Y0072124D03*
X0008430Y0071657D03*
X0008430Y0071624D03*
X0008560Y0070657D03*
X0008560Y0070624D03*
X0008760Y0069157D03*
X0008760Y0069124D03*
X0008960Y0067657D03*
X0008960Y0067624D03*
X0009030Y0067157D03*
X0009030Y0067124D03*
X0009160Y0066157D03*
X0009160Y0066124D03*
X0009230Y0065657D03*
X0009230Y0065624D03*
X0009360Y0064657D03*
X0009360Y0064624D03*
X0009430Y0064157D03*
X0009430Y0064124D03*
X0009560Y0063157D03*
X0009560Y0063124D03*
X0009630Y0062657D03*
X0009630Y0062624D03*
X0009760Y0061657D03*
X0009760Y0061624D03*
X0009830Y0061157D03*
X0009830Y0061124D03*
X0009960Y0060157D03*
X0009960Y0060124D03*
X0010360Y0057157D03*
X0010360Y0057124D03*
X0010430Y0056657D03*
X0010430Y0056624D03*
X0017760Y0053124D03*
X0017760Y0053057D03*
X0017760Y0053024D03*
X0017760Y0052957D03*
X0017760Y0052924D03*
X0017760Y0052857D03*
X0017760Y0052824D03*
X0017760Y0052757D03*
X0017760Y0052724D03*
X0017760Y0052657D03*
X0017760Y0052624D03*
X0017760Y0052557D03*
X0017760Y0052524D03*
X0017760Y0052457D03*
X0017760Y0052424D03*
X0017760Y0052357D03*
X0017760Y0052324D03*
X0017760Y0052257D03*
X0017760Y0052224D03*
X0017760Y0052157D03*
X0020630Y0054224D03*
X0020630Y0054257D03*
X0020660Y0054457D03*
X0020660Y0054524D03*
X0020730Y0055024D03*
X0020760Y0055257D03*
X0020830Y0055824D03*
X0020860Y0056057D03*
X0020930Y0056557D03*
X0020960Y0056824D03*
X0020960Y0056857D03*
X0021030Y0057357D03*
X0021330Y0059724D03*
X0021360Y0059957D03*
X0021430Y0060524D03*
X0021460Y0060757D03*
X0021530Y0061257D03*
X0021530Y0061324D03*
X0021560Y0061524D03*
X0021560Y0061557D03*
X0021630Y0062057D03*
X0021660Y0062324D03*
X0021660Y0062357D03*
X0021730Y0062824D03*
X0021730Y0062857D03*
X0021760Y0063124D03*
X0021830Y0063624D03*
X0021830Y0063657D03*
X0021860Y0063924D03*
X0021930Y0064424D03*
X0021930Y0064457D03*
X0021960Y0064657D03*
X0021960Y0064724D03*
X0022030Y0065224D03*
X0022060Y0065457D03*
X0022130Y0066024D03*
X0022160Y0066224D03*
X0022160Y0066257D03*
X0022230Y0066757D03*
X0022260Y0067024D03*
X0022260Y0067057D03*
X0022330Y0067557D03*
X0022360Y0067824D03*
X0022360Y0067857D03*
X0022430Y0068324D03*
X0022430Y0068357D03*
X0022460Y0068624D03*
X0022530Y0069124D03*
X0022530Y0069157D03*
X0022560Y0069424D03*
X0022630Y0069924D03*
X0022660Y0070157D03*
X0022730Y0070724D03*
X0022760Y0070957D03*
X0022830Y0071457D03*
X0022830Y0071524D03*
X0022860Y0071724D03*
X0022860Y0071757D03*
X0019960Y0075557D03*
X0019960Y0075624D03*
X0019960Y0075657D03*
X0019960Y0075724D03*
X0019960Y0075757D03*
X0019960Y0075824D03*
X0019960Y0075857D03*
X0019960Y0075924D03*
X0019960Y0075957D03*
X0019960Y0076024D03*
X0019960Y0076057D03*
X0019960Y0076124D03*
X0006160Y0069457D03*
X0006160Y0069424D03*
X0006160Y0069357D03*
X0006160Y0069324D03*
X0006160Y0069257D03*
X0006160Y0069224D03*
X0006160Y0069157D03*
X0006160Y0069124D03*
X0006160Y0069057D03*
X0003760Y0051124D03*
X0027330Y0051124D03*
D342*
X0027325Y0051157D03*
X0012425Y0053057D03*
X0012395Y0052957D03*
X0012395Y0052924D03*
X0012395Y0054124D03*
X0012365Y0054157D03*
X0012325Y0054257D03*
X0011265Y0053657D03*
X0010125Y0053357D03*
X0010095Y0053424D03*
X0008965Y0053024D03*
X0008995Y0052924D03*
X0009025Y0052857D03*
X0008925Y0053124D03*
X0008965Y0054057D03*
X0008995Y0054124D03*
X0008995Y0054157D03*
X0009025Y0054224D03*
X0009225Y0075024D03*
X0009195Y0075057D03*
X0154247Y0041372D03*
X0178547Y0041372D03*
X0178547Y0021372D03*
D343*
X0021745Y0062924D03*
X0021745Y0062957D03*
X0021745Y0063024D03*
X0021745Y0063057D03*
X0021845Y0063724D03*
X0021845Y0063757D03*
X0021845Y0063824D03*
X0021845Y0063857D03*
X0021945Y0064524D03*
X0021945Y0064557D03*
X0021945Y0064624D03*
X0022045Y0065257D03*
X0022045Y0065324D03*
X0022045Y0065357D03*
X0022045Y0065424D03*
X0022145Y0066057D03*
X0022145Y0066124D03*
X0022145Y0066157D03*
X0022245Y0066824D03*
X0022245Y0066857D03*
X0022245Y0066924D03*
X0022245Y0066957D03*
X0022345Y0067624D03*
X0022345Y0067657D03*
X0022345Y0067724D03*
X0022345Y0067757D03*
X0022445Y0068424D03*
X0022445Y0068457D03*
X0022445Y0068524D03*
X0022445Y0068557D03*
X0022545Y0069224D03*
X0022545Y0069257D03*
X0022545Y0069324D03*
X0022545Y0069357D03*
X0022645Y0069957D03*
X0022645Y0070024D03*
X0022645Y0070057D03*
X0022645Y0070124D03*
X0022745Y0070757D03*
X0022745Y0070824D03*
X0022745Y0070857D03*
X0022745Y0070924D03*
X0022845Y0071557D03*
X0022845Y0071624D03*
X0022845Y0071657D03*
X0014045Y0076024D03*
X0014045Y0076057D03*
X0014045Y0076124D03*
X0014045Y0076157D03*
X0014045Y0076224D03*
X0014045Y0076257D03*
X0009245Y0074957D03*
X0009245Y0074924D03*
X0008445Y0071557D03*
X0008445Y0071524D03*
X0008445Y0071457D03*
X0008445Y0071424D03*
X0008545Y0070857D03*
X0008545Y0070824D03*
X0008545Y0070757D03*
X0008545Y0070724D03*
X0008745Y0069357D03*
X0008745Y0069324D03*
X0008745Y0069257D03*
X0008745Y0069224D03*
X0008945Y0067857D03*
X0008945Y0067824D03*
X0008945Y0067757D03*
X0008945Y0067724D03*
X0009045Y0067057D03*
X0009045Y0067024D03*
X0009045Y0066957D03*
X0009045Y0066924D03*
X0009145Y0066357D03*
X0009145Y0066324D03*
X0009145Y0066257D03*
X0009145Y0066224D03*
X0009245Y0065557D03*
X0009245Y0065524D03*
X0009245Y0065457D03*
X0009245Y0065424D03*
X0009345Y0064857D03*
X0009345Y0064824D03*
X0009345Y0064757D03*
X0009345Y0064724D03*
X0009445Y0064057D03*
X0009445Y0064024D03*
X0009445Y0063957D03*
X0009445Y0063924D03*
X0009545Y0063357D03*
X0009545Y0063324D03*
X0009545Y0063257D03*
X0009545Y0063224D03*
X0009645Y0062557D03*
X0009645Y0062524D03*
X0009645Y0062457D03*
X0009645Y0062424D03*
X0009745Y0061857D03*
X0009745Y0061824D03*
X0009745Y0061757D03*
X0009745Y0061724D03*
X0009845Y0061057D03*
X0009845Y0061024D03*
X0009845Y0060957D03*
X0009845Y0060924D03*
X0009945Y0060357D03*
X0009945Y0060324D03*
X0009945Y0060257D03*
X0009945Y0060224D03*
X0010345Y0057357D03*
X0010345Y0057324D03*
X0010345Y0057257D03*
X0010345Y0057224D03*
X0010445Y0056557D03*
X0010445Y0056524D03*
X0010445Y0056457D03*
X0010445Y0056424D03*
X0010545Y0055857D03*
X0010545Y0055824D03*
X0010545Y0055757D03*
X0010545Y0055724D03*
X0008945Y0054024D03*
X0008945Y0053957D03*
X0008945Y0053057D03*
X0012445Y0053124D03*
X0012445Y0053924D03*
X0012445Y0053957D03*
X0019345Y0053124D03*
X0019345Y0053057D03*
X0019345Y0053024D03*
X0019345Y0052957D03*
X0019345Y0052924D03*
X0019345Y0052857D03*
X0019345Y0052824D03*
X0019345Y0052757D03*
X0019345Y0052724D03*
X0019345Y0052657D03*
X0019345Y0052624D03*
X0019345Y0052557D03*
X0019345Y0052524D03*
X0019345Y0052457D03*
X0019345Y0052424D03*
X0019345Y0052357D03*
X0019345Y0052324D03*
X0019345Y0052257D03*
X0019345Y0052224D03*
X0019345Y0052157D03*
X0019345Y0052124D03*
X0020645Y0054324D03*
X0020645Y0054357D03*
X0020645Y0054424D03*
X0020745Y0055057D03*
X0020745Y0055124D03*
X0020745Y0055157D03*
X0020745Y0055224D03*
X0020845Y0055857D03*
X0020845Y0055924D03*
X0020845Y0055957D03*
X0020845Y0056024D03*
X0020945Y0056624D03*
X0020945Y0056657D03*
X0020945Y0056724D03*
X0020945Y0056757D03*
X0021045Y0057424D03*
X0021045Y0057457D03*
X0021345Y0059757D03*
X0021345Y0059824D03*
X0021345Y0059857D03*
X0021345Y0059924D03*
X0021445Y0060557D03*
X0021445Y0060624D03*
X0021445Y0060657D03*
X0021445Y0060724D03*
X0021545Y0061357D03*
X0021545Y0061424D03*
X0021545Y0061457D03*
X0021645Y0062124D03*
X0021645Y0062157D03*
X0021645Y0062224D03*
X0021645Y0062257D03*
X0003745Y0051157D03*
D344*
X0003730Y0051191D03*
X0012260Y0052691D03*
X0012260Y0054391D03*
X0027330Y0051191D03*
D345*
X0027330Y0051224D03*
X0012160Y0052524D03*
X0012160Y0054557D03*
X0009230Y0054557D03*
X0003730Y0051224D03*
D346*
X0003725Y0051257D03*
X0009295Y0052424D03*
X0009365Y0052357D03*
X0012065Y0054657D03*
X0027325Y0051257D03*
X0009025Y0075257D03*
D347*
X0003730Y0051291D03*
X0027360Y0051291D03*
D348*
X0027360Y0051324D03*
X0027330Y0051357D03*
X0027160Y0051557D03*
X0026930Y0051824D03*
X0026760Y0052024D03*
X0026730Y0052057D03*
X0026660Y0052124D03*
X0026460Y0052357D03*
X0026330Y0052524D03*
X0026230Y0052624D03*
X0026060Y0052824D03*
X0026030Y0052857D03*
X0025860Y0053057D03*
X0025630Y0053324D03*
X0025460Y0053524D03*
X0025430Y0053557D03*
X0025260Y0053757D03*
X0025160Y0053857D03*
X0025030Y0054024D03*
X0024830Y0054257D03*
X0024760Y0054324D03*
X0024730Y0054357D03*
X0024560Y0054557D03*
X0024330Y0054824D03*
X0024160Y0055024D03*
X0024130Y0055057D03*
X0023960Y0055257D03*
X0023860Y0055357D03*
X0023730Y0055524D03*
X0023530Y0055757D03*
X0023460Y0055824D03*
X0023260Y0056057D03*
X0023030Y0056324D03*
X0022860Y0056524D03*
X0022830Y0056557D03*
X0022660Y0056757D03*
X0022430Y0057024D03*
X0022230Y0057257D03*
X0022160Y0057324D03*
X0021130Y0058524D03*
X0020260Y0059524D03*
X0020230Y0059557D03*
X0020060Y0059757D03*
X0019830Y0060024D03*
X0019660Y0060224D03*
X0019630Y0060257D03*
X0019460Y0060457D03*
X0019360Y0060557D03*
X0019230Y0060724D03*
X0019030Y0060957D03*
X0018960Y0061024D03*
X0018930Y0061057D03*
X0018760Y0061257D03*
X0018530Y0061524D03*
X0018360Y0061724D03*
X0018330Y0061757D03*
X0018160Y0061957D03*
X0018060Y0062057D03*
X0017930Y0062224D03*
X0017730Y0062457D03*
X0017660Y0062524D03*
X0017460Y0062757D03*
X0017230Y0063024D03*
X0017060Y0063224D03*
X0017030Y0063257D03*
X0016860Y0063457D03*
X0016630Y0063724D03*
X0016460Y0063924D03*
X0016430Y0063957D03*
X0016360Y0064024D03*
X0016160Y0064257D03*
X0014960Y0064224D03*
X0014730Y0063957D03*
X0014530Y0063724D03*
X0014460Y0063657D03*
X0014260Y0063424D03*
X0014030Y0063157D03*
X0013860Y0062957D03*
X0013830Y0062924D03*
X0013760Y0062857D03*
X0013560Y0062624D03*
X0013330Y0062357D03*
X0013160Y0062157D03*
X0013130Y0062124D03*
X0012960Y0061924D03*
X0012860Y0061824D03*
X0012730Y0061657D03*
X0012630Y0061557D03*
X0012460Y0061357D03*
X0012430Y0061324D03*
X0012260Y0061124D03*
X0012030Y0060857D03*
X0011830Y0060624D03*
X0011760Y0060557D03*
X0011730Y0060524D03*
X0011560Y0060324D03*
X0011330Y0060057D03*
X0011130Y0059824D03*
X0011060Y0059757D03*
X0010160Y0058724D03*
X0009230Y0057657D03*
X0009060Y0057457D03*
X0009030Y0057424D03*
X0008860Y0057224D03*
X0008630Y0056957D03*
X0008430Y0056724D03*
X0008360Y0056657D03*
X0008330Y0056624D03*
X0008160Y0056424D03*
X0007930Y0056157D03*
X0007730Y0055924D03*
X0007660Y0055857D03*
X0007460Y0055624D03*
X0007230Y0055357D03*
X0007060Y0055157D03*
X0007030Y0055124D03*
X0006960Y0055057D03*
X0006760Y0054824D03*
X0006530Y0054557D03*
X0006360Y0054357D03*
X0006330Y0054324D03*
X0006160Y0054124D03*
X0006060Y0054024D03*
X0005930Y0053857D03*
X0005830Y0053757D03*
X0005660Y0053557D03*
X0005630Y0053524D03*
X0005460Y0053324D03*
X0005230Y0053057D03*
X0005030Y0052824D03*
X0004960Y0052757D03*
X0004930Y0052724D03*
X0004760Y0052524D03*
X0004530Y0052257D03*
X0004330Y0052024D03*
X0004260Y0051957D03*
X0004060Y0051724D03*
X0003830Y0051457D03*
X0003730Y0051324D03*
X0014960Y0065657D03*
X0014860Y0065757D03*
X0014730Y0065924D03*
X0014630Y0066024D03*
X0014530Y0066157D03*
X0014460Y0066224D03*
X0014430Y0066257D03*
X0014260Y0066457D03*
X0014030Y0066724D03*
X0013860Y0066924D03*
X0013830Y0066957D03*
X0013660Y0067157D03*
X0013560Y0067257D03*
X0013430Y0067424D03*
X0012130Y0068924D03*
X0011930Y0069157D03*
X0011860Y0069224D03*
X0011660Y0069457D03*
X0011530Y0069624D03*
X0011430Y0069724D03*
X0011260Y0069924D03*
X0011230Y0069957D03*
X0011060Y0070157D03*
X0010830Y0070424D03*
X0010660Y0070624D03*
X0010630Y0070657D03*
X0010560Y0070724D03*
X0010360Y0070957D03*
X0010230Y0071124D03*
X0010130Y0071224D03*
X0009960Y0071424D03*
X0009930Y0071457D03*
X0009760Y0071657D03*
X0009530Y0071924D03*
X0009360Y0072124D03*
X0007430Y0074357D03*
X0007360Y0074424D03*
X0007330Y0074457D03*
X0006560Y0075357D03*
X0006330Y0075624D03*
X0006160Y0075824D03*
X0006130Y0075857D03*
X0006060Y0075924D03*
X0005860Y0076157D03*
X0005730Y0076324D03*
X0005630Y0076424D03*
X0005460Y0076624D03*
X0005430Y0076657D03*
X0005260Y0076857D03*
X0005030Y0077124D03*
X0004860Y0077324D03*
X0004830Y0077357D03*
X0004760Y0077424D03*
X0004660Y0077557D03*
X0004560Y0077657D03*
X0004430Y0077824D03*
X0004330Y0077924D03*
X0004230Y0078057D03*
X0004160Y0078124D03*
X0004130Y0078157D03*
X0003960Y0078357D03*
X0019930Y0069924D03*
X0019960Y0069957D03*
X0020130Y0070157D03*
X0020360Y0070424D03*
X0020630Y0070724D03*
X0020660Y0070757D03*
X0020830Y0070957D03*
X0021060Y0071224D03*
X0021260Y0071457D03*
X0021330Y0071524D03*
X0021530Y0071757D03*
X0021760Y0072024D03*
X0021930Y0072224D03*
X0023530Y0074057D03*
X0023760Y0074324D03*
X0024030Y0074624D03*
X0024060Y0074657D03*
X0024230Y0074857D03*
X0024460Y0075124D03*
X0024660Y0075357D03*
X0024730Y0075424D03*
X0024930Y0075657D03*
X0025160Y0075924D03*
X0025330Y0076124D03*
X0025360Y0076157D03*
X0025430Y0076224D03*
X0025630Y0076457D03*
X0025860Y0076724D03*
X0026030Y0076924D03*
X0026060Y0076957D03*
X0026330Y0077257D03*
X0026460Y0077424D03*
X0019760Y0069724D03*
X0019660Y0069624D03*
X0019530Y0069457D03*
X0019430Y0069357D03*
X0019260Y0069157D03*
X0019230Y0069124D03*
X0019060Y0068924D03*
X0017660Y0067324D03*
X0017430Y0067057D03*
X0017260Y0066857D03*
X0017230Y0066824D03*
X0017160Y0066757D03*
X0016960Y0066524D03*
X0016730Y0066257D03*
X0016560Y0066057D03*
X0016530Y0066024D03*
X0016360Y0065824D03*
X0016260Y0065724D03*
D349*
X0016445Y0065924D03*
X0016645Y0066157D03*
X0017045Y0066624D03*
X0017145Y0066724D03*
X0017345Y0066957D03*
X0017745Y0067424D03*
X0017845Y0067524D03*
X0019145Y0069024D03*
X0019345Y0069257D03*
X0019845Y0069824D03*
X0020045Y0070057D03*
X0020445Y0070524D03*
X0020545Y0070624D03*
X0020745Y0070857D03*
X0021145Y0071324D03*
X0021245Y0071424D03*
X0021345Y0071557D03*
X0021445Y0071657D03*
X0021845Y0072124D03*
X0023845Y0074424D03*
X0023945Y0074524D03*
X0024145Y0074757D03*
X0024545Y0075224D03*
X0024645Y0075324D03*
X0024745Y0075457D03*
X0024845Y0075557D03*
X0025245Y0076024D03*
X0025445Y0076257D03*
X0025545Y0076357D03*
X0025945Y0076824D03*
X0026145Y0077057D03*
X0026245Y0077157D03*
X0011145Y0070057D03*
X0011345Y0069824D03*
X0011745Y0069357D03*
X0011845Y0069257D03*
X0011945Y0069124D03*
X0012045Y0069024D03*
X0010745Y0070524D03*
X0010545Y0070757D03*
X0010445Y0070857D03*
X0010045Y0071324D03*
X0009845Y0071557D03*
X0009445Y0072024D03*
X0007545Y0074224D03*
X0007445Y0074324D03*
X0007245Y0074557D03*
X0006245Y0075724D03*
X0006045Y0075957D03*
X0005945Y0076057D03*
X0005545Y0076524D03*
X0005345Y0076757D03*
X0004945Y0077224D03*
X0004745Y0077457D03*
X0004245Y0078024D03*
X0004045Y0078257D03*
X0013345Y0067524D03*
X0013745Y0067057D03*
X0013945Y0066824D03*
X0014345Y0066357D03*
X0014545Y0066124D03*
X0014645Y0063857D03*
X0014545Y0063757D03*
X0014445Y0063624D03*
X0014345Y0063524D03*
X0013945Y0063057D03*
X0013745Y0062824D03*
X0013645Y0062724D03*
X0013245Y0062257D03*
X0013045Y0062024D03*
X0012545Y0061457D03*
X0012345Y0061224D03*
X0011945Y0060757D03*
X0011845Y0060657D03*
X0011645Y0060424D03*
X0011245Y0059957D03*
X0011145Y0059857D03*
X0011045Y0059724D03*
X0010245Y0058824D03*
X0009145Y0057557D03*
X0008945Y0057324D03*
X0008545Y0056857D03*
X0008445Y0056757D03*
X0008245Y0056524D03*
X0007845Y0056057D03*
X0007745Y0055957D03*
X0007645Y0055824D03*
X0007545Y0055724D03*
X0007145Y0055257D03*
X0006945Y0055024D03*
X0006845Y0054924D03*
X0006445Y0054457D03*
X0006245Y0054224D03*
X0005745Y0053657D03*
X0005545Y0053424D03*
X0005145Y0052957D03*
X0005045Y0052857D03*
X0004845Y0052624D03*
X0004445Y0052157D03*
X0004345Y0052057D03*
X0004245Y0051924D03*
X0004145Y0051824D03*
X0003745Y0051357D03*
X0009545Y0054857D03*
X0011845Y0052224D03*
X0022045Y0057457D03*
X0022145Y0057357D03*
X0022245Y0057224D03*
X0022345Y0057124D03*
X0022745Y0056657D03*
X0022945Y0056424D03*
X0023345Y0055957D03*
X0023445Y0055857D03*
X0023545Y0055724D03*
X0023645Y0055624D03*
X0024045Y0055157D03*
X0024245Y0054924D03*
X0024645Y0054457D03*
X0024845Y0054224D03*
X0024945Y0054124D03*
X0025345Y0053657D03*
X0025545Y0053424D03*
X0025945Y0052957D03*
X0026145Y0052724D03*
X0026545Y0052257D03*
X0026645Y0052157D03*
X0026845Y0051924D03*
X0027245Y0051457D03*
X0021345Y0058257D03*
X0021045Y0058624D03*
X0020145Y0059657D03*
X0019745Y0060124D03*
X0019545Y0060357D03*
X0019145Y0060824D03*
X0019045Y0060924D03*
X0018845Y0061157D03*
X0018445Y0061624D03*
X0018245Y0061857D03*
X0017845Y0062324D03*
X0017745Y0062424D03*
X0017645Y0062557D03*
X0017545Y0062657D03*
X0017145Y0063124D03*
X0016945Y0063357D03*
X0016545Y0063824D03*
X0016345Y0064057D03*
X0016245Y0064157D03*
D350*
X0016310Y0064091D03*
X0016480Y0063891D03*
X0016910Y0063391D03*
X0017180Y0063091D03*
X0017610Y0062591D03*
X0017780Y0062391D03*
X0018210Y0061891D03*
X0018480Y0061591D03*
X0018810Y0061191D03*
X0018910Y0061091D03*
X0019080Y0060891D03*
X0019510Y0060391D03*
X0019680Y0060191D03*
X0019780Y0060091D03*
X0020110Y0059691D03*
X0020210Y0059591D03*
X0020980Y0058691D03*
X0021080Y0058591D03*
X0022110Y0057391D03*
X0022280Y0057191D03*
X0022710Y0056691D03*
X0022980Y0056391D03*
X0023410Y0055891D03*
X0023580Y0055691D03*
X0024010Y0055191D03*
X0024180Y0054991D03*
X0024280Y0054891D03*
X0024610Y0054491D03*
X0024710Y0054391D03*
X0024880Y0054191D03*
X0025310Y0053691D03*
X0025480Y0053491D03*
X0025580Y0053391D03*
X0025910Y0052991D03*
X0026010Y0052891D03*
X0026180Y0052691D03*
X0026610Y0052191D03*
X0026780Y0051991D03*
X0026880Y0051891D03*
X0027210Y0051491D03*
X0027310Y0051391D03*
X0010310Y0058891D03*
X0009980Y0058491D03*
X0009180Y0057591D03*
X0009010Y0057391D03*
X0008910Y0057291D03*
X0008480Y0056791D03*
X0008310Y0056591D03*
X0008210Y0056491D03*
X0007880Y0056091D03*
X0007780Y0055991D03*
X0007610Y0055791D03*
X0007510Y0055691D03*
X0007180Y0055291D03*
X0007080Y0055191D03*
X0006910Y0054991D03*
X0006480Y0054491D03*
X0006380Y0054391D03*
X0006210Y0054191D03*
X0005780Y0053691D03*
X0005610Y0053491D03*
X0005510Y0053391D03*
X0005080Y0052891D03*
X0004910Y0052691D03*
X0004810Y0052591D03*
X0004480Y0052191D03*
X0004380Y0052091D03*
X0004210Y0051891D03*
X0004110Y0051791D03*
X0003780Y0051391D03*
X0011010Y0059691D03*
X0011180Y0059891D03*
X0011280Y0059991D03*
X0011610Y0060391D03*
X0011710Y0060491D03*
X0011880Y0060691D03*
X0012310Y0061191D03*
X0012410Y0061291D03*
X0012580Y0061491D03*
X0013010Y0061991D03*
X0013180Y0062191D03*
X0013280Y0062291D03*
X0013710Y0062791D03*
X0013880Y0062991D03*
X0013980Y0063091D03*
X0014310Y0063491D03*
X0014410Y0063591D03*
X0014580Y0063791D03*
X0014680Y0063891D03*
X0014580Y0066091D03*
X0014410Y0066291D03*
X0014310Y0066391D03*
X0013980Y0066791D03*
X0013880Y0066891D03*
X0013710Y0067091D03*
X0016680Y0066191D03*
X0016580Y0066091D03*
X0016410Y0065891D03*
X0017110Y0066691D03*
X0017280Y0066891D03*
X0017380Y0066991D03*
X0017710Y0067391D03*
X0017810Y0067491D03*
X0019110Y0068991D03*
X0019210Y0069091D03*
X0019380Y0069291D03*
X0019810Y0069791D03*
X0019980Y0069991D03*
X0020080Y0070091D03*
X0020510Y0070591D03*
X0020680Y0070791D03*
X0020780Y0070891D03*
X0021110Y0071291D03*
X0021210Y0071391D03*
X0021380Y0071591D03*
X0021480Y0071691D03*
X0021810Y0072091D03*
X0021910Y0072191D03*
X0023910Y0074491D03*
X0024080Y0074691D03*
X0024180Y0074791D03*
X0024510Y0075191D03*
X0024610Y0075291D03*
X0024780Y0075491D03*
X0024880Y0075591D03*
X0025210Y0075991D03*
X0025310Y0076091D03*
X0025480Y0076291D03*
X0025910Y0076791D03*
X0026010Y0076891D03*
X0026180Y0077091D03*
X0011110Y0070091D03*
X0011380Y0069791D03*
X0011810Y0069291D03*
X0011980Y0069091D03*
X0010680Y0070591D03*
X0010510Y0070791D03*
X0010080Y0071291D03*
X0009910Y0071491D03*
X0009810Y0071591D03*
X0009480Y0071991D03*
X0009380Y0072091D03*
X0007480Y0074291D03*
X0007310Y0074491D03*
X0006180Y0075791D03*
X0006010Y0075991D03*
X0005580Y0076491D03*
X0005310Y0076791D03*
X0004880Y0077291D03*
X0004710Y0077491D03*
X0004280Y0077991D03*
X0004110Y0078191D03*
X0004010Y0078291D03*
D351*
X0018560Y0052091D03*
X0018560Y0051991D03*
X0018560Y0051891D03*
X0018560Y0051791D03*
X0018560Y0051691D03*
X0018560Y0051591D03*
X0018560Y0051491D03*
X0018560Y0051391D03*
D352*
X0012395Y0052991D03*
X0012365Y0052891D03*
X0012425Y0053991D03*
X0012395Y0054091D03*
X0012365Y0054191D03*
X0011265Y0053691D03*
X0011265Y0053391D03*
X0010125Y0053691D03*
X0008965Y0052991D03*
X0008995Y0052891D03*
X0010695Y0051391D03*
X0009225Y0074991D03*
D353*
X0007510Y0074257D03*
X0007280Y0074524D03*
X0007210Y0074624D03*
X0006580Y0075324D03*
X0006480Y0075457D03*
X0006410Y0075524D03*
X0006380Y0075557D03*
X0006210Y0075757D03*
X0005980Y0076024D03*
X0005810Y0076224D03*
X0005780Y0076257D03*
X0005610Y0076457D03*
X0005510Y0076557D03*
X0005380Y0076724D03*
X0005180Y0076957D03*
X0005110Y0077024D03*
X0005080Y0077057D03*
X0004910Y0077257D03*
X0004680Y0077524D03*
X0004510Y0077724D03*
X0004480Y0077757D03*
X0004310Y0077957D03*
X0004080Y0078224D03*
X0009410Y0072057D03*
X0009610Y0071824D03*
X0009680Y0071757D03*
X0009880Y0071524D03*
X0010010Y0071357D03*
X0010110Y0071257D03*
X0010280Y0071057D03*
X0010310Y0071024D03*
X0010480Y0070824D03*
X0010710Y0070557D03*
X0010880Y0070357D03*
X0010910Y0070324D03*
X0010980Y0070257D03*
X0011180Y0070024D03*
X0011310Y0069857D03*
X0011410Y0069757D03*
X0011580Y0069557D03*
X0011610Y0069524D03*
X0011780Y0069324D03*
X0012010Y0069057D03*
X0013480Y0067357D03*
X0013510Y0067324D03*
X0013680Y0067124D03*
X0013780Y0067024D03*
X0013910Y0066857D03*
X0014110Y0066624D03*
X0014180Y0066557D03*
X0014210Y0066524D03*
X0014380Y0066324D03*
X0014610Y0066057D03*
X0014780Y0065857D03*
X0014810Y0065824D03*
X0014980Y0065624D03*
X0015580Y0064957D03*
X0015580Y0064924D03*
X0016180Y0065624D03*
X0016210Y0065657D03*
X0016380Y0065857D03*
X0016480Y0065957D03*
X0016610Y0066124D03*
X0016710Y0066224D03*
X0016810Y0066357D03*
X0016880Y0066424D03*
X0016910Y0066457D03*
X0017080Y0066657D03*
X0017310Y0066924D03*
X0017510Y0067157D03*
X0017580Y0067224D03*
X0017610Y0067257D03*
X0017780Y0067457D03*
X0019080Y0068957D03*
X0019180Y0069057D03*
X0019310Y0069224D03*
X0019410Y0069324D03*
X0019580Y0069524D03*
X0019610Y0069557D03*
X0019780Y0069757D03*
X0019880Y0069857D03*
X0020010Y0070024D03*
X0020110Y0070124D03*
X0020210Y0070257D03*
X0020280Y0070324D03*
X0020310Y0070357D03*
X0020480Y0070557D03*
X0020580Y0070657D03*
X0020710Y0070824D03*
X0020910Y0071057D03*
X0020980Y0071124D03*
X0021010Y0071157D03*
X0021180Y0071357D03*
X0021410Y0071624D03*
X0021580Y0071824D03*
X0021610Y0071857D03*
X0021680Y0071924D03*
X0021710Y0071957D03*
X0021880Y0072157D03*
X0023510Y0074024D03*
X0023610Y0074157D03*
X0023680Y0074224D03*
X0023710Y0074257D03*
X0023880Y0074457D03*
X0023980Y0074557D03*
X0024110Y0074724D03*
X0024310Y0074957D03*
X0024380Y0075024D03*
X0024410Y0075057D03*
X0024580Y0075257D03*
X0024810Y0075524D03*
X0024980Y0075724D03*
X0025010Y0075757D03*
X0025080Y0075824D03*
X0025110Y0075857D03*
X0025280Y0076057D03*
X0025510Y0076324D03*
X0025680Y0076524D03*
X0025710Y0076557D03*
X0025780Y0076624D03*
X0025880Y0076757D03*
X0025980Y0076857D03*
X0026110Y0077024D03*
X0026210Y0077124D03*
X0026380Y0077324D03*
X0026410Y0077357D03*
X0016280Y0064124D03*
X0016510Y0063857D03*
X0016680Y0063657D03*
X0016710Y0063624D03*
X0016780Y0063557D03*
X0016980Y0063324D03*
X0017110Y0063157D03*
X0017210Y0063057D03*
X0017310Y0062924D03*
X0017380Y0062857D03*
X0017410Y0062824D03*
X0017580Y0062624D03*
X0017810Y0062357D03*
X0017980Y0062157D03*
X0018010Y0062124D03*
X0018180Y0061924D03*
X0018280Y0061824D03*
X0018410Y0061657D03*
X0018610Y0061424D03*
X0018680Y0061357D03*
X0018710Y0061324D03*
X0018880Y0061124D03*
X0019110Y0060857D03*
X0019280Y0060657D03*
X0019310Y0060624D03*
X0019480Y0060424D03*
X0019580Y0060324D03*
X0019710Y0060157D03*
X0019910Y0059924D03*
X0019980Y0059857D03*
X0020180Y0059624D03*
X0021010Y0058657D03*
X0021180Y0058457D03*
X0021210Y0058424D03*
X0021280Y0058357D03*
X0022080Y0057424D03*
X0022310Y0057157D03*
X0022480Y0056957D03*
X0022510Y0056924D03*
X0022580Y0056857D03*
X0022680Y0056724D03*
X0022780Y0056624D03*
X0022910Y0056457D03*
X0023010Y0056357D03*
X0023110Y0056224D03*
X0023180Y0056157D03*
X0023210Y0056124D03*
X0023380Y0055924D03*
X0023610Y0055657D03*
X0023780Y0055457D03*
X0023810Y0055424D03*
X0023980Y0055224D03*
X0024080Y0055124D03*
X0024210Y0054957D03*
X0024410Y0054724D03*
X0024480Y0054657D03*
X0024510Y0054624D03*
X0024680Y0054424D03*
X0024910Y0054157D03*
X0025080Y0053957D03*
X0025110Y0053924D03*
X0025280Y0053724D03*
X0025380Y0053624D03*
X0025510Y0053457D03*
X0025680Y0053257D03*
X0025710Y0053224D03*
X0025780Y0053157D03*
X0025980Y0052924D03*
X0026110Y0052757D03*
X0026210Y0052657D03*
X0026380Y0052457D03*
X0026410Y0052424D03*
X0026580Y0052224D03*
X0026810Y0051957D03*
X0026980Y0051757D03*
X0027010Y0051724D03*
X0027080Y0051657D03*
X0027280Y0051424D03*
X0011880Y0054824D03*
X0010680Y0054324D03*
X0007410Y0055557D03*
X0007380Y0055524D03*
X0007310Y0055457D03*
X0007110Y0055224D03*
X0006880Y0054957D03*
X0006710Y0054757D03*
X0006680Y0054724D03*
X0006610Y0054657D03*
X0006510Y0054524D03*
X0006410Y0054424D03*
X0006280Y0054257D03*
X0006180Y0054157D03*
X0006010Y0053957D03*
X0005980Y0053924D03*
X0005810Y0053724D03*
X0005710Y0053624D03*
X0005580Y0053457D03*
X0005480Y0053357D03*
X0005380Y0053224D03*
X0005310Y0053157D03*
X0005280Y0053124D03*
X0005110Y0052924D03*
X0004880Y0052657D03*
X0004680Y0052424D03*
X0004610Y0052357D03*
X0004580Y0052324D03*
X0004410Y0052124D03*
X0004180Y0051857D03*
X0004010Y0051657D03*
X0003980Y0051624D03*
X0003910Y0051557D03*
X0009510Y0052224D03*
X0007580Y0055757D03*
X0007810Y0056024D03*
X0007980Y0056224D03*
X0008010Y0056257D03*
X0008080Y0056324D03*
X0008280Y0056557D03*
X0008510Y0056824D03*
X0008680Y0057024D03*
X0008710Y0057057D03*
X0008780Y0057124D03*
X0008880Y0057257D03*
X0008980Y0057357D03*
X0009110Y0057524D03*
X0009210Y0057624D03*
X0010010Y0058557D03*
X0010080Y0058624D03*
X0010110Y0058657D03*
X0010280Y0058857D03*
X0011210Y0059924D03*
X0011380Y0060124D03*
X0011410Y0060157D03*
X0011480Y0060224D03*
X0011680Y0060457D03*
X0011910Y0060724D03*
X0012080Y0060924D03*
X0012110Y0060957D03*
X0012180Y0061024D03*
X0012280Y0061157D03*
X0012380Y0061257D03*
X0012510Y0061424D03*
X0012610Y0061524D03*
X0012780Y0061724D03*
X0012810Y0061757D03*
X0012980Y0061957D03*
X0013080Y0062057D03*
X0013210Y0062224D03*
X0013310Y0062324D03*
X0013410Y0062457D03*
X0013480Y0062524D03*
X0013510Y0062557D03*
X0013680Y0062757D03*
X0013910Y0063024D03*
X0014110Y0063257D03*
X0014180Y0063324D03*
X0014210Y0063357D03*
X0014380Y0063557D03*
X0014610Y0063824D03*
X0014780Y0064024D03*
X0014810Y0064057D03*
X0014880Y0064124D03*
D354*
X0018560Y0052057D03*
X0018560Y0052024D03*
X0018560Y0051957D03*
X0018560Y0051924D03*
X0018560Y0051857D03*
X0018560Y0051824D03*
X0018560Y0051757D03*
X0018560Y0051724D03*
X0018560Y0051657D03*
X0018560Y0051624D03*
X0018560Y0051557D03*
X0018560Y0051524D03*
X0018560Y0051457D03*
X0018560Y0051424D03*
D355*
X0010675Y0051424D03*
X0010675Y0052724D03*
X0009475Y0052257D03*
D356*
X0011895Y0052257D03*
X0006595Y0054624D03*
X0006795Y0054857D03*
X0007195Y0055324D03*
X0007295Y0055424D03*
X0007495Y0055657D03*
X0007895Y0056124D03*
X0008095Y0056357D03*
X0008195Y0056457D03*
X0008595Y0056924D03*
X0008795Y0057157D03*
X0009295Y0057724D03*
X0009995Y0058524D03*
X0010195Y0058757D03*
X0011295Y0060024D03*
X0011495Y0060257D03*
X0011595Y0060357D03*
X0011995Y0060824D03*
X0012195Y0061057D03*
X0012695Y0061624D03*
X0012895Y0061857D03*
X0013395Y0062424D03*
X0013595Y0062657D03*
X0013995Y0063124D03*
X0014095Y0063224D03*
X0014295Y0063457D03*
X0014695Y0063924D03*
X0014895Y0064157D03*
X0014995Y0064257D03*
X0016195Y0064224D03*
X0016595Y0063757D03*
X0016795Y0063524D03*
X0016895Y0063424D03*
X0017295Y0062957D03*
X0017495Y0062724D03*
X0017895Y0062257D03*
X0018095Y0062024D03*
X0018495Y0061557D03*
X0018595Y0061457D03*
X0018795Y0061224D03*
X0019195Y0060757D03*
X0019395Y0060524D03*
X0019795Y0060057D03*
X0019895Y0059957D03*
X0019995Y0059824D03*
X0020095Y0059724D03*
X0021095Y0058557D03*
X0021295Y0058324D03*
X0022395Y0057057D03*
X0022595Y0056824D03*
X0023095Y0056257D03*
X0023295Y0056024D03*
X0023695Y0055557D03*
X0023895Y0055324D03*
X0024295Y0054857D03*
X0024395Y0054757D03*
X0024595Y0054524D03*
X0024995Y0054057D03*
X0025195Y0053824D03*
X0025595Y0053357D03*
X0025795Y0053124D03*
X0025895Y0053024D03*
X0026295Y0052557D03*
X0026495Y0052324D03*
X0026895Y0051857D03*
X0027095Y0051624D03*
X0027195Y0051524D03*
X0009495Y0054824D03*
X0006095Y0054057D03*
X0005895Y0053824D03*
X0005395Y0053257D03*
X0005195Y0053024D03*
X0004795Y0052557D03*
X0004695Y0052457D03*
X0004495Y0052224D03*
X0004095Y0051757D03*
X0003895Y0051524D03*
X0003795Y0051424D03*
X0014895Y0065724D03*
X0014695Y0065957D03*
X0014295Y0066424D03*
X0014095Y0066657D03*
X0013995Y0066757D03*
X0013595Y0067224D03*
X0013395Y0067457D03*
X0016795Y0066324D03*
X0016995Y0066557D03*
X0017395Y0067024D03*
X0017495Y0067124D03*
X0017695Y0067357D03*
X0016295Y0065757D03*
X0019495Y0069424D03*
X0019695Y0069657D03*
X0020195Y0070224D03*
X0020395Y0070457D03*
X0020795Y0070924D03*
X0020895Y0071024D03*
X0021095Y0071257D03*
X0021495Y0071724D03*
X0021795Y0072057D03*
X0023595Y0074124D03*
X0023795Y0074357D03*
X0024195Y0074824D03*
X0024295Y0074924D03*
X0024495Y0075157D03*
X0024895Y0075624D03*
X0025195Y0075957D03*
X0025595Y0076424D03*
X0025795Y0076657D03*
X0026295Y0077224D03*
X0011095Y0070124D03*
X0010995Y0070224D03*
X0010795Y0070457D03*
X0010395Y0070924D03*
X0010195Y0071157D03*
X0009795Y0071624D03*
X0009695Y0071724D03*
X0009595Y0071857D03*
X0009495Y0071957D03*
X0011495Y0069657D03*
X0011695Y0069424D03*
X0012095Y0068957D03*
X0006495Y0075424D03*
X0006295Y0075657D03*
X0005895Y0076124D03*
X0005695Y0076357D03*
X0005295Y0076824D03*
X0005195Y0076924D03*
X0004995Y0077157D03*
X0004595Y0077624D03*
X0004395Y0077857D03*
X0003995Y0078324D03*
X0003895Y0078424D03*
X0003895Y0078457D03*
D357*
X0011695Y0054924D03*
X0010695Y0054257D03*
X0010695Y0051457D03*
D358*
X0010695Y0051491D03*
X0021495Y0057891D03*
D359*
X0021330Y0058291D03*
X0021160Y0058491D03*
X0022030Y0057491D03*
X0022360Y0057091D03*
X0022460Y0056991D03*
X0022630Y0056791D03*
X0023060Y0056291D03*
X0023230Y0056091D03*
X0023330Y0055991D03*
X0023660Y0055591D03*
X0023930Y0055291D03*
X0024360Y0054791D03*
X0024530Y0054591D03*
X0024960Y0054091D03*
X0025230Y0053791D03*
X0025660Y0053291D03*
X0025830Y0053091D03*
X0026260Y0052591D03*
X0026530Y0052291D03*
X0026960Y0051791D03*
X0027130Y0051591D03*
X0010230Y0058791D03*
X0009260Y0057691D03*
X0008830Y0057191D03*
X0008560Y0056891D03*
X0008130Y0056391D03*
X0007960Y0056191D03*
X0007430Y0055591D03*
X0007260Y0055391D03*
X0006830Y0054891D03*
X0006560Y0054591D03*
X0006130Y0054091D03*
X0005860Y0053791D03*
X0005430Y0053291D03*
X0005160Y0052991D03*
X0004730Y0052491D03*
X0004560Y0052291D03*
X0004030Y0051691D03*
X0003860Y0051491D03*
X0011360Y0060091D03*
X0011530Y0060291D03*
X0011960Y0060791D03*
X0012230Y0061091D03*
X0012660Y0061591D03*
X0012930Y0061891D03*
X0013360Y0062391D03*
X0013630Y0062691D03*
X0014060Y0063191D03*
X0014230Y0063391D03*
X0014760Y0063991D03*
X0014930Y0064191D03*
X0016230Y0064191D03*
X0016560Y0063791D03*
X0016660Y0063691D03*
X0016830Y0063491D03*
X0017260Y0062991D03*
X0017430Y0062791D03*
X0017530Y0062691D03*
X0017860Y0062291D03*
X0017960Y0062191D03*
X0018130Y0061991D03*
X0018560Y0061491D03*
X0018730Y0061291D03*
X0019160Y0060791D03*
X0019430Y0060491D03*
X0019860Y0059991D03*
X0020030Y0059791D03*
X0016330Y0065791D03*
X0016760Y0066291D03*
X0017030Y0066591D03*
X0017460Y0067091D03*
X0017630Y0067291D03*
X0019030Y0068891D03*
X0019460Y0069391D03*
X0019730Y0069691D03*
X0020160Y0070191D03*
X0020430Y0070491D03*
X0020860Y0070991D03*
X0021030Y0071191D03*
X0021560Y0071791D03*
X0021730Y0071991D03*
X0023560Y0074091D03*
X0023830Y0074391D03*
X0024260Y0074891D03*
X0024430Y0075091D03*
X0024960Y0075691D03*
X0025130Y0075891D03*
X0025560Y0076391D03*
X0025830Y0076691D03*
X0026260Y0077191D03*
X0011030Y0070191D03*
X0010860Y0070391D03*
X0010760Y0070491D03*
X0010430Y0070891D03*
X0010160Y0071191D03*
X0009730Y0071691D03*
X0009560Y0071891D03*
X0011460Y0069691D03*
X0011630Y0069491D03*
X0011730Y0069391D03*
X0012060Y0068991D03*
X0012160Y0068891D03*
X0013360Y0067491D03*
X0013630Y0067191D03*
X0014060Y0066691D03*
X0014230Y0066491D03*
X0014660Y0065991D03*
X0014930Y0065691D03*
X0006530Y0075391D03*
X0006360Y0075591D03*
X0006260Y0075691D03*
X0005930Y0076091D03*
X0005830Y0076191D03*
X0005660Y0076391D03*
X0005230Y0076891D03*
X0005060Y0077091D03*
X0004960Y0077191D03*
X0004630Y0077591D03*
X0004360Y0077891D03*
X0003930Y0078391D03*
D360*
X0008345Y0075724D03*
X0008775Y0072457D03*
X0018515Y0068624D03*
X0015575Y0065257D03*
X0015575Y0064624D03*
X0010515Y0059424D03*
X0009775Y0057957D03*
X0010675Y0054024D03*
X0010675Y0051524D03*
X0021545Y0057724D03*
X0022475Y0072524D03*
X0022915Y0073657D03*
D361*
X0022895Y0073724D03*
X0022395Y0072357D03*
X0022395Y0072324D03*
X0008895Y0072257D03*
X0008895Y0072224D03*
X0010595Y0059624D03*
X0021595Y0057557D03*
X0010695Y0053824D03*
X0010695Y0053257D03*
X0010695Y0053224D03*
X0010695Y0051557D03*
D362*
X0010695Y0051591D03*
X0008325Y0073791D03*
X0022865Y0073791D03*
D363*
X0023645Y0074191D03*
X0023745Y0074291D03*
X0024345Y0074991D03*
X0025045Y0075791D03*
X0025645Y0076491D03*
X0025745Y0076591D03*
X0026345Y0077291D03*
X0026445Y0077391D03*
X0021645Y0071891D03*
X0020945Y0071091D03*
X0020345Y0070391D03*
X0020245Y0070291D03*
X0019645Y0069591D03*
X0019545Y0069491D03*
X0017545Y0067191D03*
X0016945Y0066491D03*
X0016845Y0066391D03*
X0016245Y0065691D03*
X0014845Y0065791D03*
X0014745Y0065891D03*
X0014145Y0066591D03*
X0013545Y0067291D03*
X0013445Y0067391D03*
X0011545Y0069591D03*
X0010945Y0070291D03*
X0010345Y0070991D03*
X0010245Y0071091D03*
X0009645Y0071791D03*
X0007245Y0074591D03*
X0006445Y0075491D03*
X0005745Y0076291D03*
X0005145Y0076991D03*
X0004545Y0077691D03*
X0004445Y0077791D03*
X0008345Y0075891D03*
X0014845Y0064091D03*
X0014145Y0063291D03*
X0013545Y0062591D03*
X0013445Y0062491D03*
X0012845Y0061791D03*
X0012745Y0061691D03*
X0012145Y0060991D03*
X0012045Y0060891D03*
X0011445Y0060191D03*
X0010145Y0058691D03*
X0010045Y0058591D03*
X0008745Y0057091D03*
X0008645Y0056991D03*
X0008045Y0056291D03*
X0007345Y0055491D03*
X0006745Y0054791D03*
X0006645Y0054691D03*
X0006045Y0053991D03*
X0005945Y0053891D03*
X0005345Y0053191D03*
X0005245Y0053091D03*
X0004645Y0052391D03*
X0003945Y0051591D03*
X0021245Y0058391D03*
X0022545Y0056891D03*
X0023145Y0056191D03*
X0023745Y0055491D03*
X0023845Y0055391D03*
X0024445Y0054691D03*
X0025045Y0053991D03*
X0025145Y0053891D03*
X0025745Y0053191D03*
X0026345Y0052491D03*
X0026445Y0052391D03*
X0027045Y0051691D03*
X0019945Y0059891D03*
X0019345Y0060591D03*
X0019245Y0060691D03*
X0018645Y0061391D03*
X0018045Y0062091D03*
X0017345Y0062891D03*
X0016745Y0063591D03*
D364*
X0020595Y0074757D03*
X0010695Y0051624D03*
D365*
X0010680Y0051657D03*
X0015580Y0064324D03*
X0015580Y0065557D03*
X0010010Y0074624D03*
D366*
X0010895Y0074891D03*
X0010695Y0051691D03*
D367*
X0010680Y0051724D03*
X0011010Y0074924D03*
D368*
X0010695Y0051757D03*
D369*
X0010680Y0051791D03*
D370*
X0010695Y0051824D03*
X0010695Y0055224D03*
X0011395Y0075024D03*
D371*
X0010695Y0051857D03*
D372*
X0010695Y0051891D03*
D373*
X0010695Y0051924D03*
X0008995Y0073557D03*
D374*
X0010410Y0074857D03*
X0010680Y0051957D03*
D375*
X0010675Y0051991D03*
D376*
X0006295Y0054291D03*
X0005695Y0053591D03*
X0004995Y0052791D03*
X0004295Y0051991D03*
X0006995Y0055091D03*
X0007695Y0055891D03*
X0008395Y0056691D03*
X0009095Y0057491D03*
X0011095Y0059791D03*
X0011795Y0060591D03*
X0012495Y0061391D03*
X0013095Y0062091D03*
X0013795Y0062891D03*
X0014495Y0063691D03*
X0016395Y0063991D03*
X0016995Y0063291D03*
X0017095Y0063191D03*
X0017695Y0062491D03*
X0018295Y0061791D03*
X0018395Y0061691D03*
X0018995Y0060991D03*
X0019595Y0060291D03*
X0020295Y0059491D03*
X0022195Y0057291D03*
X0022795Y0056591D03*
X0022895Y0056491D03*
X0023495Y0055791D03*
X0024095Y0055091D03*
X0024795Y0054291D03*
X0025395Y0053591D03*
X0026095Y0052791D03*
X0026695Y0052091D03*
X0016495Y0065991D03*
X0017195Y0066791D03*
X0014495Y0066191D03*
X0013795Y0066991D03*
X0011895Y0069191D03*
X0011295Y0069891D03*
X0011195Y0069991D03*
X0010595Y0070691D03*
X0009995Y0071391D03*
X0007395Y0074391D03*
X0006095Y0075891D03*
X0005495Y0076591D03*
X0005395Y0076691D03*
X0004795Y0077391D03*
X0004195Y0078091D03*
X0019895Y0069891D03*
X0019295Y0069191D03*
X0020595Y0070691D03*
X0021295Y0071491D03*
X0023995Y0074591D03*
X0024695Y0075391D03*
X0025395Y0076191D03*
X0026095Y0076991D03*
D377*
X0010680Y0052024D03*
D378*
X0010695Y0052057D03*
X0010695Y0055024D03*
X0007395Y0070124D03*
X0007395Y0070157D03*
X0007395Y0070224D03*
X0155447Y0045539D03*
D379*
X0010695Y0052091D03*
D380*
X0011280Y0053424D03*
X0011280Y0053457D03*
X0011280Y0053624D03*
X0010110Y0053657D03*
X0010080Y0053624D03*
X0010080Y0053557D03*
X0010080Y0053524D03*
X0010080Y0053457D03*
X0008910Y0053257D03*
X0008910Y0053224D03*
X0008910Y0053157D03*
X0008980Y0052957D03*
X0008880Y0053424D03*
X0008880Y0053457D03*
X0008880Y0053524D03*
X0008880Y0053557D03*
X0008880Y0053624D03*
X0008880Y0053657D03*
X0008910Y0053824D03*
X0008910Y0053857D03*
X0008910Y0053924D03*
X0012410Y0054024D03*
X0012410Y0054057D03*
X0012410Y0053024D03*
X0010510Y0055924D03*
X0010510Y0055957D03*
X0010510Y0056024D03*
X0010510Y0056057D03*
X0010480Y0056224D03*
X0010480Y0056257D03*
X0010480Y0056324D03*
X0010480Y0056357D03*
X0010410Y0056724D03*
X0010410Y0056757D03*
X0010410Y0056824D03*
X0010410Y0056857D03*
X0010380Y0056924D03*
X0010380Y0056957D03*
X0010380Y0057024D03*
X0010380Y0057057D03*
X0010310Y0057424D03*
X0010310Y0057457D03*
X0010310Y0057524D03*
X0010310Y0057557D03*
X0010280Y0057724D03*
X0010010Y0059724D03*
X0010010Y0059757D03*
X0010010Y0059824D03*
X0010010Y0059857D03*
X0009980Y0059924D03*
X0009980Y0059957D03*
X0009980Y0060024D03*
X0009980Y0060057D03*
X0009910Y0060424D03*
X0009910Y0060457D03*
X0009910Y0060524D03*
X0009910Y0060557D03*
X0009880Y0060724D03*
X0009880Y0060757D03*
X0009880Y0060824D03*
X0009880Y0060857D03*
X0009810Y0061224D03*
X0009810Y0061257D03*
X0009810Y0061324D03*
X0009810Y0061357D03*
X0009780Y0061424D03*
X0009780Y0061457D03*
X0009780Y0061524D03*
X0009780Y0061557D03*
X0009710Y0061924D03*
X0009710Y0061957D03*
X0009710Y0062024D03*
X0009710Y0062057D03*
X0009680Y0062224D03*
X0009680Y0062257D03*
X0009680Y0062324D03*
X0009680Y0062357D03*
X0009610Y0062724D03*
X0009610Y0062757D03*
X0009610Y0062824D03*
X0009610Y0062857D03*
X0009580Y0062924D03*
X0009580Y0062957D03*
X0009580Y0063024D03*
X0009580Y0063057D03*
X0009510Y0063424D03*
X0009510Y0063457D03*
X0009510Y0063524D03*
X0009510Y0063557D03*
X0009480Y0063724D03*
X0009480Y0063757D03*
X0009480Y0063824D03*
X0009480Y0063857D03*
X0009410Y0064224D03*
X0009410Y0064257D03*
X0009410Y0064324D03*
X0009410Y0064357D03*
X0009380Y0064424D03*
X0009380Y0064457D03*
X0009380Y0064524D03*
X0009380Y0064557D03*
X0009310Y0064924D03*
X0009310Y0064957D03*
X0009310Y0065024D03*
X0009310Y0065057D03*
X0009280Y0065224D03*
X0009280Y0065257D03*
X0009280Y0065324D03*
X0009280Y0065357D03*
X0009210Y0065724D03*
X0009210Y0065757D03*
X0009210Y0065824D03*
X0009210Y0065857D03*
X0009180Y0065924D03*
X0009180Y0065957D03*
X0009180Y0066024D03*
X0009180Y0066057D03*
X0009110Y0066424D03*
X0009110Y0066457D03*
X0009110Y0066524D03*
X0009110Y0066557D03*
X0009080Y0066724D03*
X0009080Y0066757D03*
X0009080Y0066824D03*
X0009080Y0066857D03*
X0009010Y0067224D03*
X0009010Y0067257D03*
X0009010Y0067324D03*
X0009010Y0067357D03*
X0008980Y0067424D03*
X0008980Y0067457D03*
X0008980Y0067524D03*
X0008980Y0067557D03*
X0008910Y0067924D03*
X0008910Y0067957D03*
X0008910Y0068024D03*
X0008910Y0068057D03*
X0008880Y0068224D03*
X0008880Y0068257D03*
X0008780Y0069057D03*
X0008710Y0069424D03*
X0008710Y0069457D03*
X0008610Y0070257D03*
X0008610Y0070324D03*
X0008610Y0070357D03*
X0008580Y0070424D03*
X0008580Y0070457D03*
X0008580Y0070524D03*
X0008580Y0070557D03*
X0008510Y0070924D03*
X0008510Y0070957D03*
X0008510Y0071024D03*
X0008510Y0071057D03*
X0008480Y0071224D03*
X0008480Y0071257D03*
X0008480Y0071324D03*
X0008480Y0071357D03*
X0008410Y0071724D03*
X0008410Y0071757D03*
X0008410Y0071824D03*
X0008410Y0071857D03*
X0008380Y0071924D03*
X0008380Y0071957D03*
X0008380Y0072024D03*
X0008380Y0072057D03*
X0017210Y0075957D03*
X0017210Y0076024D03*
X0017210Y0076057D03*
X0017210Y0076124D03*
X0017210Y0076157D03*
X0017210Y0076224D03*
X0017210Y0076257D03*
X0020880Y0075257D03*
X0022910Y0072224D03*
X0022910Y0072157D03*
X0022910Y0072124D03*
X0022910Y0072057D03*
X0022880Y0071957D03*
X0022880Y0071924D03*
X0022880Y0071857D03*
X0022880Y0071824D03*
X0022810Y0071424D03*
X0022810Y0071357D03*
X0022810Y0071324D03*
X0022780Y0071157D03*
X0022780Y0071124D03*
X0022780Y0071057D03*
X0022780Y0071024D03*
X0022710Y0070657D03*
X0022710Y0070624D03*
X0022710Y0070557D03*
X0022710Y0070524D03*
X0022680Y0070357D03*
X0022680Y0070324D03*
X0022680Y0070257D03*
X0022680Y0070224D03*
X0022610Y0069857D03*
X0022610Y0069824D03*
X0022610Y0069757D03*
X0022610Y0069724D03*
X0022580Y0069557D03*
X0022580Y0069524D03*
X0022580Y0069457D03*
X0022510Y0069057D03*
X0022510Y0069024D03*
X0022510Y0068957D03*
X0022510Y0068924D03*
X0022480Y0068824D03*
X0022480Y0068757D03*
X0022480Y0068724D03*
X0022480Y0068657D03*
X0022410Y0068257D03*
X0022410Y0068224D03*
X0022410Y0068157D03*
X0022380Y0068024D03*
X0022380Y0067957D03*
X0022380Y0067924D03*
X0022310Y0067524D03*
X0022310Y0067457D03*
X0022310Y0067424D03*
X0022310Y0067357D03*
X0022280Y0067257D03*
X0022280Y0067224D03*
X0022280Y0067157D03*
X0022280Y0067124D03*
X0022210Y0066724D03*
X0022210Y0066657D03*
X0022210Y0066624D03*
X0022210Y0066557D03*
X0022180Y0066457D03*
X0022180Y0066424D03*
X0022180Y0066357D03*
X0022180Y0066324D03*
X0022110Y0065957D03*
X0022110Y0065924D03*
X0022110Y0065857D03*
X0022110Y0065824D03*
X0022080Y0065657D03*
X0022080Y0065624D03*
X0022080Y0065557D03*
X0022080Y0065524D03*
X0022010Y0065157D03*
X0022010Y0065124D03*
X0022010Y0065057D03*
X0022010Y0065024D03*
X0021980Y0064857D03*
X0021980Y0064824D03*
X0021980Y0064757D03*
X0021910Y0064357D03*
X0021910Y0064324D03*
X0021910Y0064257D03*
X0021910Y0064224D03*
X0021880Y0064124D03*
X0021880Y0064057D03*
X0021880Y0064024D03*
X0021880Y0063957D03*
X0021810Y0063557D03*
X0021810Y0063524D03*
X0021810Y0063457D03*
X0021810Y0063424D03*
X0021780Y0063324D03*
X0021780Y0063257D03*
X0021780Y0063224D03*
X0021780Y0063157D03*
X0021710Y0062757D03*
X0021710Y0062724D03*
X0021710Y0062657D03*
X0021680Y0062557D03*
X0021680Y0062524D03*
X0021680Y0062457D03*
X0021680Y0062424D03*
X0021610Y0062024D03*
X0021610Y0061957D03*
X0021610Y0061924D03*
X0021610Y0061857D03*
X0021580Y0061757D03*
X0021580Y0061724D03*
X0021580Y0061657D03*
X0021580Y0061624D03*
X0021510Y0061224D03*
X0021510Y0061157D03*
X0021510Y0061124D03*
X0021480Y0060957D03*
X0021480Y0060924D03*
X0021480Y0060857D03*
X0021480Y0060824D03*
X0021410Y0060457D03*
X0021410Y0060424D03*
X0021410Y0060357D03*
X0021410Y0060324D03*
X0021380Y0060157D03*
X0021380Y0060124D03*
X0021380Y0060057D03*
X0021380Y0060024D03*
X0021310Y0059657D03*
X0021310Y0059624D03*
X0021310Y0059557D03*
X0021310Y0059524D03*
X0021010Y0057324D03*
X0021010Y0057257D03*
X0021010Y0057224D03*
X0021010Y0057157D03*
X0020980Y0057057D03*
X0020980Y0057024D03*
X0020980Y0056957D03*
X0020980Y0056924D03*
X0020910Y0056524D03*
X0020910Y0056457D03*
X0020910Y0056424D03*
X0020910Y0056357D03*
X0020880Y0056257D03*
X0020880Y0056224D03*
X0020880Y0056157D03*
X0020880Y0056124D03*
X0020810Y0055757D03*
X0020810Y0055724D03*
X0020810Y0055657D03*
X0020810Y0055624D03*
X0020780Y0055457D03*
X0020780Y0055424D03*
X0020780Y0055357D03*
X0020780Y0055324D03*
X0020710Y0054957D03*
X0020710Y0054924D03*
X0020710Y0054857D03*
X0020710Y0054824D03*
X0020680Y0054657D03*
X0020680Y0054624D03*
X0020680Y0054557D03*
X0020610Y0054157D03*
X0020610Y0054124D03*
X0020610Y0054057D03*
X0020610Y0054024D03*
X0020580Y0053924D03*
X0017780Y0052124D03*
X0003910Y0078624D03*
D381*
X0008345Y0075824D03*
X0011645Y0052124D03*
D382*
X0009725Y0052124D03*
X0010695Y0054224D03*
X0009895Y0058257D03*
X0010425Y0059157D03*
X0020895Y0058924D03*
X0021425Y0058024D03*
X0007125Y0074857D03*
D383*
X0007145Y0074757D03*
X0008345Y0075857D03*
X0015575Y0065024D03*
X0015575Y0064857D03*
X0010375Y0059057D03*
X0020945Y0058824D03*
X0021415Y0058124D03*
X0011745Y0052157D03*
X0009645Y0052157D03*
D384*
X0008945Y0053091D03*
X0008945Y0053991D03*
X0012445Y0053091D03*
X0010545Y0055791D03*
X0010445Y0056491D03*
X0010445Y0056591D03*
X0010345Y0057191D03*
X0010345Y0057291D03*
X0009945Y0060191D03*
X0009945Y0060291D03*
X0009845Y0060991D03*
X0009845Y0061091D03*
X0009745Y0061691D03*
X0009745Y0061791D03*
X0009645Y0062491D03*
X0009645Y0062591D03*
X0009545Y0063191D03*
X0009545Y0063291D03*
X0009445Y0063991D03*
X0009445Y0064091D03*
X0009345Y0064691D03*
X0009345Y0064791D03*
X0009245Y0065491D03*
X0009245Y0065591D03*
X0009145Y0066191D03*
X0009145Y0066291D03*
X0009045Y0066991D03*
X0009045Y0067091D03*
X0008945Y0067691D03*
X0008945Y0067791D03*
X0008745Y0069191D03*
X0008745Y0069291D03*
X0008545Y0070691D03*
X0008545Y0070791D03*
X0008445Y0071491D03*
X0008445Y0071591D03*
X0014045Y0075991D03*
X0014045Y0076091D03*
X0014045Y0076191D03*
X0022845Y0071691D03*
X0022845Y0071591D03*
X0022745Y0070891D03*
X0022745Y0070791D03*
X0022645Y0070091D03*
X0022645Y0069991D03*
X0022545Y0069291D03*
X0022545Y0069191D03*
X0022445Y0068491D03*
X0022445Y0068391D03*
X0022345Y0067791D03*
X0022345Y0067691D03*
X0022245Y0066991D03*
X0022245Y0066891D03*
X0022145Y0066191D03*
X0022145Y0066091D03*
X0022045Y0065391D03*
X0022045Y0065291D03*
X0021945Y0064591D03*
X0021945Y0064491D03*
X0021845Y0063791D03*
X0021845Y0063691D03*
X0021745Y0062991D03*
X0021645Y0062291D03*
X0021645Y0062191D03*
X0021545Y0061491D03*
X0021545Y0061391D03*
X0021445Y0060691D03*
X0021445Y0060591D03*
X0021345Y0059891D03*
X0021345Y0059791D03*
X0021045Y0057491D03*
X0020945Y0056791D03*
X0020945Y0056691D03*
X0020845Y0055991D03*
X0020845Y0055891D03*
X0020745Y0055191D03*
X0020745Y0055091D03*
X0020645Y0054391D03*
X0020645Y0054291D03*
X0019345Y0053091D03*
X0019345Y0052991D03*
X0019345Y0052891D03*
X0019345Y0052791D03*
X0019345Y0052691D03*
X0019345Y0052591D03*
X0019345Y0052491D03*
X0019345Y0052391D03*
X0019345Y0052291D03*
X0019345Y0052191D03*
D385*
X0017760Y0052191D03*
X0017760Y0052291D03*
X0017760Y0052391D03*
X0017760Y0052491D03*
X0017760Y0052591D03*
X0017760Y0052691D03*
X0017760Y0052791D03*
X0017760Y0052891D03*
X0017760Y0052991D03*
X0017760Y0053091D03*
X0020660Y0054491D03*
X0020730Y0054991D03*
X0020760Y0055291D03*
X0020830Y0055791D03*
X0020860Y0056091D03*
X0020930Y0056591D03*
X0021030Y0057391D03*
X0021330Y0059691D03*
X0021360Y0059991D03*
X0021430Y0060491D03*
X0021460Y0060791D03*
X0021530Y0061291D03*
X0021630Y0062091D03*
X0021730Y0062891D03*
X0021760Y0063091D03*
X0021860Y0063891D03*
X0021960Y0064691D03*
X0022030Y0065191D03*
X0022060Y0065491D03*
X0022130Y0065991D03*
X0022160Y0066291D03*
X0022230Y0066791D03*
X0022330Y0067591D03*
X0022460Y0068591D03*
X0022560Y0069391D03*
X0022630Y0069891D03*
X0022660Y0070191D03*
X0022730Y0070691D03*
X0022760Y0070991D03*
X0022830Y0071491D03*
X0019960Y0075591D03*
X0019960Y0075691D03*
X0019960Y0075791D03*
X0019960Y0075891D03*
X0019960Y0075991D03*
X0019960Y0076091D03*
X0009260Y0074891D03*
X0008460Y0071391D03*
X0008530Y0070891D03*
X0008730Y0069391D03*
X0008930Y0067891D03*
X0009060Y0066891D03*
X0009130Y0066391D03*
X0009260Y0065391D03*
X0009330Y0064891D03*
X0009460Y0063891D03*
X0009530Y0063391D03*
X0009660Y0062391D03*
X0009730Y0061891D03*
X0009860Y0060891D03*
X0009930Y0060391D03*
X0010330Y0057391D03*
X0010460Y0056391D03*
X0010530Y0055891D03*
X0006160Y0069091D03*
X0006160Y0069191D03*
X0006160Y0069291D03*
X0006160Y0069391D03*
X0006160Y0069491D03*
D386*
X0011795Y0052191D03*
D387*
X0009580Y0052191D03*
X0009610Y0054891D03*
X0021380Y0058191D03*
X0015580Y0064891D03*
X0015580Y0064991D03*
X0007610Y0074191D03*
X0007180Y0074691D03*
D388*
X0009445Y0054791D03*
X0011915Y0054791D03*
X0011945Y0052291D03*
X0009445Y0052291D03*
D389*
X0011980Y0052324D03*
X0012010Y0052357D03*
X0009380Y0054724D03*
X0010680Y0055657D03*
D390*
X0010695Y0054357D03*
X0011995Y0054724D03*
X0009395Y0052324D03*
D391*
X0012045Y0052391D03*
X0009345Y0054691D03*
D392*
X0012025Y0054691D03*
X0010695Y0052691D03*
X0009325Y0052391D03*
D393*
X0009280Y0052457D03*
X0012080Y0052424D03*
X0012110Y0052457D03*
X0012080Y0054624D03*
X0009310Y0054657D03*
X0009280Y0054624D03*
X0009080Y0075224D03*
X0003910Y0078524D03*
D394*
X0009260Y0054591D03*
X0012130Y0054591D03*
X0012130Y0052491D03*
X0009230Y0052491D03*
D395*
X0009215Y0052524D03*
X0009175Y0052557D03*
X0009145Y0052624D03*
X0010675Y0052657D03*
X0011175Y0053757D03*
X0010175Y0053757D03*
X0009215Y0054524D03*
X0012175Y0054524D03*
X0012215Y0054457D03*
X0012175Y0052557D03*
X0009145Y0075157D03*
X0003915Y0078557D03*
X0179557Y0045639D03*
D396*
X0179557Y0017105D03*
X0012215Y0052591D03*
X0009175Y0052591D03*
X0009175Y0054491D03*
X0012215Y0054491D03*
X0009115Y0075191D03*
D397*
X0010695Y0052591D03*
D398*
X0010160Y0053324D03*
X0009130Y0052657D03*
X0012230Y0052624D03*
X0012260Y0052657D03*
X0012230Y0054424D03*
X0009160Y0054457D03*
X0009130Y0054424D03*
X0009160Y0075124D03*
X0008360Y0075957D03*
D399*
X0008495Y0071157D03*
X0008495Y0071124D03*
X0008895Y0068157D03*
X0008895Y0068124D03*
X0009095Y0066657D03*
X0009095Y0066624D03*
X0009295Y0065157D03*
X0009295Y0065124D03*
X0009495Y0063657D03*
X0009495Y0063624D03*
X0009695Y0062157D03*
X0009695Y0062124D03*
X0009895Y0060657D03*
X0009895Y0060624D03*
X0010295Y0057657D03*
X0010295Y0057624D03*
X0010495Y0056157D03*
X0010495Y0056124D03*
X0011295Y0053557D03*
X0011295Y0053524D03*
X0010695Y0052624D03*
X0008895Y0053324D03*
X0008895Y0053357D03*
X0008895Y0053724D03*
X0008895Y0053757D03*
X0020595Y0053957D03*
X0020695Y0054724D03*
X0020695Y0054757D03*
X0020795Y0055524D03*
X0020795Y0055557D03*
X0020895Y0056324D03*
X0020995Y0057124D03*
X0021395Y0060224D03*
X0021395Y0060257D03*
X0021495Y0061024D03*
X0021495Y0061057D03*
X0021595Y0061824D03*
X0021695Y0062624D03*
X0021795Y0063357D03*
X0021895Y0064157D03*
X0021995Y0064924D03*
X0021995Y0064957D03*
X0022095Y0065724D03*
X0022095Y0065757D03*
X0022195Y0066524D03*
X0022295Y0067324D03*
X0022395Y0068057D03*
X0022395Y0068124D03*
X0022495Y0068857D03*
X0022595Y0069624D03*
X0022595Y0069657D03*
X0022695Y0070424D03*
X0022695Y0070457D03*
X0022795Y0071224D03*
X0022795Y0071257D03*
X0022895Y0072024D03*
X0020895Y0075324D03*
X0020895Y0075357D03*
X0020895Y0075424D03*
X0020895Y0075457D03*
X0020895Y0075524D03*
X0020895Y0075557D03*
X0020895Y0075624D03*
X0020895Y0075657D03*
X0020895Y0075724D03*
X0020895Y0075757D03*
X0020895Y0075824D03*
X0020895Y0075857D03*
X0020895Y0075924D03*
X0020895Y0075957D03*
X0020895Y0076024D03*
X0020895Y0076057D03*
X0020895Y0076124D03*
D400*
X0009095Y0052691D03*
D401*
X0012295Y0052724D03*
X0012295Y0054324D03*
X0009095Y0054357D03*
D402*
X0009080Y0054324D03*
X0010680Y0054424D03*
X0011210Y0053324D03*
X0012310Y0052757D03*
X0009080Y0052757D03*
X0009080Y0052724D03*
X0012280Y0054357D03*
X0154262Y0021372D03*
D403*
X0021365Y0058224D03*
X0020995Y0058724D03*
X0011825Y0054857D03*
X0010695Y0052757D03*
X0009965Y0058457D03*
X0010325Y0058924D03*
X0010325Y0058957D03*
X0007195Y0074657D03*
D404*
X0009180Y0075091D03*
X0003910Y0078591D03*
X0010580Y0055691D03*
X0009110Y0054391D03*
X0009010Y0054191D03*
X0012310Y0054291D03*
X0012310Y0052791D03*
D405*
X0010675Y0052791D03*
D406*
X0009045Y0052791D03*
X0009045Y0054291D03*
D407*
X0009045Y0054257D03*
X0010145Y0053724D03*
X0011245Y0053724D03*
X0011245Y0053357D03*
X0012345Y0052857D03*
X0012345Y0052824D03*
X0009045Y0052824D03*
X0012345Y0054224D03*
D408*
X0009680Y0054924D03*
X0010680Y0052824D03*
X0009910Y0058324D03*
X0010410Y0059124D03*
X0021410Y0058057D03*
X0015580Y0064824D03*
X0015580Y0065057D03*
X0007110Y0074824D03*
D409*
X0018380Y0068324D03*
X0015580Y0064757D03*
X0020880Y0058957D03*
X0009880Y0058224D03*
X0010680Y0052857D03*
D410*
X0010675Y0052891D03*
X0012775Y0068391D03*
X0018415Y0068391D03*
X0008275Y0073591D03*
X0008345Y0075791D03*
D411*
X0007095Y0074957D03*
X0008695Y0072657D03*
X0022595Y0072757D03*
X0009795Y0054957D03*
X0010695Y0052924D03*
D412*
X0010695Y0052957D03*
X0021495Y0057824D03*
X0020825Y0059124D03*
X0010495Y0059357D03*
X0008295Y0073624D03*
X0008365Y0075757D03*
D413*
X0010510Y0059391D03*
X0010680Y0054091D03*
X0010680Y0052991D03*
X0021510Y0057791D03*
D414*
X0020795Y0059224D03*
X0010695Y0054057D03*
X0010695Y0053024D03*
X0012695Y0068557D03*
X0018495Y0068557D03*
X0022495Y0072557D03*
X0008295Y0073657D03*
D415*
X0008795Y0072424D03*
X0020795Y0059257D03*
X0010695Y0053057D03*
D416*
X0010680Y0053091D03*
X0020780Y0059291D03*
X0015580Y0064591D03*
X0015580Y0065291D03*
D417*
X0021580Y0057657D03*
X0010680Y0053957D03*
X0010680Y0053124D03*
X0007080Y0075124D03*
D418*
X0016525Y0053624D03*
X0016525Y0053557D03*
X0016525Y0053524D03*
X0016495Y0053424D03*
X0016495Y0053357D03*
X0016495Y0053324D03*
X0016495Y0053257D03*
X0016495Y0053224D03*
X0016465Y0053157D03*
X0158247Y0019139D03*
D419*
X0022425Y0072424D03*
X0018565Y0068724D03*
X0012625Y0068724D03*
X0008865Y0072324D03*
X0010565Y0059557D03*
X0010695Y0055524D03*
X0010695Y0053924D03*
X0010695Y0053157D03*
X0021595Y0057624D03*
X0020765Y0059324D03*
D420*
X0016525Y0053591D03*
X0016525Y0053491D03*
X0016495Y0053391D03*
X0016495Y0053291D03*
X0016465Y0053191D03*
X0158247Y0043605D03*
D421*
X0022410Y0072391D03*
X0008880Y0072291D03*
X0010580Y0059591D03*
X0021580Y0057591D03*
X0010680Y0053891D03*
X0010680Y0053191D03*
D422*
X0010110Y0053391D03*
X0010080Y0053491D03*
X0010080Y0053591D03*
X0008910Y0053791D03*
X0008910Y0053891D03*
X0008880Y0053691D03*
X0008880Y0053591D03*
X0008880Y0053491D03*
X0008880Y0053391D03*
X0008910Y0053191D03*
X0008980Y0054091D03*
X0011280Y0053591D03*
X0010510Y0055991D03*
X0010510Y0056091D03*
X0010480Y0056191D03*
X0010480Y0056291D03*
X0010410Y0056691D03*
X0010410Y0056791D03*
X0010380Y0056991D03*
X0010380Y0057091D03*
X0010310Y0057491D03*
X0010310Y0057591D03*
X0010280Y0057691D03*
X0010010Y0059691D03*
X0010010Y0059791D03*
X0009980Y0059991D03*
X0009980Y0060091D03*
X0009910Y0060491D03*
X0009910Y0060591D03*
X0009880Y0060691D03*
X0009880Y0060791D03*
X0009810Y0061191D03*
X0009810Y0061291D03*
X0009780Y0061491D03*
X0009780Y0061591D03*
X0009710Y0061991D03*
X0009710Y0062091D03*
X0009680Y0062191D03*
X0009680Y0062291D03*
X0009610Y0062691D03*
X0009610Y0062791D03*
X0009580Y0062991D03*
X0009580Y0063091D03*
X0009510Y0063491D03*
X0009510Y0063591D03*
X0009480Y0063691D03*
X0009480Y0063791D03*
X0009410Y0064191D03*
X0009410Y0064291D03*
X0009380Y0064491D03*
X0009380Y0064591D03*
X0009310Y0064991D03*
X0009310Y0065091D03*
X0009280Y0065191D03*
X0009280Y0065291D03*
X0009210Y0065691D03*
X0009210Y0065791D03*
X0009180Y0065991D03*
X0009180Y0066091D03*
X0009110Y0066491D03*
X0009110Y0066591D03*
X0009080Y0066691D03*
X0009080Y0066791D03*
X0009010Y0067191D03*
X0009010Y0067291D03*
X0008980Y0067491D03*
X0008980Y0067591D03*
X0008910Y0067991D03*
X0008910Y0068091D03*
X0008880Y0068191D03*
X0008780Y0069091D03*
X0008710Y0069491D03*
X0008610Y0070291D03*
X0008580Y0070491D03*
X0008580Y0070591D03*
X0008510Y0070991D03*
X0008510Y0071091D03*
X0008480Y0071191D03*
X0008480Y0071291D03*
X0008410Y0071691D03*
X0008410Y0071791D03*
X0008380Y0071991D03*
X0008380Y0072091D03*
X0017210Y0075991D03*
X0017210Y0076091D03*
X0017210Y0076191D03*
X0022910Y0072191D03*
X0022910Y0072091D03*
X0022880Y0071891D03*
X0022880Y0071791D03*
X0022810Y0071391D03*
X0022810Y0071291D03*
X0022780Y0071091D03*
X0022710Y0070591D03*
X0022710Y0070491D03*
X0022680Y0070391D03*
X0022680Y0070291D03*
X0022610Y0069791D03*
X0022580Y0069591D03*
X0022580Y0069491D03*
X0022510Y0069091D03*
X0022510Y0068991D03*
X0022480Y0068791D03*
X0022480Y0068691D03*
X0022410Y0068291D03*
X0022410Y0068191D03*
X0022380Y0067991D03*
X0022380Y0067891D03*
X0022310Y0067491D03*
X0022310Y0067391D03*
X0022280Y0067191D03*
X0022280Y0067091D03*
X0022210Y0066691D03*
X0022210Y0066591D03*
X0022180Y0066391D03*
X0022110Y0065891D03*
X0022110Y0065791D03*
X0022080Y0065691D03*
X0022080Y0065591D03*
X0022010Y0065091D03*
X0022010Y0064991D03*
X0021980Y0064891D03*
X0021980Y0064791D03*
X0021910Y0064391D03*
X0021910Y0064291D03*
X0021880Y0064091D03*
X0021880Y0063991D03*
X0021810Y0063591D03*
X0021810Y0063491D03*
X0021780Y0063291D03*
X0021780Y0063191D03*
X0021710Y0062791D03*
X0021710Y0062691D03*
X0021680Y0062491D03*
X0021680Y0062391D03*
X0021610Y0061991D03*
X0021610Y0061891D03*
X0021580Y0061691D03*
X0021580Y0061591D03*
X0021510Y0061191D03*
X0021510Y0061091D03*
X0021480Y0060991D03*
X0021480Y0060891D03*
X0021410Y0060391D03*
X0021410Y0060291D03*
X0021380Y0060191D03*
X0021380Y0060091D03*
X0021310Y0059591D03*
X0021010Y0057291D03*
X0021010Y0057191D03*
X0020980Y0056991D03*
X0020980Y0056891D03*
X0020910Y0056491D03*
X0020910Y0056391D03*
X0020880Y0056191D03*
X0020810Y0055691D03*
X0020810Y0055591D03*
X0020780Y0055491D03*
X0020780Y0055391D03*
X0020710Y0054891D03*
X0020710Y0054791D03*
X0020680Y0054691D03*
X0020680Y0054591D03*
X0020610Y0054191D03*
X0020610Y0054091D03*
D423*
X0010675Y0053791D03*
X0010675Y0053291D03*
X0009715Y0057791D03*
X0015575Y0064491D03*
X0008915Y0072191D03*
D424*
X0008395Y0071891D03*
X0008595Y0070391D03*
X0008995Y0067391D03*
X0009195Y0065891D03*
X0009395Y0064391D03*
X0009595Y0062891D03*
X0009795Y0061391D03*
X0009995Y0059891D03*
X0010395Y0056891D03*
X0011295Y0053491D03*
X0008895Y0053291D03*
X0020595Y0053991D03*
X0020895Y0056291D03*
X0020995Y0057091D03*
X0021295Y0059491D03*
X0021595Y0061791D03*
X0021695Y0062591D03*
X0021795Y0063391D03*
X0021895Y0064191D03*
X0022195Y0066491D03*
X0022295Y0067291D03*
X0022395Y0068091D03*
X0022495Y0068891D03*
X0022595Y0069691D03*
X0022795Y0071191D03*
X0022895Y0071991D03*
X0020895Y0075291D03*
X0020895Y0075391D03*
X0020895Y0075491D03*
X0020895Y0075591D03*
X0020895Y0075691D03*
X0020895Y0075791D03*
X0020895Y0075891D03*
X0020895Y0075991D03*
X0020895Y0076091D03*
D425*
X0016510Y0053457D03*
D426*
X0016510Y0053657D03*
X0016510Y0053724D03*
X0158262Y0043572D03*
X0182562Y0043572D03*
X0182562Y0019172D03*
X0158262Y0019172D03*
D427*
X0016510Y0053691D03*
D428*
X0016530Y0053757D03*
X0016530Y0053824D03*
X0016530Y0053857D03*
D429*
X0016530Y0053791D03*
D430*
X0010680Y0053857D03*
X0015580Y0064524D03*
X0015580Y0064557D03*
X0015580Y0065324D03*
X0012610Y0068757D03*
X0018580Y0068757D03*
X0008310Y0073724D03*
X0007080Y0075157D03*
D431*
X0016515Y0053891D03*
X0158297Y0019205D03*
X0182597Y0019205D03*
D432*
X0010695Y0053991D03*
X0008295Y0073691D03*
D433*
X0008710Y0072624D03*
X0022580Y0072724D03*
X0015580Y0065157D03*
X0010480Y0059324D03*
X0010680Y0054124D03*
X0021510Y0057857D03*
D434*
X0021475Y0057924D03*
X0020875Y0059024D03*
X0011575Y0054957D03*
X0010675Y0054157D03*
X0009845Y0058157D03*
X0010445Y0059257D03*
X0015575Y0064724D03*
X0015575Y0065124D03*
X0012775Y0068357D03*
X0008645Y0072724D03*
X0008645Y0072757D03*
D435*
X0020895Y0058991D03*
X0010695Y0054191D03*
D436*
X0010695Y0054291D03*
D437*
X0010680Y0054391D03*
D438*
X0010695Y0054457D03*
D439*
X0010680Y0054491D03*
D440*
X0009430Y0054757D03*
X0011960Y0054757D03*
D441*
X0011760Y0054891D03*
X0009930Y0058391D03*
X0020960Y0058791D03*
D442*
X0010680Y0054991D03*
X0007410Y0069891D03*
X0007410Y0069991D03*
X0007410Y0070091D03*
D443*
X0010695Y0055057D03*
D444*
X0010695Y0055091D03*
D445*
X0010695Y0055124D03*
D446*
X0010675Y0055157D03*
X0010345Y0074824D03*
X0155297Y0045572D03*
X0179597Y0045572D03*
X0179597Y0017172D03*
X0155297Y0017172D03*
D447*
X0010680Y0055191D03*
D448*
X0010695Y0055257D03*
D449*
X0010695Y0055291D03*
D450*
X0010675Y0055324D03*
D451*
X0010695Y0055357D03*
D452*
X0010695Y0055391D03*
D453*
X0010680Y0055424D03*
X0015580Y0064357D03*
X0015580Y0065524D03*
X0179562Y0017139D03*
D454*
X0010695Y0055457D03*
D455*
X0010695Y0055491D03*
X0007095Y0075191D03*
D456*
X0007080Y0075024D03*
X0012710Y0068524D03*
X0015580Y0065224D03*
X0015580Y0064657D03*
X0018480Y0068524D03*
X0022910Y0073624D03*
X0020810Y0059157D03*
X0010680Y0055557D03*
X0009810Y0058024D03*
X0009810Y0058057D03*
D457*
X0010680Y0055591D03*
X0015580Y0064791D03*
X0015580Y0065091D03*
X0012810Y0068291D03*
X0018380Y0068291D03*
X0007110Y0074891D03*
D458*
X0020980Y0058757D03*
X0010680Y0055624D03*
D459*
X0009715Y0057757D03*
X0010615Y0059657D03*
X0020715Y0059424D03*
X0021615Y0057524D03*
X0015575Y0065357D03*
X0008945Y0072157D03*
X0008315Y0073757D03*
X0008345Y0075624D03*
X0022345Y0072257D03*
D460*
X0022460Y0072491D03*
X0008830Y0072391D03*
X0010530Y0059491D03*
X0021560Y0057691D03*
D461*
X0021530Y0057757D03*
X0022530Y0072624D03*
X0020430Y0076157D03*
X0020430Y0076224D03*
X0020430Y0076257D03*
X0020430Y0076324D03*
X0020430Y0076357D03*
X0020430Y0076424D03*
X0020430Y0076457D03*
X0020430Y0076524D03*
X0020430Y0076557D03*
X0020430Y0076624D03*
X0020430Y0076657D03*
X0020430Y0076724D03*
X0020430Y0076757D03*
X0020430Y0076824D03*
X0020430Y0076857D03*
X0008760Y0072524D03*
X0007060Y0075057D03*
D462*
X0009730Y0057824D03*
D463*
X0009745Y0057857D03*
X0020745Y0059357D03*
X0008345Y0075657D03*
D464*
X0008345Y0075691D03*
X0012645Y0068691D03*
X0018545Y0068691D03*
X0009745Y0057891D03*
D465*
X0009760Y0057924D03*
X0010530Y0059457D03*
X0012660Y0068624D03*
X0012660Y0068657D03*
X0018530Y0068657D03*
D466*
X0022930Y0073557D03*
X0010430Y0059224D03*
X0021460Y0057957D03*
D467*
X0021445Y0057991D03*
D468*
X0020795Y0059191D03*
X0009795Y0057991D03*
X0018495Y0068591D03*
D469*
X0020910Y0058891D03*
X0021410Y0058091D03*
D470*
X0009825Y0058091D03*
X0015595Y0065191D03*
X0018465Y0068491D03*
X0012725Y0068491D03*
X0008725Y0072591D03*
X0022565Y0072691D03*
D471*
X0018430Y0068424D03*
X0012760Y0068424D03*
X0020860Y0059057D03*
X0009830Y0058124D03*
D472*
X0021395Y0058157D03*
D473*
X0010430Y0059191D03*
X0009860Y0058191D03*
X0008630Y0072791D03*
D474*
X0009895Y0058291D03*
D475*
X0009930Y0058357D03*
X0020930Y0058857D03*
D476*
X0009945Y0058424D03*
D477*
X0010345Y0058991D03*
D478*
X0010360Y0059024D03*
X0007160Y0074724D03*
D479*
X0020845Y0059091D03*
D480*
X0010395Y0059091D03*
D481*
X0010460Y0059291D03*
X0008660Y0072691D03*
X0022930Y0073591D03*
D482*
X0022360Y0072291D03*
X0020730Y0059391D03*
D483*
X0020695Y0059457D03*
D484*
X0010545Y0059524D03*
X0008845Y0072357D03*
X0022445Y0072457D03*
D485*
X0015560Y0064291D03*
D486*
X0015575Y0064391D03*
X0015575Y0065491D03*
X0008345Y0075491D03*
D487*
X0015580Y0065457D03*
X0015580Y0064424D03*
D488*
X0015580Y0064457D03*
X0022880Y0073757D03*
D489*
X0007080Y0074991D03*
X0015580Y0064691D03*
D490*
X0015580Y0065391D03*
D491*
X0015595Y0065424D03*
X0020865Y0074657D03*
X0007095Y0075224D03*
D492*
X0015575Y0065591D03*
D493*
X0015575Y0067557D03*
X0164397Y0039172D03*
X0188657Y0039172D03*
X0188657Y0023572D03*
X0164397Y0023572D03*
X0164357Y0023539D03*
D494*
X0164262Y0039305D03*
X0015580Y0067591D03*
D495*
X0015580Y0067624D03*
X0164192Y0039372D03*
X0164192Y0023372D03*
X0164162Y0023339D03*
D496*
X0188377Y0023272D03*
X0188377Y0039472D03*
X0181077Y0044939D03*
X0156777Y0044939D03*
X0015595Y0067657D03*
D497*
X0015595Y0067691D03*
D498*
X0015595Y0067724D03*
X0163877Y0039672D03*
X0163907Y0039639D03*
X0188207Y0039639D03*
X0163947Y0023139D03*
X0163877Y0023072D03*
D499*
X0156877Y0017872D03*
X0181177Y0017872D03*
X0181177Y0044872D03*
X0156877Y0044872D03*
X0015595Y0067757D03*
D500*
X0015595Y0067791D03*
D501*
X0015580Y0067824D03*
X0163692Y0039839D03*
X0187962Y0039839D03*
D502*
X0187862Y0039939D03*
X0187892Y0022839D03*
X0015580Y0067857D03*
D503*
X0015595Y0067891D03*
X0156977Y0044805D03*
X0181277Y0044805D03*
X0163577Y0022805D03*
D504*
X0163477Y0022739D03*
X0187777Y0022739D03*
X0015595Y0067924D03*
D505*
X0015595Y0067957D03*
X0187647Y0022639D03*
D506*
X0015595Y0067991D03*
D507*
X0015595Y0068024D03*
X0187477Y0040239D03*
D508*
X0163192Y0040239D03*
X0015580Y0068057D03*
D509*
X0015580Y0068091D03*
X0015510Y0075691D03*
X0163092Y0040305D03*
X0187392Y0040305D03*
D510*
X0187297Y0040372D03*
X0181497Y0044639D03*
X0162997Y0040372D03*
X0157197Y0044639D03*
X0162997Y0022372D03*
X0187297Y0022372D03*
X0015575Y0068124D03*
D511*
X0015595Y0068157D03*
D512*
X0015595Y0068191D03*
X0157247Y0044605D03*
X0162907Y0022305D03*
X0187177Y0022305D03*
D513*
X0181577Y0018172D03*
X0157277Y0018172D03*
X0157277Y0044572D03*
X0181577Y0044572D03*
X0015595Y0068224D03*
D514*
X0015595Y0068257D03*
D515*
X0007530Y0068291D03*
D516*
X0012795Y0068324D03*
X0018395Y0068357D03*
X0007095Y0074924D03*
D517*
X0012060Y0075157D03*
X0007530Y0068357D03*
X0007530Y0068324D03*
D518*
X0007510Y0068391D03*
X0007510Y0068491D03*
X0007510Y0068591D03*
X0155562Y0045505D03*
X0179862Y0045505D03*
D519*
X0179862Y0017239D03*
X0155562Y0017239D03*
X0007510Y0068424D03*
X0007510Y0068457D03*
X0007510Y0068524D03*
X0007510Y0068557D03*
D520*
X0012745Y0068457D03*
X0018445Y0068457D03*
D521*
X0012675Y0068591D03*
X0008775Y0072491D03*
X0007075Y0075091D03*
X0022515Y0072591D03*
D522*
X0007495Y0068857D03*
X0007495Y0068824D03*
X0007495Y0068757D03*
X0007495Y0068724D03*
X0007495Y0068657D03*
X0007495Y0068624D03*
D523*
X0007495Y0068691D03*
X0007495Y0068791D03*
D524*
X0015595Y0068791D03*
X0182077Y0044105D03*
D525*
X0015595Y0068824D03*
D526*
X0015580Y0068857D03*
D527*
X0015595Y0068891D03*
X0015595Y0068991D03*
X0015595Y0069091D03*
X0015595Y0069191D03*
X0015595Y0069291D03*
X0015595Y0069391D03*
X0015595Y0069491D03*
X0156677Y0045005D03*
X0180977Y0045005D03*
D528*
X0007480Y0068891D03*
X0007480Y0068991D03*
D529*
X0015595Y0069024D03*
X0015595Y0069057D03*
X0015595Y0069124D03*
X0015595Y0069157D03*
X0015595Y0069224D03*
X0015595Y0069257D03*
X0015595Y0069324D03*
X0015595Y0069357D03*
X0015595Y0069424D03*
X0015595Y0069457D03*
X0015595Y0069524D03*
X0015595Y0068957D03*
X0015595Y0068924D03*
X0156677Y0017739D03*
X0164477Y0023672D03*
X0180977Y0017739D03*
X0164477Y0039072D03*
D530*
X0007480Y0068924D03*
X0007480Y0068957D03*
X0007480Y0069024D03*
D531*
X0007445Y0069524D03*
X0007445Y0069557D03*
D532*
X0007445Y0069591D03*
D533*
X0007430Y0069624D03*
X0007430Y0069657D03*
X0007430Y0069724D03*
X0007430Y0069757D03*
X0007430Y0069824D03*
X0007430Y0069857D03*
D534*
X0007430Y0069791D03*
X0007430Y0069691D03*
D535*
X0007410Y0069924D03*
X0007410Y0069957D03*
X0007410Y0070024D03*
X0007410Y0070057D03*
X0011880Y0075124D03*
D536*
X0007395Y0070191D03*
X0155447Y0017205D03*
D537*
X0022545Y0072657D03*
X0008745Y0072557D03*
D538*
X0019695Y0072791D03*
D539*
X0015630Y0072824D03*
D540*
X0015645Y0072857D03*
D541*
X0015645Y0072891D03*
D542*
X0015630Y0072924D03*
X0015630Y0072957D03*
X0015630Y0073024D03*
X0015630Y0073057D03*
D543*
X0015630Y0073091D03*
X0015630Y0072991D03*
D544*
X0015645Y0073124D03*
X0015645Y0073157D03*
D545*
X0015625Y0073191D03*
D546*
X0015625Y0073224D03*
D547*
X0015610Y0073257D03*
D548*
X0015595Y0073291D03*
D549*
X0015595Y0073324D03*
X0014995Y0074024D03*
D550*
X0015610Y0073357D03*
D551*
X0015610Y0073391D03*
D552*
X0015615Y0073424D03*
D553*
X0015610Y0073457D03*
D554*
X0015610Y0073491D03*
D555*
X0015595Y0073524D03*
D556*
X0022895Y0073691D03*
D557*
X0022845Y0073824D03*
X0020675Y0074724D03*
D558*
X0008360Y0075524D03*
X0008330Y0073824D03*
D559*
X0015610Y0073857D03*
D560*
X0015615Y0073891D03*
D561*
X0015610Y0073924D03*
D562*
X0015610Y0073957D03*
D563*
X0015615Y0073991D03*
D564*
X0014945Y0074057D03*
D565*
X0014930Y0074091D03*
D566*
X0014895Y0074124D03*
D567*
X0014845Y0074157D03*
D568*
X0015545Y0074191D03*
D569*
X0015565Y0074224D03*
D570*
X0015575Y0074257D03*
D571*
X0015595Y0074291D03*
D572*
X0015575Y0074324D03*
D573*
X0015565Y0074357D03*
D574*
X0015560Y0074391D03*
D575*
X0015530Y0074424D03*
D576*
X0015525Y0074457D03*
D577*
X0015515Y0074491D03*
D578*
X0015480Y0074524D03*
D579*
X0015465Y0074557D03*
D580*
X0015445Y0074591D03*
D581*
X0020945Y0074624D03*
D582*
X0010045Y0074657D03*
X0008345Y0075324D03*
X0008345Y0075357D03*
D583*
X0020780Y0074691D03*
D584*
X0010095Y0074691D03*
D585*
X0010160Y0074724D03*
X0011130Y0074957D03*
X0020060Y0074924D03*
D586*
X0010210Y0074757D03*
D587*
X0020495Y0074791D03*
X0155277Y0045605D03*
X0179577Y0045605D03*
D588*
X0010280Y0074791D03*
D589*
X0007130Y0074791D03*
D590*
X0020395Y0074824D03*
D591*
X0020280Y0074857D03*
D592*
X0020180Y0074891D03*
D593*
X0019945Y0074957D03*
D594*
X0019845Y0074991D03*
D595*
X0011245Y0074991D03*
D596*
X0019745Y0075024D03*
D597*
X0019645Y0075057D03*
D598*
X0011530Y0075057D03*
D599*
X0007775Y0075291D03*
X0019515Y0075091D03*
D600*
X0011680Y0075091D03*
D601*
X0019380Y0075124D03*
D602*
X0019195Y0075157D03*
D603*
X0018965Y0075191D03*
X0166507Y0035905D03*
X0166547Y0035805D03*
X0166577Y0035705D03*
X0166607Y0027105D03*
X0166577Y0027005D03*
X0166547Y0026905D03*
X0190777Y0026805D03*
X0190807Y0026905D03*
X0190877Y0035705D03*
X0190847Y0035805D03*
D604*
X0012325Y0075191D03*
D605*
X0018330Y0075224D03*
X0164112Y0039439D03*
X0188412Y0039439D03*
X0188442Y0023339D03*
D606*
X0191027Y0027439D03*
X0191057Y0027539D03*
X0191057Y0027572D03*
X0191097Y0027639D03*
X0191097Y0027672D03*
X0191127Y0027739D03*
X0191157Y0027839D03*
X0191097Y0035072D03*
X0191097Y0035139D03*
X0191057Y0035172D03*
X0166857Y0034939D03*
X0166827Y0035039D03*
X0166827Y0035072D03*
X0166797Y0035139D03*
X0166797Y0035172D03*
X0166757Y0035239D03*
X0166827Y0027672D03*
X0166797Y0027639D03*
X0166797Y0027572D03*
X0012775Y0075224D03*
D607*
X0015530Y0075257D03*
X0160542Y0041372D03*
D608*
X0007130Y0075257D03*
D609*
X0015530Y0075291D03*
D610*
X0015560Y0075324D03*
X0182912Y0019639D03*
D611*
X0158562Y0019539D03*
X0015610Y0075357D03*
D612*
X0015660Y0075391D03*
X0160842Y0021405D03*
X0185112Y0021405D03*
D613*
X0008345Y0075391D03*
D614*
X0015725Y0075424D03*
X0158447Y0043339D03*
X0182747Y0043339D03*
D615*
X0155277Y0017139D03*
X0008365Y0075424D03*
D616*
X0015775Y0075457D03*
X0158397Y0019339D03*
X0182697Y0019339D03*
D617*
X0008345Y0075457D03*
D618*
X0015845Y0075491D03*
X0158327Y0043505D03*
D619*
X0015895Y0075524D03*
D620*
X0015510Y0075557D03*
X0157762Y0044139D03*
X0161892Y0021739D03*
X0186192Y0021739D03*
D621*
X0008345Y0075557D03*
D622*
X0015510Y0075591D03*
X0186392Y0040905D03*
D623*
X0008345Y0075591D03*
D624*
X0015530Y0075624D03*
X0162412Y0040739D03*
X0186712Y0040739D03*
D625*
X0186992Y0040572D03*
X0162692Y0040572D03*
X0162692Y0022172D03*
X0186992Y0022172D03*
X0015510Y0075657D03*
D626*
X0015495Y0075724D03*
X0156977Y0017939D03*
X0181277Y0017939D03*
X0163577Y0039939D03*
D627*
X0164097Y0039472D03*
X0164097Y0023272D03*
X0164057Y0023239D03*
X0188327Y0023239D03*
X0015475Y0075757D03*
D628*
X0015475Y0075791D03*
X0164727Y0038805D03*
X0188997Y0038805D03*
X0164697Y0023905D03*
D629*
X0165562Y0025072D03*
X0189862Y0025072D03*
X0189892Y0025139D03*
X0189862Y0037639D03*
X0189862Y0037672D03*
X0165592Y0037639D03*
X0165562Y0037672D03*
X0015480Y0075824D03*
D630*
X0015460Y0075857D03*
X0156112Y0017439D03*
X0166712Y0027339D03*
X0166712Y0027372D03*
X0166742Y0027439D03*
X0166742Y0027472D03*
X0166742Y0035272D03*
X0166712Y0035339D03*
X0166712Y0035372D03*
X0191012Y0035372D03*
X0191012Y0035339D03*
X0191042Y0035272D03*
X0191042Y0035239D03*
X0191042Y0027472D03*
X0191012Y0027372D03*
X0180412Y0017439D03*
D631*
X0015545Y0075891D03*
D632*
X0015630Y0075924D03*
X0015630Y0076324D03*
X0015630Y0076357D03*
X0015630Y0076424D03*
X0015630Y0076457D03*
X0015630Y0076524D03*
X0015630Y0076557D03*
X0015630Y0076624D03*
X0015630Y0076657D03*
X0015630Y0076724D03*
X0015630Y0076757D03*
X0015630Y0076824D03*
X0015630Y0076857D03*
X0015630Y0076924D03*
X0015630Y0076957D03*
X0015630Y0077024D03*
D633*
X0008345Y0075924D03*
D634*
X0015015Y0075957D03*
D635*
X0008345Y0075991D03*
D636*
X0020430Y0076191D03*
X0020430Y0076291D03*
X0020430Y0076391D03*
X0020430Y0076491D03*
X0020430Y0076591D03*
X0020430Y0076691D03*
X0020430Y0076791D03*
X0020430Y0076891D03*
D637*
X0015630Y0076891D03*
X0015630Y0076991D03*
X0015630Y0076791D03*
X0015630Y0076691D03*
X0015630Y0076591D03*
X0015630Y0076491D03*
X0015630Y0076391D03*
X0015630Y0076291D03*
D638*
X0003895Y0078491D03*
D639*
X0003915Y0078657D03*
D640*
X0003945Y0078724D03*
D641*
X0003945Y0078757D03*
D642*
X0003945Y0078791D03*
D643*
X0003945Y0078824D03*
D644*
X0003945Y0078891D03*
D645*
X0003960Y0078924D03*
D646*
X0155277Y0017105D03*
D647*
X0179727Y0017205D03*
D648*
X0179962Y0017272D03*
X0179962Y0045472D03*
D649*
X0155677Y0045472D03*
X0155677Y0017272D03*
D650*
X0155777Y0017305D03*
X0180077Y0017305D03*
D651*
X0180162Y0017339D03*
X0155862Y0017339D03*
D652*
X0180247Y0017372D03*
X0180247Y0045372D03*
D653*
X0155962Y0045372D03*
X0155962Y0017372D03*
D654*
X0167127Y0028805D03*
X0167127Y0033905D03*
X0167127Y0034005D03*
X0191427Y0033905D03*
X0191427Y0028905D03*
X0191427Y0028805D03*
X0180327Y0017405D03*
D655*
X0167007Y0028305D03*
X0167047Y0028405D03*
X0167077Y0028605D03*
X0167107Y0028705D03*
X0167077Y0034205D03*
X0167047Y0034305D03*
X0167007Y0034405D03*
X0191277Y0034505D03*
X0191307Y0034405D03*
X0191347Y0034305D03*
X0191347Y0034205D03*
X0191377Y0034105D03*
X0191377Y0028605D03*
X0191347Y0028505D03*
X0191307Y0028405D03*
X0156047Y0017405D03*
D656*
X0166377Y0026539D03*
X0166377Y0026572D03*
X0166377Y0036172D03*
X0180477Y0045272D03*
X0190677Y0036172D03*
X0190677Y0036139D03*
X0190677Y0026572D03*
X0180477Y0017472D03*
D657*
X0190557Y0026339D03*
X0190597Y0026372D03*
X0190627Y0026439D03*
X0190627Y0026472D03*
X0190657Y0026539D03*
X0190627Y0036272D03*
X0190597Y0036339D03*
X0190597Y0036372D03*
X0166357Y0036239D03*
X0166327Y0036339D03*
X0166297Y0036372D03*
X0166257Y0036439D03*
X0156197Y0045272D03*
X0166327Y0026439D03*
X0166297Y0026372D03*
X0156197Y0017472D03*
D658*
X0166107Y0026005D03*
X0180547Y0017505D03*
X0190347Y0025905D03*
X0190407Y0036705D03*
X0190377Y0036805D03*
X0190307Y0036905D03*
X0166077Y0036805D03*
D659*
X0166062Y0025905D03*
X0165992Y0025805D03*
X0156262Y0017505D03*
X0190292Y0025805D03*
X0190262Y0037005D03*
D660*
X0165727Y0037439D03*
X0165727Y0025339D03*
X0156327Y0017539D03*
X0180627Y0017539D03*
X0190027Y0025339D03*
D661*
X0189777Y0024972D03*
X0180677Y0017572D03*
X0165477Y0024939D03*
X0189777Y0037772D03*
X0180677Y0045172D03*
D662*
X0189727Y0037872D03*
X0189727Y0037839D03*
X0165457Y0037839D03*
X0165427Y0037872D03*
X0156397Y0045172D03*
X0165427Y0024872D03*
X0156397Y0017572D03*
X0189697Y0024839D03*
X0189727Y0024872D03*
X0189757Y0024939D03*
D663*
X0189547Y0024605D03*
X0180747Y0017605D03*
X0165247Y0024605D03*
X0156447Y0017605D03*
X0165277Y0038105D03*
X0189547Y0038105D03*
D664*
X0189312Y0038439D03*
X0165012Y0038439D03*
X0165042Y0024339D03*
X0156512Y0017639D03*
X0180812Y0017639D03*
D665*
X0180862Y0017672D03*
X0189092Y0024039D03*
X0164792Y0024039D03*
X0156562Y0017672D03*
X0164862Y0038639D03*
X0156562Y0045072D03*
X0180862Y0045072D03*
X0189062Y0038739D03*
D666*
X0188912Y0038905D03*
X0180912Y0017705D03*
D667*
X0156627Y0017705D03*
X0164627Y0038905D03*
D668*
X0156727Y0044972D03*
X0181027Y0044972D03*
X0181027Y0017772D03*
X0156727Y0017772D03*
D669*
X0156777Y0017805D03*
X0181077Y0017805D03*
D670*
X0181127Y0017839D03*
X0188227Y0023139D03*
X0156827Y0017839D03*
D671*
X0156927Y0017905D03*
X0181227Y0017905D03*
D672*
X0181312Y0017972D03*
X0187742Y0040039D03*
X0181312Y0044772D03*
X0163442Y0040039D03*
D673*
X0157027Y0044772D03*
X0157027Y0017972D03*
D674*
X0157062Y0018005D03*
X0181362Y0018005D03*
X0163362Y0040105D03*
D675*
X0157112Y0018039D03*
X0181412Y0018039D03*
D676*
X0181447Y0018072D03*
X0163147Y0022472D03*
X0163147Y0040272D03*
X0181447Y0044672D03*
D677*
X0157162Y0044672D03*
X0163092Y0022439D03*
X0157162Y0018072D03*
X0187392Y0022439D03*
D678*
X0181497Y0018105D03*
X0157197Y0018105D03*
D679*
X0181527Y0018139D03*
D680*
X0157247Y0018139D03*
X0162907Y0040439D03*
X0187177Y0040439D03*
D681*
X0187042Y0022205D03*
X0181612Y0018205D03*
X0162742Y0022205D03*
D682*
X0157327Y0018205D03*
D683*
X0181647Y0018239D03*
D684*
X0157362Y0018239D03*
D685*
X0157397Y0018272D03*
X0181697Y0018272D03*
X0162597Y0040639D03*
X0157397Y0044472D03*
X0181697Y0044472D03*
D686*
X0181727Y0018305D03*
X0157427Y0018305D03*
D687*
X0181762Y0018339D03*
D688*
X0157477Y0018339D03*
D689*
X0157512Y0018372D03*
X0181812Y0018372D03*
X0181812Y0044372D03*
X0157512Y0044372D03*
D690*
X0157547Y0018405D03*
X0181847Y0018405D03*
D691*
X0181877Y0018439D03*
X0157577Y0018439D03*
D692*
X0157612Y0018472D03*
X0181912Y0018472D03*
X0181912Y0044272D03*
X0157612Y0044272D03*
D693*
X0162107Y0040905D03*
X0181947Y0018505D03*
D694*
X0157662Y0018505D03*
D695*
X0181977Y0018539D03*
D696*
X0157697Y0018539D03*
D697*
X0182012Y0018572D03*
X0186242Y0021772D03*
X0182012Y0044172D03*
D698*
X0157727Y0044172D03*
X0157727Y0018572D03*
D699*
X0182047Y0018605D03*
D700*
X0157762Y0018605D03*
X0161892Y0041005D03*
X0186192Y0041005D03*
D701*
X0182077Y0018639D03*
D702*
X0157797Y0018639D03*
X0161827Y0041039D03*
D703*
X0182112Y0044072D03*
X0186112Y0041039D03*
X0182112Y0018672D03*
D704*
X0157827Y0018672D03*
X0157827Y0044072D03*
D705*
X0182147Y0018705D03*
D706*
X0157862Y0018705D03*
D707*
X0157877Y0018739D03*
X0182177Y0018739D03*
D708*
X0182212Y0018772D03*
X0185942Y0021639D03*
X0161642Y0021639D03*
X0157912Y0018772D03*
X0157912Y0043972D03*
X0182212Y0043972D03*
D709*
X0182247Y0018805D03*
X0157947Y0018805D03*
D710*
X0157977Y0018839D03*
X0182277Y0018839D03*
D711*
X0182297Y0018872D03*
X0182297Y0043872D03*
D712*
X0158012Y0043872D03*
X0158012Y0018872D03*
D713*
X0182327Y0018905D03*
D714*
X0158047Y0018905D03*
D715*
X0158062Y0018939D03*
X0182362Y0018939D03*
D716*
X0182397Y0018972D03*
X0185657Y0021539D03*
X0161357Y0021539D03*
X0158097Y0018972D03*
X0158097Y0043772D03*
X0182397Y0043772D03*
D717*
X0182427Y0019005D03*
X0158127Y0019005D03*
D718*
X0182447Y0019039D03*
D719*
X0158162Y0019039D03*
X0161262Y0041239D03*
X0185562Y0041239D03*
D720*
X0182477Y0043672D03*
X0158177Y0043672D03*
X0158177Y0019072D03*
X0182477Y0019072D03*
D721*
X0182512Y0019105D03*
X0158212Y0019105D03*
D722*
X0182527Y0019139D03*
D723*
X0182612Y0019239D03*
D724*
X0158327Y0019239D03*
D725*
X0158347Y0019272D03*
X0182647Y0019272D03*
X0182647Y0043472D03*
X0158347Y0043472D03*
D726*
X0185292Y0041305D03*
X0182662Y0019305D03*
D727*
X0158377Y0019305D03*
D728*
X0158427Y0019372D03*
X0182727Y0019372D03*
X0182727Y0043372D03*
X0158427Y0043372D03*
D729*
X0158447Y0019405D03*
X0182747Y0019405D03*
D730*
X0182777Y0019439D03*
X0158477Y0019439D03*
D731*
X0158497Y0019472D03*
X0182797Y0019472D03*
X0182797Y0043272D03*
D732*
X0182827Y0019505D03*
X0158527Y0019505D03*
D733*
X0182847Y0019539D03*
D734*
X0182877Y0019572D03*
X0158577Y0019572D03*
X0158577Y0043172D03*
X0182877Y0043172D03*
D735*
X0182897Y0019605D03*
X0158597Y0019605D03*
D736*
X0158627Y0019639D03*
D737*
X0158647Y0019672D03*
X0182947Y0019672D03*
X0182947Y0043072D03*
X0158647Y0043072D03*
D738*
X0182962Y0019705D03*
D739*
X0158677Y0019705D03*
D740*
X0158697Y0019739D03*
X0182997Y0019739D03*
D741*
X0183012Y0019772D03*
X0183012Y0042972D03*
D742*
X0158727Y0042972D03*
X0158727Y0019772D03*
D743*
X0158747Y0019805D03*
X0183047Y0019805D03*
D744*
X0183062Y0019839D03*
X0158762Y0019839D03*
D745*
X0183077Y0019872D03*
X0183077Y0042872D03*
D746*
X0158797Y0042872D03*
X0160527Y0021372D03*
X0158797Y0019872D03*
D747*
X0158812Y0019905D03*
X0183112Y0019905D03*
D748*
X0183127Y0019939D03*
X0158827Y0019939D03*
D749*
X0183147Y0019972D03*
X0183147Y0042772D03*
D750*
X0158862Y0042772D03*
X0158862Y0019972D03*
D751*
X0158877Y0020005D03*
X0183177Y0020005D03*
D752*
X0183197Y0020039D03*
X0158897Y0020039D03*
D753*
X0183212Y0020072D03*
X0183212Y0042672D03*
D754*
X0158927Y0042672D03*
X0158927Y0020072D03*
D755*
X0183227Y0020105D03*
D756*
X0158947Y0020105D03*
D757*
X0158962Y0020139D03*
X0183262Y0020139D03*
D758*
X0183277Y0020172D03*
X0158977Y0020172D03*
X0158977Y0042572D03*
X0183277Y0042572D03*
D759*
X0183297Y0020205D03*
D760*
X0159012Y0020205D03*
D761*
X0159027Y0020239D03*
X0183327Y0020239D03*
D762*
X0183347Y0020272D03*
X0159047Y0020272D03*
X0159047Y0042472D03*
X0183347Y0042472D03*
D763*
X0183362Y0020305D03*
X0159062Y0020305D03*
D764*
X0183377Y0020339D03*
D765*
X0183397Y0020372D03*
X0159097Y0020339D03*
X0183397Y0042372D03*
D766*
X0159112Y0042372D03*
X0159112Y0020372D03*
D767*
X0159127Y0020405D03*
X0183427Y0020405D03*
D768*
X0183447Y0020439D03*
X0159147Y0020439D03*
D769*
X0159162Y0020472D03*
X0183462Y0020472D03*
X0183462Y0042272D03*
X0159162Y0042272D03*
D770*
X0183477Y0020505D03*
D771*
X0159197Y0020505D03*
X0183497Y0042205D03*
D772*
X0159197Y0042239D03*
X0183497Y0020539D03*
D773*
X0159212Y0020539D03*
D774*
X0159227Y0020572D03*
X0183527Y0020572D03*
X0183527Y0042172D03*
X0159227Y0042172D03*
D775*
X0159247Y0020605D03*
X0183547Y0020605D03*
D776*
X0183562Y0020639D03*
X0159262Y0020639D03*
D777*
X0159277Y0020672D03*
X0183577Y0020672D03*
X0183577Y0042072D03*
X0159277Y0042072D03*
D778*
X0183597Y0020705D03*
D779*
X0159312Y0020705D03*
X0183612Y0042005D03*
D780*
X0159312Y0042039D03*
X0183612Y0020739D03*
D781*
X0183627Y0020772D03*
X0159327Y0020739D03*
X0183627Y0041972D03*
D782*
X0159347Y0041972D03*
X0159347Y0020772D03*
D783*
X0183647Y0020805D03*
D784*
X0159362Y0020805D03*
D785*
X0159377Y0020839D03*
X0183677Y0020839D03*
D786*
X0183697Y0020872D03*
X0159397Y0020872D03*
X0159397Y0041872D03*
X0183697Y0041872D03*
D787*
X0183712Y0020905D03*
X0159412Y0020905D03*
D788*
X0159427Y0020939D03*
X0183727Y0020939D03*
D789*
X0183747Y0020972D03*
X0159447Y0020972D03*
X0159447Y0041772D03*
X0183747Y0041772D03*
D790*
X0183762Y0021005D03*
X0159462Y0021005D03*
D791*
X0159477Y0021039D03*
X0183777Y0021039D03*
D792*
X0183797Y0021072D03*
X0159497Y0021072D03*
X0159497Y0041672D03*
X0183797Y0041672D03*
D793*
X0183812Y0021105D03*
X0159512Y0021105D03*
D794*
X0159527Y0021139D03*
X0183827Y0021139D03*
D795*
X0183847Y0021172D03*
X0183847Y0041572D03*
D796*
X0183862Y0041539D03*
X0159562Y0041572D03*
X0159562Y0021172D03*
D797*
X0183862Y0021205D03*
D798*
X0159577Y0021205D03*
X0183877Y0041505D03*
D799*
X0159577Y0041539D03*
X0183877Y0021239D03*
D800*
X0183897Y0021272D03*
X0159597Y0021239D03*
X0183897Y0041472D03*
D801*
X0183912Y0041439D03*
X0159612Y0041472D03*
X0159612Y0021272D03*
D802*
X0183912Y0021305D03*
D803*
X0159627Y0021305D03*
X0183927Y0041405D03*
D804*
X0159627Y0041439D03*
X0183927Y0021339D03*
D805*
X0159647Y0021339D03*
D806*
X0184827Y0021372D03*
X0184827Y0041372D03*
D807*
X0178297Y0021405D03*
X0153997Y0021405D03*
D808*
X0160992Y0021439D03*
X0185292Y0021439D03*
X0182662Y0043439D03*
D809*
X0185427Y0041272D03*
X0161127Y0041272D03*
X0161127Y0021472D03*
X0185427Y0021472D03*
D810*
X0185562Y0021505D03*
X0161262Y0021505D03*
X0158162Y0043705D03*
D811*
X0161462Y0041172D03*
X0185762Y0041172D03*
X0185762Y0021572D03*
X0161462Y0021572D03*
D812*
X0161562Y0021605D03*
X0185862Y0021605D03*
D813*
X0186027Y0021672D03*
X0161727Y0021672D03*
X0161727Y0041072D03*
X0186027Y0041072D03*
D814*
X0186112Y0021705D03*
X0161812Y0021705D03*
D815*
X0161962Y0021772D03*
X0186262Y0040972D03*
D816*
X0186327Y0021805D03*
D817*
X0162042Y0021805D03*
D818*
X0186392Y0021839D03*
D819*
X0162107Y0021839D03*
X0181947Y0044239D03*
D820*
X0186457Y0040872D03*
X0186457Y0021872D03*
D821*
X0162177Y0021872D03*
X0162177Y0040872D03*
D822*
X0162227Y0021905D03*
X0186527Y0021905D03*
D823*
X0186592Y0021939D03*
X0162292Y0021939D03*
D824*
X0162357Y0021972D03*
X0186657Y0021972D03*
X0186657Y0040772D03*
X0162357Y0040772D03*
D825*
X0162412Y0022005D03*
X0186712Y0022005D03*
D826*
X0186777Y0022039D03*
X0162477Y0022039D03*
X0157447Y0044439D03*
D827*
X0162542Y0040672D03*
X0186812Y0040672D03*
X0186812Y0022072D03*
X0162542Y0022072D03*
D828*
X0186877Y0022105D03*
D829*
X0162597Y0022105D03*
D830*
X0186927Y0022139D03*
D831*
X0162642Y0022139D03*
D832*
X0162797Y0022239D03*
X0187097Y0022239D03*
D833*
X0187127Y0022272D03*
D834*
X0162862Y0022272D03*
X0162862Y0040472D03*
D835*
X0187242Y0022339D03*
D836*
X0162962Y0022339D03*
D837*
X0163042Y0022405D03*
X0187342Y0022405D03*
D838*
X0187427Y0022472D03*
X0187427Y0040272D03*
D839*
X0187477Y0022505D03*
D840*
X0163192Y0022505D03*
D841*
X0163227Y0022539D03*
X0187527Y0022539D03*
X0187557Y0022572D03*
X0187557Y0040172D03*
D842*
X0163277Y0040172D03*
X0163277Y0022572D03*
D843*
X0163312Y0022605D03*
X0187612Y0022605D03*
D844*
X0163362Y0022639D03*
X0157062Y0044739D03*
X0181362Y0044739D03*
D845*
X0187692Y0040072D03*
X0163392Y0040072D03*
X0163392Y0022672D03*
X0187692Y0022672D03*
D846*
X0187742Y0022705D03*
X0163442Y0022705D03*
D847*
X0187812Y0022772D03*
X0187812Y0039972D03*
D848*
X0163527Y0039972D03*
X0163527Y0022772D03*
D849*
X0187862Y0022805D03*
X0187892Y0039905D03*
D850*
X0187947Y0039872D03*
X0163647Y0039872D03*
X0163647Y0022872D03*
X0163607Y0022839D03*
X0187947Y0022872D03*
D851*
X0187962Y0022905D03*
X0163692Y0022905D03*
D852*
X0163712Y0022939D03*
X0188012Y0022939D03*
D853*
X0188057Y0022972D03*
X0163757Y0022972D03*
X0163797Y0039739D03*
X0163757Y0039772D03*
X0188057Y0039772D03*
X0188097Y0039739D03*
D854*
X0188097Y0023005D03*
X0163797Y0023005D03*
D855*
X0188127Y0023039D03*
D856*
X0163842Y0023039D03*
D857*
X0188162Y0023072D03*
X0188162Y0039672D03*
D858*
X0163947Y0039605D03*
X0156847Y0044905D03*
X0163907Y0023105D03*
X0188207Y0023105D03*
D859*
X0188262Y0023172D03*
X0163992Y0023172D03*
X0163992Y0039572D03*
X0188262Y0039572D03*
D860*
X0188312Y0023205D03*
X0164012Y0023205D03*
D861*
X0164112Y0023305D03*
X0188412Y0023305D03*
X0188442Y0039405D03*
D862*
X0188477Y0039372D03*
X0188507Y0039339D03*
X0164207Y0039339D03*
X0188477Y0023372D03*
X0188547Y0023439D03*
D863*
X0188507Y0023405D03*
X0164207Y0023405D03*
X0188547Y0039305D03*
D864*
X0164292Y0039272D03*
X0164292Y0023472D03*
X0164262Y0023439D03*
D865*
X0188577Y0023472D03*
X0188577Y0039272D03*
D866*
X0188642Y0039205D03*
X0188612Y0023505D03*
X0164312Y0023505D03*
D867*
X0188642Y0023539D03*
X0188612Y0039239D03*
X0164312Y0039239D03*
D868*
X0164442Y0039105D03*
X0188742Y0039105D03*
X0188712Y0023605D03*
X0164412Y0023605D03*
D869*
X0164442Y0023639D03*
X0188742Y0023639D03*
X0188712Y0039139D03*
X0164412Y0039139D03*
D870*
X0188762Y0039072D03*
X0188792Y0039039D03*
X0188762Y0023672D03*
D871*
X0188792Y0023705D03*
D872*
X0164507Y0023705D03*
X0164547Y0039005D03*
X0188807Y0039005D03*
D873*
X0164577Y0038972D03*
X0164507Y0039039D03*
X0164547Y0023739D03*
X0188807Y0023739D03*
D874*
X0188862Y0023772D03*
X0164562Y0023772D03*
X0164592Y0038939D03*
X0188862Y0038972D03*
X0188892Y0038939D03*
D875*
X0188892Y0023805D03*
X0164592Y0023805D03*
D876*
X0188912Y0023839D03*
X0188942Y0023872D03*
X0188942Y0038872D03*
X0180912Y0045039D03*
D877*
X0156627Y0045039D03*
X0164627Y0023839D03*
D878*
X0164657Y0023872D03*
X0164727Y0023939D03*
X0188997Y0023939D03*
X0189027Y0023972D03*
X0189027Y0038772D03*
X0164697Y0038839D03*
X0164657Y0038872D03*
D879*
X0188977Y0023905D03*
D880*
X0164742Y0023972D03*
X0164742Y0038772D03*
D881*
X0164792Y0038705D03*
X0189092Y0038705D03*
X0189062Y0024005D03*
X0164862Y0024105D03*
D882*
X0164777Y0024005D03*
D883*
X0164827Y0024072D03*
X0189127Y0024072D03*
X0189127Y0038672D03*
X0164827Y0038672D03*
D884*
X0164877Y0038605D03*
X0189177Y0038605D03*
X0189147Y0024105D03*
D885*
X0189177Y0024139D03*
X0164907Y0024172D03*
X0164877Y0024139D03*
X0164907Y0038572D03*
X0189147Y0038639D03*
D886*
X0189192Y0038572D03*
X0164992Y0038472D03*
X0164992Y0024272D03*
X0164962Y0024239D03*
X0189192Y0024172D03*
X0189262Y0024239D03*
D887*
X0189227Y0024205D03*
X0164927Y0024205D03*
D888*
X0189277Y0024272D03*
X0189277Y0038472D03*
D889*
X0180812Y0045105D03*
X0165042Y0038405D03*
X0156512Y0045105D03*
X0165012Y0024305D03*
X0189312Y0024305D03*
D890*
X0189327Y0024339D03*
X0189357Y0024372D03*
X0165057Y0024372D03*
X0165097Y0038339D03*
X0165057Y0038372D03*
X0189357Y0038372D03*
D891*
X0189377Y0024405D03*
D892*
X0165097Y0024405D03*
X0189327Y0038405D03*
D893*
X0165142Y0038272D03*
X0165142Y0024472D03*
X0165112Y0024439D03*
X0189412Y0024439D03*
D894*
X0189427Y0024472D03*
X0165227Y0024572D03*
X0165227Y0038172D03*
X0189427Y0038272D03*
D895*
X0189492Y0038205D03*
X0165192Y0038205D03*
X0165162Y0024505D03*
X0189462Y0024505D03*
D896*
X0189492Y0024539D03*
X0165192Y0024539D03*
X0165162Y0038239D03*
X0189462Y0038239D03*
D897*
X0189507Y0038172D03*
X0189547Y0038139D03*
X0189577Y0038072D03*
X0180747Y0045139D03*
X0165247Y0038139D03*
X0156447Y0045139D03*
X0165277Y0024639D03*
X0189507Y0024572D03*
X0189547Y0024639D03*
X0189577Y0024672D03*
D898*
X0165362Y0024772D03*
X0165292Y0024672D03*
X0165362Y0037972D03*
X0165292Y0038072D03*
X0189592Y0038039D03*
D899*
X0189592Y0024705D03*
D900*
X0165327Y0024705D03*
X0189627Y0038005D03*
D901*
X0165327Y0038039D03*
X0189627Y0024739D03*
D902*
X0189642Y0024772D03*
X0165412Y0024839D03*
X0165342Y0024739D03*
X0189642Y0037972D03*
D903*
X0189677Y0024805D03*
X0165377Y0024805D03*
D904*
X0165457Y0024905D03*
X0189727Y0024905D03*
X0189757Y0037805D03*
X0189697Y0037905D03*
D905*
X0189812Y0037739D03*
X0165512Y0037739D03*
X0165512Y0037772D03*
X0165542Y0025039D03*
X0165512Y0024972D03*
D906*
X0165512Y0025005D03*
X0189812Y0025005D03*
X0165542Y0037705D03*
D907*
X0165627Y0037572D03*
X0165627Y0025172D03*
X0189827Y0025039D03*
D908*
X0189862Y0025105D03*
X0165592Y0025105D03*
X0189892Y0037605D03*
D909*
X0189907Y0037572D03*
X0189947Y0037539D03*
X0189977Y0037472D03*
X0165647Y0037539D03*
X0165677Y0025239D03*
X0165607Y0025139D03*
X0189907Y0025172D03*
X0189977Y0025272D03*
D910*
X0189947Y0025205D03*
X0165647Y0025205D03*
X0165677Y0037505D03*
X0165607Y0037605D03*
D911*
X0165692Y0037472D03*
X0165762Y0037372D03*
X0189992Y0037439D03*
X0190062Y0037339D03*
X0189962Y0025239D03*
X0165762Y0025372D03*
X0165692Y0025272D03*
D912*
X0189992Y0025305D03*
X0190062Y0025405D03*
X0189962Y0037505D03*
D913*
X0190027Y0037405D03*
X0180627Y0045205D03*
X0165727Y0037405D03*
X0156327Y0045205D03*
X0165727Y0025305D03*
D914*
X0165812Y0025439D03*
X0165812Y0025472D03*
X0190042Y0025372D03*
X0190112Y0025472D03*
X0190112Y0037272D03*
X0190042Y0037372D03*
X0165812Y0037272D03*
D915*
X0190077Y0037305D03*
X0165777Y0025405D03*
D916*
X0190077Y0025439D03*
X0165777Y0037339D03*
D917*
X0165857Y0037205D03*
X0190127Y0037205D03*
X0190197Y0037105D03*
X0190127Y0025505D03*
X0165897Y0025605D03*
X0165827Y0025505D03*
D918*
X0165857Y0025539D03*
X0165857Y0025572D03*
X0190127Y0025539D03*
X0190157Y0025572D03*
X0190197Y0025639D03*
X0190157Y0037172D03*
X0190127Y0037239D03*
X0165897Y0037139D03*
X0165857Y0037172D03*
X0165827Y0037239D03*
D919*
X0165977Y0037005D03*
X0190177Y0025605D03*
D920*
X0190212Y0025672D03*
X0165942Y0025672D03*
X0165912Y0025639D03*
X0165942Y0037039D03*
X0165942Y0037072D03*
X0190212Y0037072D03*
X0190242Y0037039D03*
D921*
X0165912Y0037105D03*
X0165942Y0025705D03*
X0190242Y0025705D03*
D922*
X0190262Y0025739D03*
X0165992Y0025772D03*
X0166062Y0036839D03*
X0165992Y0036939D03*
X0165992Y0036972D03*
X0156262Y0045239D03*
X0190292Y0036939D03*
D923*
X0190277Y0036972D03*
X0190177Y0037139D03*
X0190277Y0025772D03*
X0165977Y0025739D03*
D924*
X0166047Y0025872D03*
X0166077Y0025939D03*
X0166107Y0036739D03*
X0166047Y0036872D03*
X0180547Y0045239D03*
X0190347Y0036839D03*
X0190377Y0036772D03*
X0190407Y0026039D03*
X0190377Y0025972D03*
X0190377Y0025939D03*
X0190307Y0025839D03*
D925*
X0190327Y0025872D03*
X0166027Y0025839D03*
X0190327Y0036872D03*
D926*
X0190392Y0036739D03*
X0190462Y0036639D03*
X0190462Y0026139D03*
X0166192Y0026139D03*
X0166192Y0026172D03*
X0166162Y0026072D03*
X0166092Y0025972D03*
X0166192Y0036572D03*
X0166162Y0036639D03*
X0166162Y0036672D03*
X0166092Y0036772D03*
D927*
X0166192Y0036605D03*
X0166162Y0026105D03*
X0190392Y0026005D03*
X0190462Y0026105D03*
X0190462Y0036605D03*
D928*
X0190427Y0036672D03*
X0190427Y0026072D03*
X0166127Y0026039D03*
D929*
X0166277Y0026339D03*
X0190477Y0026172D03*
X0190477Y0036572D03*
D930*
X0190512Y0036505D03*
X0190542Y0026305D03*
X0190512Y0026205D03*
X0166212Y0026205D03*
X0166242Y0036505D03*
D931*
X0166242Y0036472D03*
X0166212Y0036539D03*
X0166242Y0026272D03*
X0166242Y0026239D03*
X0190512Y0026239D03*
X0190542Y0026272D03*
X0190542Y0036439D03*
X0190542Y0036472D03*
X0190512Y0036539D03*
D932*
X0190557Y0036405D03*
X0190627Y0036305D03*
X0190657Y0036205D03*
X0190597Y0026405D03*
X0166357Y0026505D03*
X0166327Y0026405D03*
X0166257Y0026305D03*
X0166327Y0036305D03*
D933*
X0166342Y0036272D03*
X0166412Y0036139D03*
X0166442Y0036039D03*
X0166412Y0026639D03*
X0166342Y0026472D03*
X0190712Y0026639D03*
X0190712Y0026672D03*
X0190642Y0036239D03*
D934*
X0190712Y0036105D03*
X0190642Y0026505D03*
X0166442Y0026705D03*
X0166412Y0026605D03*
X0166412Y0036105D03*
D935*
X0166377Y0036205D03*
X0190677Y0026605D03*
D936*
X0190727Y0036039D03*
X0190727Y0036072D03*
X0166427Y0036072D03*
X0166427Y0026672D03*
D937*
X0190727Y0026705D03*
D938*
X0190762Y0026739D03*
X0190762Y0026772D03*
X0190792Y0026839D03*
X0190762Y0035972D03*
X0166492Y0035939D03*
X0166462Y0026772D03*
X0166462Y0026739D03*
D939*
X0166492Y0026805D03*
X0166462Y0036005D03*
X0190762Y0036005D03*
X0190792Y0035905D03*
D940*
X0190807Y0035872D03*
X0190807Y0035839D03*
X0190847Y0035772D03*
X0190777Y0035939D03*
X0190877Y0027039D03*
X0190847Y0026972D03*
X0190847Y0026939D03*
X0190807Y0026872D03*
X0166577Y0027039D03*
X0166547Y0026972D03*
X0166547Y0026939D03*
X0166507Y0026872D03*
X0166507Y0026839D03*
X0166607Y0035639D03*
X0166577Y0035739D03*
X0166547Y0035772D03*
X0166547Y0035839D03*
X0166507Y0035872D03*
X0166477Y0035972D03*
D941*
X0166662Y0035505D03*
X0166692Y0027305D03*
X0166662Y0027205D03*
X0190862Y0027005D03*
X0190892Y0027105D03*
X0190962Y0035505D03*
D942*
X0190962Y0035472D03*
X0190892Y0035639D03*
X0190892Y0035672D03*
X0190862Y0035739D03*
X0190962Y0027272D03*
X0190962Y0027239D03*
X0190892Y0027072D03*
X0166662Y0027239D03*
X0166592Y0027072D03*
X0166692Y0035439D03*
X0166662Y0035539D03*
X0166592Y0035672D03*
D943*
X0166627Y0035572D03*
X0166627Y0027172D03*
X0166627Y0027139D03*
X0190927Y0027139D03*
X0190927Y0027172D03*
X0190927Y0035539D03*
X0190927Y0035572D03*
D944*
X0190927Y0035605D03*
X0190927Y0027205D03*
X0166627Y0035605D03*
D945*
X0166677Y0035472D03*
X0166777Y0027539D03*
X0166677Y0027272D03*
X0190977Y0027339D03*
X0190977Y0035439D03*
D946*
X0190977Y0035405D03*
X0190977Y0027305D03*
X0166777Y0035205D03*
D947*
X0166742Y0035305D03*
X0166712Y0035405D03*
X0166712Y0027405D03*
X0191012Y0027405D03*
X0191042Y0027505D03*
X0180412Y0045305D03*
X0156112Y0045305D03*
D948*
X0166797Y0035105D03*
X0166857Y0027805D03*
X0166827Y0027705D03*
X0166797Y0027605D03*
X0166757Y0027505D03*
X0191097Y0027605D03*
X0191157Y0034905D03*
X0191127Y0035005D03*
X0191097Y0035105D03*
X0191057Y0035205D03*
X0191027Y0035305D03*
D949*
X0191212Y0028005D03*
X0191142Y0027805D03*
X0191112Y0027705D03*
X0166912Y0034805D03*
X0166842Y0035005D03*
D950*
X0166842Y0034972D03*
X0166912Y0034772D03*
X0166942Y0034672D03*
X0166942Y0028072D03*
X0166912Y0027972D03*
X0166912Y0027939D03*
X0166842Y0027772D03*
X0166842Y0027739D03*
X0191142Y0027772D03*
X0191212Y0027972D03*
X0191212Y0034739D03*
X0191212Y0034772D03*
X0191142Y0034939D03*
X0191142Y0034972D03*
X0191112Y0035039D03*
D951*
X0191177Y0034872D03*
X0191177Y0034839D03*
X0191177Y0027872D03*
X0166877Y0027872D03*
X0166877Y0027839D03*
X0166877Y0034872D03*
D952*
X0166877Y0034905D03*
X0191177Y0027905D03*
D953*
X0191262Y0028205D03*
X0191292Y0028305D03*
X0191262Y0034605D03*
X0191192Y0034805D03*
X0166992Y0034505D03*
X0166962Y0034605D03*
X0167062Y0028505D03*
X0166992Y0028205D03*
X0166962Y0028105D03*
X0166892Y0027905D03*
D954*
X0166962Y0028139D03*
X0166962Y0028172D03*
X0166992Y0028239D03*
X0166992Y0028272D03*
X0167062Y0034239D03*
X0166992Y0034472D03*
X0166992Y0034539D03*
X0166962Y0034572D03*
X0166962Y0034639D03*
X0166892Y0034839D03*
X0191262Y0034572D03*
X0191262Y0034539D03*
X0191292Y0034472D03*
X0191292Y0034439D03*
X0191292Y0028272D03*
X0191262Y0028172D03*
X0191262Y0028139D03*
X0191192Y0027939D03*
D955*
X0191227Y0028105D03*
X0191227Y0034705D03*
X0166927Y0034705D03*
X0166927Y0028005D03*
D956*
X0166927Y0028039D03*
X0167027Y0028372D03*
X0167027Y0034372D03*
X0166927Y0034739D03*
X0191227Y0034672D03*
X0191227Y0034639D03*
X0191227Y0028072D03*
X0191227Y0028039D03*
D957*
X0191277Y0028239D03*
X0191307Y0028339D03*
X0191307Y0028372D03*
X0191347Y0028439D03*
X0191347Y0028472D03*
X0191347Y0028539D03*
X0191377Y0028572D03*
X0191377Y0028639D03*
X0191407Y0028772D03*
X0191407Y0033972D03*
X0191377Y0034139D03*
X0191377Y0034172D03*
X0191347Y0034239D03*
X0191347Y0034272D03*
X0191307Y0034339D03*
X0191307Y0034372D03*
X0167107Y0034072D03*
X0167107Y0034039D03*
X0167077Y0034139D03*
X0167077Y0034172D03*
X0167047Y0034272D03*
X0167047Y0034339D03*
X0167007Y0034439D03*
X0167107Y0028672D03*
X0167077Y0028572D03*
X0167077Y0028539D03*
X0167047Y0028472D03*
X0167047Y0028439D03*
X0167007Y0028339D03*
X0156047Y0045339D03*
D958*
X0167162Y0033872D03*
X0167162Y0033839D03*
X0167162Y0033772D03*
X0167192Y0033672D03*
X0167192Y0033639D03*
X0167192Y0029072D03*
X0167162Y0028972D03*
X0167162Y0028939D03*
X0167162Y0028872D03*
X0167092Y0028639D03*
X0191392Y0028672D03*
X0191392Y0028739D03*
X0191462Y0028939D03*
X0191462Y0028972D03*
X0191462Y0029039D03*
X0191492Y0029139D03*
X0191492Y0029172D03*
X0191492Y0033572D03*
X0191462Y0033739D03*
X0191462Y0033772D03*
X0191392Y0034039D03*
X0191392Y0034072D03*
D959*
X0191392Y0034005D03*
X0191462Y0033805D03*
X0191462Y0033705D03*
X0191492Y0033605D03*
X0191462Y0029005D03*
X0191392Y0028705D03*
X0167192Y0029105D03*
X0167162Y0028905D03*
X0167162Y0033805D03*
X0167092Y0034105D03*
D960*
X0167127Y0033972D03*
X0167127Y0033939D03*
X0167127Y0028839D03*
X0167127Y0028772D03*
X0167127Y0028739D03*
X0191427Y0028839D03*
X0191427Y0028872D03*
X0191427Y0033839D03*
X0191427Y0033872D03*
X0191427Y0033939D03*
X0180327Y0045339D03*
D961*
X0191577Y0033105D03*
X0191477Y0029105D03*
X0167177Y0029005D03*
X0167177Y0033705D03*
D962*
X0167177Y0033739D03*
X0167177Y0029039D03*
X0191477Y0029072D03*
X0191577Y0029639D03*
X0191577Y0029672D03*
X0191577Y0033072D03*
X0191477Y0033639D03*
X0191477Y0033672D03*
D963*
X0191512Y0033539D03*
X0191512Y0033472D03*
X0191512Y0033439D03*
X0191542Y0033372D03*
X0191542Y0033339D03*
X0191542Y0033272D03*
X0191542Y0033239D03*
X0191612Y0032839D03*
X0191542Y0029472D03*
X0191542Y0029439D03*
X0191542Y0029372D03*
X0191512Y0029339D03*
X0191512Y0029272D03*
X0191512Y0029239D03*
X0167212Y0029172D03*
X0167212Y0029139D03*
X0167212Y0033539D03*
X0167212Y0033572D03*
D964*
X0167212Y0033605D03*
X0167212Y0029205D03*
X0191512Y0029205D03*
X0191512Y0029305D03*
X0191542Y0029405D03*
X0191542Y0029505D03*
X0191612Y0029905D03*
X0191542Y0033305D03*
X0191512Y0033405D03*
X0191512Y0033505D03*
D965*
X0163042Y0029239D03*
D966*
X0163057Y0029272D03*
X0163057Y0029339D03*
X0163057Y0029372D03*
X0163057Y0029439D03*
X0163057Y0029472D03*
X0163057Y0033272D03*
X0163057Y0033339D03*
X0163057Y0033372D03*
X0163057Y0033439D03*
X0163057Y0033472D03*
D967*
X0163057Y0033405D03*
X0163057Y0033305D03*
X0163057Y0029405D03*
X0163057Y0029305D03*
D968*
X0163077Y0029505D03*
X0163077Y0029605D03*
X0163077Y0029705D03*
X0163077Y0033005D03*
X0163077Y0033105D03*
X0163077Y0033205D03*
D969*
X0191557Y0033172D03*
X0191557Y0033139D03*
X0191597Y0033039D03*
X0191597Y0032972D03*
X0191597Y0032939D03*
X0191597Y0032872D03*
X0191627Y0032772D03*
X0191627Y0032739D03*
X0191627Y0032672D03*
X0191627Y0032639D03*
X0191657Y0032472D03*
X0191657Y0032439D03*
X0191657Y0032372D03*
X0191657Y0032339D03*
X0191657Y0032272D03*
X0191697Y0031839D03*
X0191697Y0031772D03*
X0191697Y0031739D03*
X0191697Y0031039D03*
X0191697Y0030972D03*
X0191697Y0030939D03*
X0191657Y0030472D03*
X0191657Y0030439D03*
X0191657Y0030372D03*
X0191657Y0030339D03*
X0191657Y0030272D03*
X0191627Y0030139D03*
X0191627Y0030072D03*
X0191627Y0030039D03*
X0191627Y0029972D03*
X0191627Y0029939D03*
X0191597Y0029872D03*
X0191597Y0029839D03*
X0191597Y0029772D03*
X0191597Y0029739D03*
X0191557Y0029572D03*
X0191557Y0029539D03*
D970*
X0163077Y0029539D03*
X0163077Y0029572D03*
X0163077Y0029639D03*
X0163077Y0029672D03*
X0163077Y0029739D03*
X0163077Y0029772D03*
X0163077Y0033039D03*
X0163077Y0033072D03*
X0163077Y0033139D03*
X0163077Y0033172D03*
X0163077Y0033239D03*
D971*
X0191557Y0033205D03*
X0191597Y0033005D03*
X0191597Y0032905D03*
X0191627Y0032805D03*
X0191627Y0032705D03*
X0191627Y0032605D03*
X0191657Y0032405D03*
X0191657Y0032305D03*
X0191697Y0031805D03*
X0191697Y0031705D03*
X0191697Y0031005D03*
X0191697Y0030905D03*
X0191657Y0030405D03*
X0191657Y0030305D03*
X0191627Y0030105D03*
X0191627Y0030005D03*
X0191597Y0029805D03*
X0191597Y0029705D03*
X0191557Y0029605D03*
D972*
X0163092Y0029805D03*
X0163092Y0029905D03*
X0163092Y0030005D03*
X0163092Y0030105D03*
X0163092Y0032705D03*
X0163092Y0032805D03*
X0163092Y0032905D03*
D973*
X0163092Y0032872D03*
X0163092Y0032839D03*
X0163092Y0032772D03*
X0163092Y0032739D03*
X0163092Y0032672D03*
X0163092Y0032639D03*
X0163092Y0032939D03*
X0163092Y0032972D03*
X0163092Y0030072D03*
X0163092Y0030039D03*
X0163092Y0029972D03*
X0163092Y0029939D03*
X0163092Y0029872D03*
X0163092Y0029839D03*
D974*
X0163107Y0030139D03*
X0163107Y0030172D03*
X0163107Y0030239D03*
X0163107Y0030272D03*
X0163107Y0030339D03*
X0163107Y0030372D03*
X0163107Y0030439D03*
X0163107Y0030472D03*
X0163107Y0030539D03*
X0163107Y0032239D03*
X0163107Y0032272D03*
X0163107Y0032339D03*
X0163107Y0032372D03*
X0163107Y0032439D03*
X0163107Y0032472D03*
X0163107Y0032539D03*
X0163107Y0032572D03*
D975*
X0191642Y0032572D03*
X0191642Y0032539D03*
X0191712Y0031672D03*
X0191712Y0031639D03*
X0191712Y0031572D03*
X0191712Y0031539D03*
X0191712Y0031472D03*
X0191712Y0031439D03*
X0191712Y0031372D03*
X0191712Y0031339D03*
X0191712Y0031272D03*
X0191712Y0031239D03*
X0191712Y0031172D03*
X0191712Y0031139D03*
X0191712Y0031072D03*
X0191642Y0030239D03*
X0191642Y0030172D03*
D976*
X0191642Y0030205D03*
X0191712Y0031105D03*
X0191712Y0031205D03*
X0191712Y0031305D03*
X0191712Y0031405D03*
X0191712Y0031505D03*
X0191712Y0031605D03*
X0191642Y0032505D03*
D977*
X0163107Y0032505D03*
X0163107Y0032405D03*
X0163107Y0032305D03*
X0163107Y0032205D03*
X0163107Y0032605D03*
X0163107Y0030505D03*
X0163107Y0030405D03*
X0163107Y0030305D03*
X0163107Y0030205D03*
D978*
X0191677Y0030505D03*
X0191677Y0030605D03*
X0191677Y0030705D03*
X0191677Y0030805D03*
X0191677Y0031905D03*
X0191677Y0032005D03*
X0191677Y0032105D03*
X0191677Y0032205D03*
D979*
X0191677Y0032172D03*
X0191677Y0032139D03*
X0191677Y0032072D03*
X0191677Y0032039D03*
X0191677Y0031972D03*
X0191677Y0031939D03*
X0191677Y0031872D03*
X0191677Y0032239D03*
X0191677Y0030872D03*
X0191677Y0030839D03*
X0191677Y0030772D03*
X0191677Y0030739D03*
X0191677Y0030672D03*
X0191677Y0030639D03*
X0191677Y0030572D03*
X0191677Y0030539D03*
D980*
X0163127Y0030572D03*
X0163127Y0030639D03*
X0163127Y0030672D03*
X0163127Y0030739D03*
X0163127Y0030772D03*
X0163127Y0030839D03*
X0163127Y0030872D03*
X0163127Y0030939D03*
X0163127Y0030972D03*
X0163127Y0031039D03*
X0163127Y0031072D03*
X0163127Y0031139D03*
X0163127Y0031172D03*
X0163127Y0031239D03*
X0163127Y0031272D03*
X0163127Y0031339D03*
X0163127Y0031372D03*
X0163127Y0031439D03*
X0163127Y0031472D03*
X0163127Y0031539D03*
X0163127Y0031572D03*
X0163127Y0031639D03*
X0163127Y0031672D03*
X0163127Y0031739D03*
X0163127Y0031772D03*
X0163127Y0031839D03*
X0163127Y0031872D03*
X0163127Y0031939D03*
X0163127Y0031972D03*
X0163127Y0032039D03*
X0163127Y0032072D03*
X0163127Y0032139D03*
X0163127Y0032172D03*
D981*
X0163127Y0032105D03*
X0163127Y0032005D03*
X0163127Y0031905D03*
X0163127Y0031805D03*
X0163127Y0031705D03*
X0163127Y0031605D03*
X0163127Y0031505D03*
X0163127Y0031405D03*
X0163127Y0031305D03*
X0163127Y0031205D03*
X0163127Y0031105D03*
X0163127Y0031005D03*
X0163127Y0030905D03*
X0163127Y0030805D03*
X0163127Y0030705D03*
X0163127Y0030605D03*
D982*
X0163042Y0033505D03*
D983*
X0166277Y0036405D03*
D984*
X0166127Y0036705D03*
D985*
X0166027Y0036905D03*
D986*
X0165812Y0037305D03*
D987*
X0189827Y0037705D03*
D988*
X0165477Y0037805D03*
D989*
X0165412Y0037905D03*
X0165342Y0038005D03*
D990*
X0165377Y0037939D03*
X0189677Y0037939D03*
D991*
X0189412Y0038305D03*
X0165112Y0038305D03*
D992*
X0189377Y0038339D03*
D993*
X0189262Y0038505D03*
X0164962Y0038505D03*
D994*
X0164927Y0038539D03*
X0189227Y0038539D03*
D995*
X0164777Y0038739D03*
D996*
X0188977Y0038839D03*
D997*
X0164357Y0039205D03*
D998*
X0164162Y0039405D03*
D999*
X0164057Y0039505D03*
X0188327Y0039505D03*
D1000*
X0188312Y0039539D03*
X0164012Y0039539D03*
D1001*
X0181127Y0044905D03*
X0188227Y0039605D03*
D1002*
X0188127Y0039705D03*
D1003*
X0163842Y0039705D03*
D1004*
X0163712Y0039805D03*
X0188012Y0039805D03*
D1005*
X0163607Y0039905D03*
D1006*
X0187777Y0040005D03*
D1007*
X0163497Y0040005D03*
D1008*
X0187647Y0040105D03*
D1009*
X0187612Y0040139D03*
D1010*
X0163327Y0040139D03*
D1011*
X0163227Y0040205D03*
X0187527Y0040205D03*
D1012*
X0187342Y0040339D03*
X0163042Y0040339D03*
D1013*
X0187242Y0040405D03*
D1014*
X0162962Y0040405D03*
D1015*
X0187142Y0040472D03*
D1016*
X0187097Y0040505D03*
X0162797Y0040505D03*
D1017*
X0162742Y0040539D03*
X0181612Y0044539D03*
X0187042Y0040539D03*
D1018*
X0186927Y0040605D03*
D1019*
X0162642Y0040605D03*
D1020*
X0186877Y0040639D03*
D1021*
X0186777Y0040705D03*
X0162477Y0040705D03*
D1022*
X0162292Y0040805D03*
X0186592Y0040805D03*
D1023*
X0186527Y0040839D03*
X0162227Y0040839D03*
D1024*
X0186327Y0040939D03*
D1025*
X0162042Y0040939D03*
D1026*
X0161977Y0040972D03*
D1027*
X0161642Y0041105D03*
X0185942Y0041105D03*
D1028*
X0185862Y0041139D03*
X0161562Y0041139D03*
D1029*
X0161357Y0041205D03*
X0185657Y0041205D03*
D1030*
X0161012Y0041305D03*
D1031*
X0160842Y0041339D03*
X0158512Y0043272D03*
X0185112Y0041339D03*
D1032*
X0159647Y0041405D03*
D1033*
X0159597Y0041505D03*
D1034*
X0159527Y0041605D03*
X0183827Y0041605D03*
D1035*
X0183812Y0041639D03*
X0159512Y0041639D03*
D1036*
X0159477Y0041705D03*
X0183777Y0041705D03*
D1037*
X0183762Y0041739D03*
X0159462Y0041739D03*
D1038*
X0159427Y0041805D03*
X0183727Y0041805D03*
D1039*
X0183712Y0041839D03*
X0159412Y0041839D03*
D1040*
X0159377Y0041905D03*
X0183677Y0041905D03*
D1041*
X0183662Y0041939D03*
X0159362Y0041939D03*
D1042*
X0159327Y0042005D03*
D1043*
X0183597Y0042039D03*
D1044*
X0183562Y0042105D03*
X0159262Y0042105D03*
D1045*
X0159247Y0042139D03*
X0183547Y0042139D03*
D1046*
X0159212Y0042205D03*
D1047*
X0183477Y0042239D03*
D1048*
X0183447Y0042305D03*
X0159147Y0042305D03*
D1049*
X0159127Y0042339D03*
X0183427Y0042339D03*
D1050*
X0183377Y0042405D03*
D1051*
X0159097Y0042405D03*
D1052*
X0159062Y0042439D03*
X0183362Y0042439D03*
D1053*
X0183327Y0042505D03*
X0159027Y0042505D03*
D1054*
X0183297Y0042539D03*
D1055*
X0159012Y0042539D03*
D1056*
X0158962Y0042605D03*
X0183262Y0042605D03*
D1057*
X0183247Y0042639D03*
X0158947Y0042639D03*
D1058*
X0158897Y0042705D03*
X0183197Y0042705D03*
D1059*
X0183177Y0042739D03*
X0158877Y0042739D03*
D1060*
X0158827Y0042805D03*
X0183127Y0042805D03*
D1061*
X0183112Y0042839D03*
X0158812Y0042839D03*
D1062*
X0158762Y0042905D03*
X0183062Y0042905D03*
D1063*
X0183047Y0042939D03*
X0158747Y0042939D03*
D1064*
X0158697Y0043005D03*
X0182997Y0043005D03*
D1065*
X0182962Y0043039D03*
D1066*
X0158677Y0043039D03*
D1067*
X0182912Y0043105D03*
D1068*
X0158627Y0043105D03*
D1069*
X0158597Y0043139D03*
X0182897Y0043139D03*
D1070*
X0182847Y0043205D03*
D1071*
X0158562Y0043205D03*
D1072*
X0158527Y0043239D03*
X0182827Y0043239D03*
D1073*
X0182777Y0043305D03*
X0158477Y0043305D03*
D1074*
X0158397Y0043405D03*
X0182697Y0043405D03*
D1075*
X0158377Y0043439D03*
D1076*
X0182612Y0043505D03*
D1077*
X0182597Y0043539D03*
X0158297Y0043539D03*
D1078*
X0182527Y0043605D03*
D1079*
X0182512Y0043639D03*
X0158212Y0043639D03*
D1080*
X0182447Y0043705D03*
D1081*
X0182427Y0043739D03*
X0158127Y0043739D03*
D1082*
X0158062Y0043805D03*
X0182362Y0043805D03*
D1083*
X0182327Y0043839D03*
D1084*
X0158047Y0043839D03*
D1085*
X0157977Y0043905D03*
X0182277Y0043905D03*
D1086*
X0182247Y0043939D03*
X0157947Y0043939D03*
D1087*
X0157877Y0044005D03*
X0182177Y0044005D03*
D1088*
X0182147Y0044039D03*
D1089*
X0157862Y0044039D03*
D1090*
X0157797Y0044105D03*
D1091*
X0182047Y0044139D03*
D1092*
X0181977Y0044205D03*
D1093*
X0157697Y0044205D03*
D1094*
X0157662Y0044239D03*
D1095*
X0157577Y0044305D03*
X0181877Y0044305D03*
D1096*
X0181847Y0044339D03*
X0157547Y0044339D03*
D1097*
X0181762Y0044405D03*
D1098*
X0157477Y0044405D03*
D1099*
X0181727Y0044439D03*
D1100*
X0181662Y0044505D03*
X0157362Y0044505D03*
D1101*
X0157327Y0044539D03*
D1102*
X0181527Y0044605D03*
D1103*
X0181412Y0044705D03*
X0157112Y0044705D03*
D1104*
X0156927Y0044839D03*
X0181227Y0044839D03*
D1105*
X0180162Y0045405D03*
D1106*
X0155877Y0045405D03*
D1107*
X0155777Y0045439D03*
X0180077Y0045439D03*
D1108*
X0179727Y0045539D03*
D1109*
X0155277Y0045639D03*
D1110*
X0157776Y0047031D02*
X0157776Y0060810D01*
X0147343Y0060810D01*
X0147343Y0047031D01*
X0157776Y0047031D01*
X0152853Y0040941D02*
X0152431Y0040941D01*
X0152853Y0040940D02*
X0152892Y0040938D01*
X0152931Y0040933D01*
X0152968Y0040924D01*
X0153005Y0040912D01*
X0153041Y0040896D01*
X0153075Y0040877D01*
X0153107Y0040855D01*
X0153137Y0040830D01*
X0153165Y0040802D01*
X0153190Y0040772D01*
X0153212Y0040740D01*
X0153231Y0040706D01*
X0153247Y0040670D01*
X0153259Y0040633D01*
X0153268Y0040596D01*
X0153273Y0040557D01*
X0153275Y0040518D01*
X0153275Y0039463D01*
X0153273Y0039424D01*
X0153268Y0039385D01*
X0153259Y0039348D01*
X0153247Y0039311D01*
X0153231Y0039275D01*
X0153212Y0039241D01*
X0153190Y0039209D01*
X0153165Y0039179D01*
X0153137Y0039151D01*
X0153107Y0039126D01*
X0153075Y0039104D01*
X0153041Y0039085D01*
X0153005Y0039069D01*
X0152968Y0039057D01*
X0152931Y0039048D01*
X0152892Y0039043D01*
X0152853Y0039041D01*
X0152431Y0039041D01*
X0151464Y0039041D02*
X0150936Y0039041D01*
X0150936Y0039040D02*
X0150891Y0039042D01*
X0150847Y0039048D01*
X0150803Y0039057D01*
X0150760Y0039070D01*
X0150719Y0039087D01*
X0150678Y0039107D01*
X0150640Y0039131D01*
X0150604Y0039157D01*
X0150571Y0039187D01*
X0150540Y0039219D01*
X0150511Y0039254D01*
X0150486Y0039291D01*
X0150465Y0039330D01*
X0150446Y0039371D01*
X0150431Y0039413D01*
X0150420Y0039457D01*
X0150412Y0039501D01*
X0150408Y0039546D01*
X0150408Y0039590D01*
X0150412Y0039635D01*
X0150420Y0039679D01*
X0150431Y0039723D01*
X0150446Y0039765D01*
X0150465Y0039806D01*
X0150486Y0039845D01*
X0150511Y0039882D01*
X0150540Y0039917D01*
X0150571Y0039949D01*
X0150604Y0039979D01*
X0150640Y0040005D01*
X0150678Y0040029D01*
X0150719Y0040049D01*
X0150760Y0040066D01*
X0150803Y0040079D01*
X0150847Y0040088D01*
X0150891Y0040094D01*
X0150936Y0040096D01*
X0150831Y0040096D02*
X0151253Y0040096D01*
X0150831Y0040096D02*
X0150791Y0040098D01*
X0150751Y0040104D01*
X0150712Y0040113D01*
X0150674Y0040126D01*
X0150638Y0040143D01*
X0150603Y0040163D01*
X0150570Y0040186D01*
X0150540Y0040213D01*
X0150512Y0040242D01*
X0150487Y0040273D01*
X0150466Y0040307D01*
X0150447Y0040343D01*
X0150432Y0040380D01*
X0150421Y0040419D01*
X0150413Y0040458D01*
X0150409Y0040498D01*
X0150409Y0040538D01*
X0150413Y0040578D01*
X0150421Y0040617D01*
X0150432Y0040656D01*
X0150447Y0040693D01*
X0150466Y0040729D01*
X0150487Y0040763D01*
X0150512Y0040794D01*
X0150540Y0040823D01*
X0150570Y0040850D01*
X0150603Y0040873D01*
X0150638Y0040893D01*
X0150674Y0040910D01*
X0150712Y0040923D01*
X0150751Y0040932D01*
X0150791Y0040938D01*
X0150831Y0040940D01*
X0150831Y0040941D02*
X0151464Y0040941D01*
X0133776Y0047031D02*
X0133776Y0060810D01*
X0123343Y0060810D01*
X0123343Y0047031D01*
X0133776Y0047031D01*
X0128010Y0041085D02*
X0128010Y0040029D01*
X0128008Y0039990D01*
X0128003Y0039951D01*
X0127994Y0039914D01*
X0127982Y0039877D01*
X0127966Y0039841D01*
X0127947Y0039807D01*
X0127925Y0039775D01*
X0127900Y0039745D01*
X0127872Y0039717D01*
X0127842Y0039692D01*
X0127810Y0039670D01*
X0127776Y0039651D01*
X0127740Y0039635D01*
X0127703Y0039623D01*
X0127666Y0039614D01*
X0127627Y0039609D01*
X0127588Y0039607D01*
X0127166Y0039607D01*
X0126199Y0039607D02*
X0125143Y0039607D01*
X0126199Y0039607D02*
X0125302Y0040663D01*
X0125618Y0041507D02*
X0125666Y0041505D01*
X0125713Y0041499D01*
X0125761Y0041490D01*
X0125807Y0041477D01*
X0125852Y0041460D01*
X0125895Y0041440D01*
X0125937Y0041417D01*
X0125977Y0041390D01*
X0126014Y0041361D01*
X0126050Y0041328D01*
X0126082Y0041293D01*
X0126112Y0041255D01*
X0126138Y0041215D01*
X0126162Y0041173D01*
X0126182Y0041130D01*
X0126198Y0041085D01*
X0125302Y0040663D02*
X0125274Y0040692D01*
X0125247Y0040724D01*
X0125224Y0040758D01*
X0125203Y0040794D01*
X0125185Y0040831D01*
X0125171Y0040870D01*
X0125159Y0040909D01*
X0125151Y0040950D01*
X0125146Y0040991D01*
X0125144Y0041032D01*
X0125143Y0041032D02*
X0125145Y0041073D01*
X0125150Y0041114D01*
X0125159Y0041155D01*
X0125172Y0041194D01*
X0125188Y0041233D01*
X0125207Y0041269D01*
X0125229Y0041304D01*
X0125254Y0041337D01*
X0125282Y0041368D01*
X0125313Y0041396D01*
X0125346Y0041421D01*
X0125380Y0041443D01*
X0125417Y0041462D01*
X0125456Y0041478D01*
X0125495Y0041491D01*
X0125536Y0041500D01*
X0125577Y0041505D01*
X0125618Y0041507D01*
X0127166Y0041507D02*
X0127588Y0041507D01*
X0127627Y0041505D01*
X0127666Y0041500D01*
X0127703Y0041491D01*
X0127740Y0041479D01*
X0127776Y0041463D01*
X0127810Y0041444D01*
X0127842Y0041422D01*
X0127872Y0041397D01*
X0127900Y0041369D01*
X0127925Y0041339D01*
X0127947Y0041307D01*
X0127966Y0041273D01*
X0127982Y0041237D01*
X0127994Y0041200D01*
X0128003Y0041163D01*
X0128008Y0041124D01*
X0128010Y0041085D01*
X0097712Y0043500D02*
X0097712Y0044556D01*
X0097711Y0044556D02*
X0097709Y0044595D01*
X0097704Y0044634D01*
X0097695Y0044671D01*
X0097683Y0044708D01*
X0097667Y0044744D01*
X0097648Y0044778D01*
X0097626Y0044810D01*
X0097601Y0044840D01*
X0097573Y0044868D01*
X0097543Y0044893D01*
X0097511Y0044915D01*
X0097477Y0044934D01*
X0097441Y0044950D01*
X0097404Y0044962D01*
X0097367Y0044971D01*
X0097328Y0044976D01*
X0097289Y0044978D01*
X0096867Y0044978D01*
X0095900Y0044450D02*
X0095900Y0044345D01*
X0095898Y0044306D01*
X0095893Y0044267D01*
X0095884Y0044230D01*
X0095872Y0044193D01*
X0095856Y0044157D01*
X0095837Y0044123D01*
X0095815Y0044091D01*
X0095790Y0044061D01*
X0095762Y0044033D01*
X0095732Y0044008D01*
X0095700Y0043986D01*
X0095666Y0043967D01*
X0095630Y0043951D01*
X0095593Y0043939D01*
X0095556Y0043930D01*
X0095517Y0043925D01*
X0095478Y0043923D01*
X0095478Y0043922D02*
X0094845Y0043922D01*
X0094845Y0044450D01*
X0094847Y0044495D01*
X0094853Y0044539D01*
X0094862Y0044583D01*
X0094875Y0044626D01*
X0094892Y0044667D01*
X0094912Y0044708D01*
X0094936Y0044746D01*
X0094962Y0044782D01*
X0094992Y0044815D01*
X0095024Y0044846D01*
X0095059Y0044875D01*
X0095096Y0044900D01*
X0095135Y0044921D01*
X0095176Y0044940D01*
X0095218Y0044955D01*
X0095262Y0044966D01*
X0095306Y0044974D01*
X0095351Y0044978D01*
X0095395Y0044978D01*
X0095440Y0044974D01*
X0095484Y0044966D01*
X0095528Y0044955D01*
X0095570Y0044940D01*
X0095611Y0044921D01*
X0095650Y0044900D01*
X0095687Y0044875D01*
X0095722Y0044846D01*
X0095754Y0044815D01*
X0095784Y0044782D01*
X0095810Y0044746D01*
X0095834Y0044708D01*
X0095854Y0044667D01*
X0095871Y0044626D01*
X0095884Y0044583D01*
X0095893Y0044539D01*
X0095899Y0044495D01*
X0095901Y0044450D01*
X0094845Y0043922D02*
X0094847Y0043867D01*
X0094852Y0043812D01*
X0094861Y0043757D01*
X0094874Y0043704D01*
X0094890Y0043651D01*
X0094909Y0043599D01*
X0094932Y0043549D01*
X0094958Y0043500D01*
X0094987Y0043453D01*
X0095019Y0043408D01*
X0095054Y0043366D01*
X0095092Y0043325D01*
X0095133Y0043287D01*
X0095175Y0043252D01*
X0095220Y0043220D01*
X0095267Y0043191D01*
X0095316Y0043165D01*
X0095366Y0043142D01*
X0095418Y0043123D01*
X0095471Y0043107D01*
X0095524Y0043094D01*
X0095579Y0043085D01*
X0095634Y0043080D01*
X0095689Y0043078D01*
X0096867Y0043078D02*
X0097289Y0043078D01*
X0097328Y0043080D01*
X0097367Y0043085D01*
X0097404Y0043094D01*
X0097441Y0043106D01*
X0097477Y0043122D01*
X0097511Y0043141D01*
X0097543Y0043163D01*
X0097573Y0043188D01*
X0097601Y0043216D01*
X0097626Y0043246D01*
X0097648Y0043278D01*
X0097667Y0043312D01*
X0097683Y0043348D01*
X0097695Y0043385D01*
X0097704Y0043422D01*
X0097709Y0043461D01*
X0097711Y0043500D01*
X0097243Y0038838D02*
X0096821Y0038838D01*
X0097243Y0038838D02*
X0097282Y0038836D01*
X0097321Y0038831D01*
X0097358Y0038822D01*
X0097395Y0038810D01*
X0097431Y0038794D01*
X0097465Y0038775D01*
X0097497Y0038753D01*
X0097527Y0038728D01*
X0097555Y0038700D01*
X0097580Y0038670D01*
X0097602Y0038638D01*
X0097621Y0038604D01*
X0097637Y0038568D01*
X0097649Y0038531D01*
X0097658Y0038494D01*
X0097663Y0038455D01*
X0097665Y0038416D01*
X0097665Y0037361D01*
X0097663Y0037322D01*
X0097658Y0037283D01*
X0097649Y0037246D01*
X0097637Y0037209D01*
X0097621Y0037173D01*
X0097602Y0037139D01*
X0097580Y0037107D01*
X0097555Y0037077D01*
X0097527Y0037049D01*
X0097497Y0037024D01*
X0097465Y0037002D01*
X0097431Y0036983D01*
X0097395Y0036967D01*
X0097358Y0036955D01*
X0097321Y0036946D01*
X0097282Y0036941D01*
X0097243Y0036939D01*
X0097243Y0036938D02*
X0096821Y0036938D01*
X0095326Y0036938D02*
X0094798Y0038838D01*
X0095854Y0038838D01*
X0095854Y0038627D01*
X0096685Y0032141D02*
X0096685Y0030241D01*
X0097213Y0030241D02*
X0096157Y0030241D01*
X0094155Y0030505D02*
X0094126Y0030569D01*
X0094099Y0030635D01*
X0094075Y0030702D01*
X0094055Y0030770D01*
X0094037Y0030839D01*
X0094023Y0030908D01*
X0094011Y0030979D01*
X0094003Y0031049D01*
X0093999Y0031120D01*
X0093997Y0031191D01*
X0095053Y0031191D02*
X0095051Y0031262D01*
X0095047Y0031333D01*
X0095039Y0031403D01*
X0095027Y0031474D01*
X0095013Y0031543D01*
X0094995Y0031612D01*
X0094975Y0031680D01*
X0094951Y0031747D01*
X0094924Y0031813D01*
X0094895Y0031877D01*
X0094525Y0032141D02*
X0094488Y0032139D01*
X0094451Y0032134D01*
X0094415Y0032125D01*
X0094379Y0032113D01*
X0094345Y0032097D01*
X0094313Y0032079D01*
X0094283Y0032057D01*
X0094255Y0032033D01*
X0094229Y0032005D01*
X0094206Y0031976D01*
X0094186Y0031945D01*
X0094169Y0031911D01*
X0094155Y0031877D01*
X0094103Y0031719D02*
X0094947Y0030663D01*
X0094525Y0030240D02*
X0094488Y0030242D01*
X0094451Y0030247D01*
X0094415Y0030256D01*
X0094379Y0030268D01*
X0094345Y0030284D01*
X0094313Y0030302D01*
X0094283Y0030324D01*
X0094255Y0030348D01*
X0094229Y0030376D01*
X0094206Y0030405D01*
X0094186Y0030436D01*
X0094169Y0030470D01*
X0094155Y0030504D01*
X0094525Y0030240D02*
X0094562Y0030242D01*
X0094599Y0030247D01*
X0094635Y0030256D01*
X0094671Y0030268D01*
X0094705Y0030284D01*
X0094737Y0030302D01*
X0094767Y0030324D01*
X0094795Y0030348D01*
X0094821Y0030376D01*
X0094844Y0030405D01*
X0094864Y0030436D01*
X0094881Y0030470D01*
X0094895Y0030504D01*
X0093997Y0031191D02*
X0093999Y0031262D01*
X0094003Y0031333D01*
X0094011Y0031403D01*
X0094023Y0031474D01*
X0094037Y0031543D01*
X0094055Y0031612D01*
X0094075Y0031680D01*
X0094099Y0031747D01*
X0094126Y0031813D01*
X0094155Y0031877D01*
X0094525Y0032141D02*
X0094562Y0032139D01*
X0094599Y0032134D01*
X0094635Y0032125D01*
X0094671Y0032113D01*
X0094705Y0032097D01*
X0094737Y0032079D01*
X0094767Y0032057D01*
X0094795Y0032032D01*
X0094821Y0032005D01*
X0094844Y0031976D01*
X0094864Y0031945D01*
X0094881Y0031911D01*
X0094895Y0031877D01*
X0095053Y0031191D02*
X0095051Y0031120D01*
X0095047Y0031049D01*
X0095039Y0030979D01*
X0095027Y0030908D01*
X0095013Y0030839D01*
X0094995Y0030770D01*
X0094975Y0030702D01*
X0094951Y0030635D01*
X0094924Y0030569D01*
X0094895Y0030505D01*
X0096685Y0032141D02*
X0097213Y0031719D01*
X0098180Y0032141D02*
X0098602Y0032141D01*
X0098641Y0032139D01*
X0098680Y0032134D01*
X0098717Y0032125D01*
X0098754Y0032113D01*
X0098790Y0032097D01*
X0098824Y0032078D01*
X0098856Y0032056D01*
X0098886Y0032031D01*
X0098914Y0032003D01*
X0098939Y0031973D01*
X0098961Y0031941D01*
X0098980Y0031907D01*
X0098996Y0031871D01*
X0099008Y0031834D01*
X0099017Y0031797D01*
X0099022Y0031758D01*
X0099024Y0031719D01*
X0099024Y0030663D01*
X0099022Y0030624D01*
X0099017Y0030585D01*
X0099008Y0030548D01*
X0098996Y0030511D01*
X0098980Y0030475D01*
X0098961Y0030441D01*
X0098939Y0030409D01*
X0098914Y0030379D01*
X0098886Y0030351D01*
X0098856Y0030326D01*
X0098824Y0030304D01*
X0098790Y0030285D01*
X0098754Y0030269D01*
X0098717Y0030257D01*
X0098680Y0030248D01*
X0098641Y0030243D01*
X0098602Y0030241D01*
X0098180Y0030241D01*
X0096917Y0049543D02*
X0096495Y0049543D01*
X0096917Y0049543D02*
X0096956Y0049545D01*
X0096995Y0049550D01*
X0097032Y0049559D01*
X0097069Y0049571D01*
X0097105Y0049587D01*
X0097139Y0049606D01*
X0097171Y0049628D01*
X0097201Y0049653D01*
X0097229Y0049681D01*
X0097254Y0049711D01*
X0097276Y0049743D01*
X0097295Y0049777D01*
X0097311Y0049813D01*
X0097323Y0049850D01*
X0097332Y0049887D01*
X0097337Y0049926D01*
X0097339Y0049965D01*
X0097340Y0049965D02*
X0097340Y0051021D01*
X0097339Y0051021D02*
X0097337Y0051060D01*
X0097332Y0051099D01*
X0097323Y0051136D01*
X0097311Y0051173D01*
X0097295Y0051209D01*
X0097276Y0051243D01*
X0097254Y0051275D01*
X0097229Y0051305D01*
X0097201Y0051333D01*
X0097171Y0051358D01*
X0097139Y0051380D01*
X0097105Y0051399D01*
X0097069Y0051415D01*
X0097032Y0051427D01*
X0096995Y0051436D01*
X0096956Y0051441D01*
X0096917Y0051443D01*
X0096495Y0051443D01*
X0095528Y0050599D02*
X0094895Y0050599D01*
X0095528Y0050599D02*
X0095526Y0050654D01*
X0095521Y0050709D01*
X0095512Y0050764D01*
X0095499Y0050817D01*
X0095483Y0050870D01*
X0095464Y0050922D01*
X0095441Y0050972D01*
X0095415Y0051021D01*
X0095386Y0051068D01*
X0095354Y0051113D01*
X0095319Y0051155D01*
X0095281Y0051196D01*
X0095240Y0051234D01*
X0095198Y0051269D01*
X0095153Y0051301D01*
X0095106Y0051330D01*
X0095057Y0051356D01*
X0095007Y0051379D01*
X0094955Y0051398D01*
X0094902Y0051414D01*
X0094849Y0051427D01*
X0094794Y0051436D01*
X0094739Y0051441D01*
X0094684Y0051443D01*
X0095528Y0050599D02*
X0095528Y0050071D01*
X0095529Y0050071D02*
X0095527Y0050026D01*
X0095521Y0049982D01*
X0095512Y0049938D01*
X0095499Y0049895D01*
X0095482Y0049854D01*
X0095462Y0049813D01*
X0095438Y0049775D01*
X0095412Y0049739D01*
X0095382Y0049706D01*
X0095350Y0049675D01*
X0095315Y0049646D01*
X0095278Y0049621D01*
X0095239Y0049600D01*
X0095198Y0049581D01*
X0095156Y0049566D01*
X0095112Y0049555D01*
X0095068Y0049547D01*
X0095023Y0049543D01*
X0094979Y0049543D01*
X0094934Y0049547D01*
X0094890Y0049555D01*
X0094846Y0049566D01*
X0094804Y0049581D01*
X0094763Y0049600D01*
X0094724Y0049621D01*
X0094687Y0049646D01*
X0094652Y0049675D01*
X0094620Y0049706D01*
X0094590Y0049739D01*
X0094564Y0049775D01*
X0094540Y0049813D01*
X0094520Y0049854D01*
X0094503Y0049895D01*
X0094490Y0049938D01*
X0094481Y0049982D01*
X0094475Y0050026D01*
X0094473Y0050071D01*
X0094473Y0050176D01*
X0094475Y0050215D01*
X0094480Y0050254D01*
X0094489Y0050291D01*
X0094501Y0050328D01*
X0094517Y0050364D01*
X0094536Y0050398D01*
X0094558Y0050430D01*
X0094583Y0050460D01*
X0094611Y0050488D01*
X0094641Y0050513D01*
X0094673Y0050535D01*
X0094707Y0050554D01*
X0094743Y0050570D01*
X0094780Y0050582D01*
X0094817Y0050591D01*
X0094856Y0050596D01*
X0094895Y0050598D01*
X0078831Y0055692D02*
X0078831Y0056748D01*
X0078829Y0056787D01*
X0078824Y0056826D01*
X0078815Y0056863D01*
X0078803Y0056900D01*
X0078787Y0056936D01*
X0078768Y0056970D01*
X0078746Y0057002D01*
X0078721Y0057032D01*
X0078693Y0057060D01*
X0078663Y0057085D01*
X0078631Y0057107D01*
X0078597Y0057126D01*
X0078561Y0057142D01*
X0078524Y0057154D01*
X0078487Y0057163D01*
X0078448Y0057168D01*
X0078409Y0057170D01*
X0077987Y0057170D01*
X0076598Y0057170D02*
X0077020Y0055692D01*
X0075964Y0055692D01*
X0076281Y0055270D02*
X0076281Y0056115D01*
X0077987Y0055270D02*
X0078409Y0055270D01*
X0078448Y0055272D01*
X0078487Y0055277D01*
X0078524Y0055286D01*
X0078561Y0055298D01*
X0078597Y0055314D01*
X0078631Y0055333D01*
X0078663Y0055355D01*
X0078693Y0055380D01*
X0078721Y0055408D01*
X0078746Y0055438D01*
X0078768Y0055470D01*
X0078787Y0055504D01*
X0078803Y0055540D01*
X0078815Y0055577D01*
X0078824Y0055614D01*
X0078829Y0055653D01*
X0078831Y0055692D01*
X0094426Y0061038D02*
X0095482Y0061038D01*
X0094954Y0061038D02*
X0094954Y0062938D01*
X0095482Y0062515D01*
X0096449Y0062938D02*
X0096871Y0062938D01*
X0096871Y0062937D02*
X0096910Y0062935D01*
X0096949Y0062930D01*
X0096986Y0062921D01*
X0097023Y0062909D01*
X0097059Y0062893D01*
X0097093Y0062874D01*
X0097125Y0062852D01*
X0097155Y0062827D01*
X0097183Y0062799D01*
X0097208Y0062769D01*
X0097230Y0062737D01*
X0097249Y0062703D01*
X0097265Y0062667D01*
X0097277Y0062630D01*
X0097286Y0062593D01*
X0097291Y0062554D01*
X0097293Y0062515D01*
X0097293Y0061460D01*
X0097291Y0061421D01*
X0097286Y0061382D01*
X0097277Y0061345D01*
X0097265Y0061308D01*
X0097249Y0061272D01*
X0097230Y0061238D01*
X0097208Y0061206D01*
X0097183Y0061176D01*
X0097155Y0061148D01*
X0097125Y0061123D01*
X0097093Y0061101D01*
X0097059Y0061082D01*
X0097023Y0061066D01*
X0096986Y0061054D01*
X0096949Y0061045D01*
X0096910Y0061040D01*
X0096871Y0061038D01*
X0096449Y0061038D01*
X0040504Y0042591D02*
X0040504Y0041535D01*
X0039659Y0041535D01*
X0039659Y0042169D01*
X0039657Y0042208D01*
X0039652Y0042247D01*
X0039643Y0042284D01*
X0039631Y0042321D01*
X0039615Y0042357D01*
X0039596Y0042391D01*
X0039574Y0042423D01*
X0039549Y0042453D01*
X0039521Y0042481D01*
X0039491Y0042506D01*
X0039459Y0042528D01*
X0039425Y0042547D01*
X0039389Y0042563D01*
X0039352Y0042575D01*
X0039315Y0042584D01*
X0039276Y0042589D01*
X0039237Y0042591D01*
X0039026Y0042591D01*
X0038987Y0042589D01*
X0038948Y0042584D01*
X0038911Y0042575D01*
X0038874Y0042563D01*
X0038838Y0042547D01*
X0038804Y0042528D01*
X0038772Y0042506D01*
X0038742Y0042481D01*
X0038714Y0042453D01*
X0038689Y0042423D01*
X0038667Y0042391D01*
X0038648Y0042357D01*
X0038632Y0042321D01*
X0038620Y0042284D01*
X0038611Y0042247D01*
X0038606Y0042208D01*
X0038604Y0042169D01*
X0038604Y0041535D01*
X0038604Y0040569D02*
X0038604Y0040146D01*
X0038606Y0040107D01*
X0038611Y0040068D01*
X0038620Y0040031D01*
X0038632Y0039994D01*
X0038648Y0039958D01*
X0038667Y0039924D01*
X0038689Y0039892D01*
X0038714Y0039862D01*
X0038742Y0039834D01*
X0038772Y0039809D01*
X0038804Y0039787D01*
X0038838Y0039768D01*
X0038874Y0039752D01*
X0038911Y0039740D01*
X0038948Y0039731D01*
X0038987Y0039726D01*
X0039026Y0039724D01*
X0040081Y0039724D01*
X0040120Y0039726D01*
X0040159Y0039731D01*
X0040196Y0039740D01*
X0040233Y0039752D01*
X0040269Y0039768D01*
X0040303Y0039787D01*
X0040335Y0039809D01*
X0040365Y0039834D01*
X0040393Y0039862D01*
X0040418Y0039892D01*
X0040440Y0039924D01*
X0040459Y0039958D01*
X0040474Y0039994D01*
X0040487Y0040031D01*
X0040496Y0040068D01*
X0040501Y0040107D01*
X0040503Y0040146D01*
X0040504Y0040146D02*
X0040504Y0040569D01*
D1111*
X0039059Y0020921D03*
X0039807Y0061581D03*
X0184559Y0068421D03*
D1112*
X0184721Y0071471D02*
X0184721Y0072971D01*
X0185137Y0072637D01*
X0186161Y0072971D02*
X0186577Y0072637D01*
X0186161Y0072971D02*
X0186161Y0071471D01*
X0186577Y0071471D02*
X0185744Y0071471D01*
X0185137Y0071471D02*
X0184304Y0071471D01*
X0187176Y0071471D02*
X0187509Y0072137D01*
X0187592Y0072137D02*
X0188009Y0072137D01*
X0187592Y0072137D02*
X0187552Y0072139D01*
X0187513Y0072145D01*
X0187475Y0072154D01*
X0187437Y0072167D01*
X0187401Y0072183D01*
X0187367Y0072203D01*
X0187334Y0072226D01*
X0187304Y0072252D01*
X0187277Y0072281D01*
X0187252Y0072312D01*
X0187231Y0072346D01*
X0187213Y0072381D01*
X0187198Y0072418D01*
X0187187Y0072456D01*
X0187179Y0072495D01*
X0187175Y0072534D01*
X0187175Y0072574D01*
X0187179Y0072613D01*
X0187187Y0072652D01*
X0187198Y0072690D01*
X0187213Y0072727D01*
X0187231Y0072763D01*
X0187252Y0072796D01*
X0187277Y0072827D01*
X0187304Y0072856D01*
X0187334Y0072882D01*
X0187367Y0072905D01*
X0187401Y0072925D01*
X0187437Y0072941D01*
X0187475Y0072954D01*
X0187513Y0072963D01*
X0187552Y0072969D01*
X0187592Y0072971D01*
X0188009Y0072971D01*
X0188009Y0071471D01*
X0114237Y0037150D02*
X0113820Y0037150D01*
X0113820Y0037151D02*
X0113780Y0037149D01*
X0113741Y0037143D01*
X0113703Y0037134D01*
X0113665Y0037121D01*
X0113629Y0037105D01*
X0113595Y0037085D01*
X0113562Y0037062D01*
X0113532Y0037036D01*
X0113505Y0037007D01*
X0113480Y0036976D01*
X0113459Y0036943D01*
X0113441Y0036907D01*
X0113426Y0036870D01*
X0113415Y0036832D01*
X0113407Y0036793D01*
X0113403Y0036754D01*
X0113403Y0036714D01*
X0113407Y0036675D01*
X0113415Y0036636D01*
X0113426Y0036598D01*
X0113441Y0036561D01*
X0113459Y0036526D01*
X0113480Y0036492D01*
X0113505Y0036461D01*
X0113532Y0036432D01*
X0113562Y0036406D01*
X0113595Y0036383D01*
X0113629Y0036363D01*
X0113665Y0036347D01*
X0113703Y0036334D01*
X0113741Y0036325D01*
X0113780Y0036319D01*
X0113820Y0036317D01*
X0114237Y0036317D01*
X0113737Y0036317D02*
X0113403Y0035650D01*
X0114237Y0035650D02*
X0114237Y0037150D01*
X0112805Y0036734D02*
X0112805Y0036650D01*
X0112803Y0036615D01*
X0112798Y0036581D01*
X0112789Y0036547D01*
X0112776Y0036515D01*
X0112760Y0036484D01*
X0112741Y0036454D01*
X0112719Y0036427D01*
X0112695Y0036403D01*
X0112668Y0036381D01*
X0112639Y0036362D01*
X0112607Y0036346D01*
X0112575Y0036333D01*
X0112541Y0036324D01*
X0112507Y0036319D01*
X0112472Y0036317D01*
X0111972Y0036317D01*
X0111972Y0036734D01*
X0111971Y0036734D02*
X0111973Y0036774D01*
X0111979Y0036813D01*
X0111988Y0036851D01*
X0112001Y0036889D01*
X0112017Y0036925D01*
X0112037Y0036959D01*
X0112060Y0036992D01*
X0112086Y0037022D01*
X0112115Y0037049D01*
X0112146Y0037074D01*
X0112180Y0037095D01*
X0112215Y0037113D01*
X0112252Y0037128D01*
X0112290Y0037139D01*
X0112329Y0037147D01*
X0112368Y0037151D01*
X0112408Y0037151D01*
X0112447Y0037147D01*
X0112486Y0037139D01*
X0112524Y0037128D01*
X0112561Y0037113D01*
X0112597Y0037095D01*
X0112630Y0037074D01*
X0112661Y0037049D01*
X0112690Y0037022D01*
X0112716Y0036992D01*
X0112739Y0036959D01*
X0112759Y0036925D01*
X0112775Y0036889D01*
X0112788Y0036851D01*
X0112797Y0036813D01*
X0112803Y0036774D01*
X0112805Y0036734D01*
X0111971Y0036317D02*
X0111973Y0036267D01*
X0111978Y0036218D01*
X0111988Y0036169D01*
X0112001Y0036120D01*
X0112017Y0036073D01*
X0112037Y0036028D01*
X0112060Y0035983D01*
X0112087Y0035941D01*
X0112117Y0035901D01*
X0112149Y0035863D01*
X0112184Y0035828D01*
X0112222Y0035796D01*
X0112262Y0035766D01*
X0112305Y0035739D01*
X0112349Y0035716D01*
X0112394Y0035696D01*
X0112441Y0035680D01*
X0112490Y0035667D01*
X0112539Y0035657D01*
X0112588Y0035652D01*
X0112638Y0035650D01*
X0105726Y0035536D02*
X0105726Y0037036D01*
X0105310Y0037036D01*
X0105310Y0037037D02*
X0105270Y0037035D01*
X0105231Y0037029D01*
X0105193Y0037020D01*
X0105155Y0037007D01*
X0105119Y0036991D01*
X0105085Y0036971D01*
X0105052Y0036948D01*
X0105022Y0036922D01*
X0104995Y0036893D01*
X0104970Y0036862D01*
X0104949Y0036829D01*
X0104931Y0036793D01*
X0104916Y0036756D01*
X0104905Y0036718D01*
X0104897Y0036679D01*
X0104893Y0036640D01*
X0104893Y0036600D01*
X0104897Y0036561D01*
X0104905Y0036522D01*
X0104916Y0036484D01*
X0104931Y0036447D01*
X0104949Y0036412D01*
X0104970Y0036378D01*
X0104995Y0036347D01*
X0105022Y0036318D01*
X0105052Y0036292D01*
X0105085Y0036269D01*
X0105119Y0036249D01*
X0105155Y0036233D01*
X0105193Y0036220D01*
X0105231Y0036211D01*
X0105270Y0036205D01*
X0105310Y0036203D01*
X0105726Y0036203D01*
X0105226Y0036203D02*
X0104893Y0035536D01*
X0104295Y0035953D02*
X0104293Y0035913D01*
X0104287Y0035874D01*
X0104278Y0035836D01*
X0104265Y0035798D01*
X0104249Y0035762D01*
X0104229Y0035728D01*
X0104206Y0035695D01*
X0104180Y0035665D01*
X0104151Y0035638D01*
X0104120Y0035613D01*
X0104087Y0035592D01*
X0104051Y0035574D01*
X0104014Y0035559D01*
X0103976Y0035548D01*
X0103937Y0035540D01*
X0103898Y0035536D01*
X0103858Y0035536D01*
X0103819Y0035540D01*
X0103780Y0035548D01*
X0103742Y0035559D01*
X0103705Y0035574D01*
X0103670Y0035592D01*
X0103636Y0035613D01*
X0103605Y0035638D01*
X0103576Y0035665D01*
X0103550Y0035695D01*
X0103527Y0035728D01*
X0103507Y0035762D01*
X0103491Y0035798D01*
X0103478Y0035836D01*
X0103469Y0035874D01*
X0103463Y0035913D01*
X0103461Y0035953D01*
X0103463Y0035993D01*
X0103469Y0036032D01*
X0103478Y0036070D01*
X0103491Y0036108D01*
X0103507Y0036144D01*
X0103527Y0036178D01*
X0103550Y0036211D01*
X0103576Y0036241D01*
X0103605Y0036268D01*
X0103636Y0036293D01*
X0103670Y0036314D01*
X0103705Y0036332D01*
X0103742Y0036347D01*
X0103780Y0036358D01*
X0103819Y0036366D01*
X0103858Y0036370D01*
X0103898Y0036370D01*
X0103937Y0036366D01*
X0103976Y0036358D01*
X0104014Y0036347D01*
X0104051Y0036332D01*
X0104087Y0036314D01*
X0104120Y0036293D01*
X0104151Y0036268D01*
X0104180Y0036241D01*
X0104206Y0036211D01*
X0104229Y0036178D01*
X0104249Y0036144D01*
X0104265Y0036108D01*
X0104278Y0036070D01*
X0104287Y0036032D01*
X0104293Y0035993D01*
X0104295Y0035953D01*
X0104211Y0036703D02*
X0104209Y0036668D01*
X0104204Y0036634D01*
X0104195Y0036600D01*
X0104182Y0036568D01*
X0104166Y0036537D01*
X0104147Y0036507D01*
X0104125Y0036480D01*
X0104101Y0036456D01*
X0104074Y0036434D01*
X0104045Y0036415D01*
X0104013Y0036399D01*
X0103981Y0036386D01*
X0103947Y0036377D01*
X0103913Y0036372D01*
X0103878Y0036370D01*
X0103843Y0036372D01*
X0103809Y0036377D01*
X0103775Y0036386D01*
X0103743Y0036399D01*
X0103712Y0036415D01*
X0103682Y0036434D01*
X0103655Y0036456D01*
X0103631Y0036480D01*
X0103609Y0036507D01*
X0103590Y0036537D01*
X0103574Y0036568D01*
X0103561Y0036600D01*
X0103552Y0036634D01*
X0103547Y0036668D01*
X0103545Y0036703D01*
X0103547Y0036738D01*
X0103552Y0036772D01*
X0103561Y0036806D01*
X0103574Y0036838D01*
X0103590Y0036870D01*
X0103609Y0036899D01*
X0103631Y0036926D01*
X0103655Y0036950D01*
X0103682Y0036972D01*
X0103712Y0036991D01*
X0103743Y0037007D01*
X0103775Y0037020D01*
X0103809Y0037029D01*
X0103843Y0037034D01*
X0103878Y0037036D01*
X0103913Y0037034D01*
X0103947Y0037029D01*
X0103981Y0037020D01*
X0104013Y0037007D01*
X0104045Y0036991D01*
X0104074Y0036972D01*
X0104101Y0036950D01*
X0104125Y0036926D01*
X0104147Y0036899D01*
X0104166Y0036870D01*
X0104182Y0036838D01*
X0104195Y0036806D01*
X0104204Y0036772D01*
X0104209Y0036738D01*
X0104211Y0036703D01*
X0054314Y0050889D02*
X0054314Y0051306D01*
X0054312Y0051346D01*
X0054306Y0051385D01*
X0054297Y0051423D01*
X0054284Y0051461D01*
X0054268Y0051497D01*
X0054248Y0051531D01*
X0054225Y0051564D01*
X0054199Y0051594D01*
X0054170Y0051621D01*
X0054139Y0051646D01*
X0054106Y0051667D01*
X0054070Y0051685D01*
X0054033Y0051700D01*
X0053995Y0051711D01*
X0053956Y0051719D01*
X0053917Y0051723D01*
X0053877Y0051723D01*
X0053838Y0051719D01*
X0053799Y0051711D01*
X0053761Y0051700D01*
X0053724Y0051685D01*
X0053689Y0051667D01*
X0053655Y0051646D01*
X0053624Y0051621D01*
X0053595Y0051594D01*
X0053569Y0051564D01*
X0053546Y0051531D01*
X0053526Y0051497D01*
X0053510Y0051461D01*
X0053497Y0051423D01*
X0053488Y0051385D01*
X0053482Y0051346D01*
X0053480Y0051306D01*
X0053481Y0051306D02*
X0053481Y0050889D01*
X0053481Y0051389D02*
X0052814Y0051722D01*
X0052814Y0052321D02*
X0052814Y0053154D01*
X0052814Y0052737D02*
X0054314Y0052737D01*
X0053981Y0052321D01*
X0052814Y0053761D02*
X0052814Y0054594D01*
X0052814Y0053761D02*
X0053647Y0054469D01*
X0054314Y0054219D02*
X0054312Y0054179D01*
X0054307Y0054139D01*
X0054299Y0054099D01*
X0054287Y0054060D01*
X0054272Y0054023D01*
X0054254Y0053987D01*
X0054233Y0053952D01*
X0054210Y0053919D01*
X0054183Y0053889D01*
X0054154Y0053861D01*
X0054123Y0053835D01*
X0054090Y0053812D01*
X0054055Y0053792D01*
X0054018Y0053774D01*
X0053980Y0053760D01*
X0053647Y0054469D02*
X0053673Y0054494D01*
X0053702Y0054517D01*
X0053732Y0054537D01*
X0053764Y0054554D01*
X0053797Y0054568D01*
X0053832Y0054579D01*
X0053867Y0054587D01*
X0053903Y0054592D01*
X0053939Y0054594D01*
X0053976Y0054592D01*
X0054012Y0054587D01*
X0054048Y0054578D01*
X0054083Y0054565D01*
X0054116Y0054550D01*
X0054147Y0054531D01*
X0054177Y0054509D01*
X0054204Y0054484D01*
X0054229Y0054457D01*
X0054251Y0054427D01*
X0054270Y0054396D01*
X0054285Y0054363D01*
X0054298Y0054328D01*
X0054307Y0054292D01*
X0054312Y0054256D01*
X0054314Y0054219D01*
X0054314Y0050889D02*
X0052814Y0050889D01*
X0039873Y0066323D02*
X0039873Y0067823D01*
X0039457Y0067823D01*
X0039417Y0067821D01*
X0039378Y0067815D01*
X0039340Y0067806D01*
X0039302Y0067793D01*
X0039266Y0067777D01*
X0039232Y0067757D01*
X0039199Y0067734D01*
X0039169Y0067708D01*
X0039142Y0067679D01*
X0039117Y0067648D01*
X0039096Y0067615D01*
X0039078Y0067579D01*
X0039063Y0067542D01*
X0039052Y0067504D01*
X0039044Y0067465D01*
X0039040Y0067426D01*
X0039040Y0067386D01*
X0039044Y0067347D01*
X0039052Y0067308D01*
X0039063Y0067270D01*
X0039078Y0067233D01*
X0039096Y0067198D01*
X0039117Y0067164D01*
X0039142Y0067133D01*
X0039169Y0067104D01*
X0039199Y0067078D01*
X0039232Y0067055D01*
X0039266Y0067035D01*
X0039302Y0067019D01*
X0039340Y0067006D01*
X0039378Y0066997D01*
X0039417Y0066991D01*
X0039457Y0066989D01*
X0039457Y0066990D02*
X0039873Y0066990D01*
X0039373Y0066990D02*
X0039040Y0066323D01*
X0038442Y0066323D02*
X0037608Y0066323D01*
X0038025Y0066323D02*
X0038025Y0067823D01*
X0038442Y0067490D01*
X0040661Y0025471D02*
X0040661Y0023971D01*
X0041077Y0023971D02*
X0040244Y0023971D01*
X0039554Y0024304D02*
X0038887Y0025137D01*
X0038930Y0025262D02*
X0038942Y0025291D01*
X0038956Y0025320D01*
X0038974Y0025346D01*
X0038994Y0025371D01*
X0039017Y0025393D01*
X0039042Y0025413D01*
X0039069Y0025430D01*
X0039097Y0025444D01*
X0039127Y0025455D01*
X0039158Y0025463D01*
X0039189Y0025468D01*
X0039221Y0025470D01*
X0039253Y0025468D01*
X0039284Y0025463D01*
X0039315Y0025455D01*
X0039345Y0025444D01*
X0039373Y0025430D01*
X0039400Y0025413D01*
X0039425Y0025393D01*
X0039448Y0025371D01*
X0039468Y0025346D01*
X0039486Y0025320D01*
X0039500Y0025291D01*
X0039512Y0025262D01*
X0038929Y0025263D02*
X0038903Y0025206D01*
X0038880Y0025148D01*
X0038860Y0025089D01*
X0038843Y0025029D01*
X0038829Y0024968D01*
X0038818Y0024907D01*
X0038810Y0024845D01*
X0038806Y0024783D01*
X0038804Y0024721D01*
X0039637Y0024721D02*
X0039635Y0024783D01*
X0039631Y0024845D01*
X0039623Y0024907D01*
X0039612Y0024968D01*
X0039598Y0025029D01*
X0039581Y0025089D01*
X0039561Y0025148D01*
X0039538Y0025206D01*
X0039512Y0025263D01*
X0038804Y0024721D02*
X0038806Y0024659D01*
X0038810Y0024597D01*
X0038818Y0024535D01*
X0038829Y0024474D01*
X0038843Y0024413D01*
X0038860Y0024353D01*
X0038880Y0024294D01*
X0038903Y0024236D01*
X0038929Y0024179D01*
X0039221Y0023971D02*
X0039253Y0023973D01*
X0039284Y0023978D01*
X0039315Y0023986D01*
X0039345Y0023997D01*
X0039373Y0024011D01*
X0039400Y0024028D01*
X0039425Y0024048D01*
X0039448Y0024070D01*
X0039468Y0024095D01*
X0039486Y0024121D01*
X0039500Y0024150D01*
X0039512Y0024179D01*
X0039221Y0023971D02*
X0039189Y0023973D01*
X0039158Y0023978D01*
X0039127Y0023986D01*
X0039097Y0023997D01*
X0039069Y0024011D01*
X0039042Y0024028D01*
X0039017Y0024048D01*
X0038994Y0024070D01*
X0038974Y0024095D01*
X0038956Y0024121D01*
X0038942Y0024150D01*
X0038930Y0024179D01*
X0039512Y0024179D02*
X0039538Y0024236D01*
X0039561Y0024294D01*
X0039581Y0024353D01*
X0039598Y0024413D01*
X0039612Y0024474D01*
X0039623Y0024535D01*
X0039631Y0024597D01*
X0039635Y0024659D01*
X0039637Y0024721D01*
X0040661Y0025471D02*
X0041077Y0025137D01*
X0042092Y0025471D02*
X0042052Y0025469D01*
X0042013Y0025463D01*
X0041975Y0025454D01*
X0041937Y0025441D01*
X0041901Y0025425D01*
X0041867Y0025405D01*
X0041834Y0025382D01*
X0041804Y0025356D01*
X0041777Y0025327D01*
X0041752Y0025296D01*
X0041731Y0025263D01*
X0041713Y0025227D01*
X0041698Y0025190D01*
X0041687Y0025152D01*
X0041679Y0025113D01*
X0041675Y0025074D01*
X0041675Y0025034D01*
X0041679Y0024995D01*
X0041687Y0024956D01*
X0041698Y0024918D01*
X0041713Y0024881D01*
X0041731Y0024846D01*
X0041752Y0024812D01*
X0041777Y0024781D01*
X0041804Y0024752D01*
X0041834Y0024726D01*
X0041867Y0024703D01*
X0041901Y0024683D01*
X0041937Y0024667D01*
X0041975Y0024654D01*
X0042013Y0024645D01*
X0042052Y0024639D01*
X0042092Y0024637D01*
X0042509Y0024637D01*
X0042009Y0024637D02*
X0041676Y0023971D01*
X0042509Y0023971D02*
X0042509Y0025471D01*
X0042092Y0025471D01*
D1113*
X0124212Y0062932D02*
X0126768Y0062932D01*
X0124596Y0065487D01*
X0125362Y0067531D02*
X0125436Y0067529D01*
X0125510Y0067524D01*
X0125584Y0067514D01*
X0125657Y0067501D01*
X0125730Y0067485D01*
X0125801Y0067464D01*
X0125871Y0067440D01*
X0125940Y0067413D01*
X0126008Y0067382D01*
X0126074Y0067348D01*
X0126138Y0067311D01*
X0126200Y0067270D01*
X0126261Y0067226D01*
X0126318Y0067180D01*
X0126374Y0067130D01*
X0126427Y0067078D01*
X0126477Y0067023D01*
X0126524Y0066966D01*
X0126568Y0066906D01*
X0126610Y0066844D01*
X0126648Y0066781D01*
X0126683Y0066715D01*
X0126714Y0066648D01*
X0126742Y0066579D01*
X0126767Y0066509D01*
X0124596Y0065488D02*
X0124549Y0065535D01*
X0124505Y0065585D01*
X0124463Y0065637D01*
X0124424Y0065691D01*
X0124389Y0065747D01*
X0124356Y0065805D01*
X0124326Y0065865D01*
X0124300Y0065926D01*
X0124277Y0065989D01*
X0124258Y0066053D01*
X0124242Y0066117D01*
X0124229Y0066183D01*
X0124220Y0066249D01*
X0124215Y0066315D01*
X0124213Y0066382D01*
X0124212Y0066382D02*
X0124214Y0066449D01*
X0124220Y0066516D01*
X0124229Y0066582D01*
X0124243Y0066647D01*
X0124260Y0066712D01*
X0124281Y0066775D01*
X0124306Y0066837D01*
X0124334Y0066898D01*
X0124366Y0066957D01*
X0124401Y0067014D01*
X0124440Y0067069D01*
X0124481Y0067121D01*
X0124526Y0067171D01*
X0124573Y0067218D01*
X0124623Y0067263D01*
X0124675Y0067304D01*
X0124730Y0067343D01*
X0124787Y0067378D01*
X0124846Y0067410D01*
X0124907Y0067438D01*
X0124969Y0067463D01*
X0125032Y0067484D01*
X0125097Y0067501D01*
X0125162Y0067515D01*
X0125228Y0067524D01*
X0125295Y0067530D01*
X0125362Y0067532D01*
X0128486Y0067532D02*
X0129509Y0067532D01*
X0129509Y0067531D02*
X0129571Y0067529D01*
X0129632Y0067524D01*
X0129693Y0067514D01*
X0129754Y0067501D01*
X0129813Y0067485D01*
X0129871Y0067465D01*
X0129928Y0067441D01*
X0129984Y0067414D01*
X0130038Y0067384D01*
X0130090Y0067350D01*
X0130139Y0067314D01*
X0130187Y0067274D01*
X0130232Y0067232D01*
X0130274Y0067187D01*
X0130314Y0067139D01*
X0130350Y0067090D01*
X0130384Y0067038D01*
X0130414Y0066984D01*
X0130441Y0066928D01*
X0130465Y0066871D01*
X0130485Y0066813D01*
X0130501Y0066754D01*
X0130514Y0066693D01*
X0130524Y0066632D01*
X0130529Y0066571D01*
X0130531Y0066509D01*
X0130531Y0063954D01*
X0130529Y0063892D01*
X0130524Y0063831D01*
X0130514Y0063770D01*
X0130501Y0063709D01*
X0130485Y0063650D01*
X0130465Y0063592D01*
X0130441Y0063535D01*
X0130414Y0063479D01*
X0130384Y0063425D01*
X0130350Y0063373D01*
X0130314Y0063324D01*
X0130274Y0063276D01*
X0130232Y0063231D01*
X0130187Y0063189D01*
X0130139Y0063149D01*
X0130090Y0063113D01*
X0130038Y0063079D01*
X0129984Y0063049D01*
X0129928Y0063022D01*
X0129871Y0062998D01*
X0129813Y0062978D01*
X0129754Y0062962D01*
X0129693Y0062949D01*
X0129632Y0062939D01*
X0129571Y0062934D01*
X0129509Y0062932D01*
X0128486Y0062932D01*
X0132329Y0062932D02*
X0133351Y0062932D01*
X0132840Y0062932D02*
X0132840Y0067532D01*
X0133351Y0067532D02*
X0132329Y0067532D01*
X0148212Y0062932D02*
X0150768Y0062932D01*
X0149490Y0062932D02*
X0149490Y0067532D01*
X0150768Y0066509D01*
X0152486Y0067532D02*
X0153509Y0067532D01*
X0153509Y0067531D02*
X0153571Y0067529D01*
X0153632Y0067524D01*
X0153693Y0067514D01*
X0153754Y0067501D01*
X0153813Y0067485D01*
X0153871Y0067465D01*
X0153928Y0067441D01*
X0153984Y0067414D01*
X0154038Y0067384D01*
X0154090Y0067350D01*
X0154139Y0067314D01*
X0154187Y0067274D01*
X0154232Y0067232D01*
X0154274Y0067187D01*
X0154314Y0067139D01*
X0154350Y0067090D01*
X0154384Y0067038D01*
X0154414Y0066984D01*
X0154441Y0066928D01*
X0154465Y0066871D01*
X0154485Y0066813D01*
X0154501Y0066754D01*
X0154514Y0066693D01*
X0154524Y0066632D01*
X0154529Y0066571D01*
X0154531Y0066509D01*
X0154531Y0063954D01*
X0154529Y0063892D01*
X0154524Y0063831D01*
X0154514Y0063770D01*
X0154501Y0063709D01*
X0154485Y0063650D01*
X0154465Y0063592D01*
X0154441Y0063535D01*
X0154414Y0063479D01*
X0154384Y0063425D01*
X0154350Y0063373D01*
X0154314Y0063324D01*
X0154274Y0063276D01*
X0154232Y0063231D01*
X0154187Y0063189D01*
X0154139Y0063149D01*
X0154090Y0063113D01*
X0154038Y0063079D01*
X0153984Y0063049D01*
X0153928Y0063022D01*
X0153871Y0062998D01*
X0153813Y0062978D01*
X0153754Y0062962D01*
X0153693Y0062949D01*
X0153632Y0062939D01*
X0153571Y0062934D01*
X0153509Y0062932D01*
X0152486Y0062932D01*
X0156329Y0062932D02*
X0157351Y0062932D01*
X0156840Y0062932D02*
X0156840Y0067532D01*
X0157351Y0067532D02*
X0156329Y0067532D01*
D1114*
X0112559Y0043921D03*
X0104559Y0043921D03*
X0049764Y0054339D03*
D1115*
X0049559Y0046921D02*
X0041685Y0046921D01*
X0041685Y0035110D01*
X0049559Y0035110D01*
X0049559Y0046921D01*
X0042122Y0044798D02*
X0042124Y0044841D01*
X0042130Y0044883D01*
X0042140Y0044925D01*
X0042153Y0044966D01*
X0042170Y0045006D01*
X0042191Y0045043D01*
X0042215Y0045079D01*
X0042242Y0045112D01*
X0042272Y0045143D01*
X0042305Y0045171D01*
X0042340Y0045196D01*
X0042377Y0045217D01*
X0042416Y0045235D01*
X0042456Y0045249D01*
X0042498Y0045260D01*
X0042540Y0045267D01*
X0042583Y0045270D01*
X0042626Y0045269D01*
X0042669Y0045264D01*
X0042711Y0045255D01*
X0042752Y0045243D01*
X0042792Y0045227D01*
X0042830Y0045207D01*
X0042866Y0045184D01*
X0042900Y0045157D01*
X0042932Y0045128D01*
X0042960Y0045096D01*
X0042986Y0045061D01*
X0043008Y0045025D01*
X0043027Y0044986D01*
X0043042Y0044946D01*
X0043054Y0044905D01*
X0043062Y0044862D01*
X0043066Y0044819D01*
X0043066Y0044777D01*
X0043062Y0044734D01*
X0043054Y0044691D01*
X0043042Y0044650D01*
X0043027Y0044610D01*
X0043008Y0044571D01*
X0042986Y0044535D01*
X0042960Y0044500D01*
X0042932Y0044468D01*
X0042900Y0044439D01*
X0042866Y0044412D01*
X0042830Y0044389D01*
X0042792Y0044369D01*
X0042752Y0044353D01*
X0042711Y0044341D01*
X0042669Y0044332D01*
X0042626Y0044327D01*
X0042583Y0044326D01*
X0042540Y0044329D01*
X0042498Y0044336D01*
X0042456Y0044347D01*
X0042416Y0044361D01*
X0042377Y0044379D01*
X0042340Y0044400D01*
X0042305Y0044425D01*
X0042272Y0044453D01*
X0042242Y0044484D01*
X0042215Y0044517D01*
X0042191Y0044553D01*
X0042170Y0044590D01*
X0042153Y0044630D01*
X0042140Y0044671D01*
X0042130Y0044713D01*
X0042124Y0044755D01*
X0042122Y0044798D01*
M02*
