G75*
%MOIN*%
%OFA0B0*%
%FSLAX25Y25*%
%IPPOS*%
%LPD*%
%AMOC8*
5,1,8,0,0,1.08239X$1,22.5*
%
%ADD10C,0.01181*%
%ADD11C,0.07400*%
%ADD12R,0.03937X0.04331*%
%ADD13C,0.06398*%
%ADD14R,0.03543X0.00945*%
%ADD15R,0.01969X0.01850*%
%ADD16C,0.00500*%
%ADD17C,0.02978*%
%ADD18C,0.00600*%
%ADD19C,0.01000*%
%ADD20C,0.00800*%
D10*
X0124181Y0026090D02*
X0126937Y0026090D01*
X0124181Y0026090D02*
X0124181Y0028846D01*
X0126937Y0028846D01*
X0126937Y0026090D01*
X0126937Y0027212D02*
X0124181Y0027212D01*
X0124181Y0028334D02*
X0126937Y0028334D01*
X0136181Y0026090D02*
X0138937Y0026090D01*
X0136181Y0026090D02*
X0136181Y0028846D01*
X0138937Y0028846D01*
X0138937Y0026090D01*
X0138937Y0027212D02*
X0136181Y0027212D01*
X0136181Y0028334D02*
X0138937Y0028334D01*
X0148181Y0026090D02*
X0150937Y0026090D01*
X0148181Y0026090D02*
X0148181Y0028846D01*
X0150937Y0028846D01*
X0150937Y0026090D01*
X0150937Y0027212D02*
X0148181Y0027212D01*
X0148181Y0028334D02*
X0150937Y0028334D01*
X0160181Y0026090D02*
X0162937Y0026090D01*
X0160181Y0026090D02*
X0160181Y0028846D01*
X0162937Y0028846D01*
X0162937Y0026090D01*
X0162937Y0027212D02*
X0160181Y0027212D01*
X0160181Y0028334D02*
X0162937Y0028334D01*
X0172181Y0026090D02*
X0174937Y0026090D01*
X0172181Y0026090D02*
X0172181Y0028846D01*
X0174937Y0028846D01*
X0174937Y0026090D01*
X0174937Y0027212D02*
X0172181Y0027212D01*
X0172181Y0028334D02*
X0174937Y0028334D01*
X0184181Y0026090D02*
X0186937Y0026090D01*
X0184181Y0026090D02*
X0184181Y0028846D01*
X0186937Y0028846D01*
X0186937Y0026090D01*
X0186937Y0027212D02*
X0184181Y0027212D01*
X0184181Y0028334D02*
X0186937Y0028334D01*
X0186937Y0032995D02*
X0184181Y0032995D01*
X0184181Y0035751D01*
X0186937Y0035751D01*
X0186937Y0032995D01*
X0186937Y0034117D02*
X0184181Y0034117D01*
X0184181Y0035239D02*
X0186937Y0035239D01*
X0174937Y0032995D02*
X0172181Y0032995D01*
X0172181Y0035751D01*
X0174937Y0035751D01*
X0174937Y0032995D01*
X0174937Y0034117D02*
X0172181Y0034117D01*
X0172181Y0035239D02*
X0174937Y0035239D01*
X0162937Y0032995D02*
X0160181Y0032995D01*
X0160181Y0035751D01*
X0162937Y0035751D01*
X0162937Y0032995D01*
X0162937Y0034117D02*
X0160181Y0034117D01*
X0160181Y0035239D02*
X0162937Y0035239D01*
X0150937Y0032995D02*
X0148181Y0032995D01*
X0148181Y0035751D01*
X0150937Y0035751D01*
X0150937Y0032995D01*
X0150937Y0034117D02*
X0148181Y0034117D01*
X0148181Y0035239D02*
X0150937Y0035239D01*
X0138937Y0032995D02*
X0136181Y0032995D01*
X0136181Y0035751D01*
X0138937Y0035751D01*
X0138937Y0032995D01*
X0138937Y0034117D02*
X0136181Y0034117D01*
X0136181Y0035239D02*
X0138937Y0035239D01*
X0126937Y0032995D02*
X0124181Y0032995D01*
X0124181Y0035751D01*
X0126937Y0035751D01*
X0126937Y0032995D01*
X0126937Y0034117D02*
X0124181Y0034117D01*
X0124181Y0035239D02*
X0126937Y0035239D01*
D11*
X0038087Y0010779D03*
X0048087Y0010779D03*
X0058087Y0010779D03*
X0068087Y0010779D03*
X0078087Y0010779D03*
X0088087Y0010779D03*
X0098087Y0010779D03*
X0108087Y0010779D03*
X0118087Y0010779D03*
X0128087Y0010779D03*
X0138087Y0010779D03*
X0148087Y0010779D03*
X0158087Y0010779D03*
X0168087Y0010779D03*
X0178087Y0010779D03*
X0188087Y0010779D03*
X0188087Y0081842D03*
X0178087Y0081842D03*
X0168087Y0081842D03*
X0158087Y0081842D03*
X0148087Y0081842D03*
X0138087Y0081842D03*
X0128087Y0081842D03*
X0118087Y0081842D03*
X0108087Y0081842D03*
X0098087Y0081842D03*
X0088087Y0081842D03*
X0078087Y0081842D03*
X0068087Y0081842D03*
X0058087Y0081842D03*
X0048087Y0081842D03*
X0038087Y0081842D03*
D12*
X0131559Y0034267D03*
X0143559Y0034267D03*
X0155559Y0034267D03*
X0167559Y0034267D03*
X0179559Y0034267D03*
X0191559Y0034267D03*
X0191559Y0027574D03*
X0179559Y0027574D03*
X0167559Y0027574D03*
X0155559Y0027574D03*
X0143559Y0027574D03*
X0131559Y0027574D03*
D13*
X0128559Y0051125D03*
X0152559Y0051125D03*
D14*
X0091343Y0051660D03*
X0091343Y0050085D03*
X0091343Y0048510D03*
X0091343Y0046936D03*
X0091343Y0045361D03*
X0091343Y0043786D03*
X0091343Y0042211D03*
X0091343Y0040636D03*
X0083666Y0040636D03*
X0083666Y0042211D03*
X0083666Y0043786D03*
X0083666Y0045361D03*
X0083666Y0046936D03*
X0083666Y0048510D03*
X0083666Y0050085D03*
X0083666Y0051660D03*
X0083666Y0053235D03*
X0083666Y0054810D03*
X0083666Y0056385D03*
X0083666Y0057959D03*
X0091343Y0057959D03*
X0091343Y0056385D03*
X0091343Y0054810D03*
X0091343Y0053235D03*
D15*
X0091926Y0060912D03*
X0082882Y0060912D03*
X0082879Y0037684D03*
X0092140Y0037728D03*
D16*
X0091684Y0040671D02*
X0091343Y0040636D01*
X0091684Y0040671D02*
X0094184Y0040671D01*
X0094184Y0020046D01*
X0089809Y0015671D01*
X0078559Y0015671D01*
X0078559Y0011296D01*
X0078087Y0010779D01*
X0088087Y0010779D02*
X0088559Y0011296D01*
X0095434Y0018171D01*
X0095434Y0041921D01*
X0091684Y0041921D01*
X0091343Y0042211D01*
X0091343Y0043786D02*
X0091684Y0043796D01*
X0097934Y0043796D01*
X0097934Y0011296D01*
X0098087Y0010779D01*
X0102309Y0016921D02*
X0107934Y0011296D01*
X0108087Y0010779D01*
X0117934Y0011296D02*
X0118087Y0010779D01*
X0117934Y0011296D02*
X0103559Y0025671D01*
X0103559Y0046921D01*
X0091684Y0046921D01*
X0091343Y0046936D01*
X0091343Y0045361D02*
X0091684Y0045046D01*
X0102309Y0045046D01*
X0102309Y0016921D01*
X0089809Y0021296D02*
X0088559Y0022546D01*
X0088559Y0048171D01*
X0084184Y0048171D01*
X0083666Y0048510D01*
X0081059Y0049421D02*
X0079809Y0048171D01*
X0074184Y0048171D01*
X0074184Y0063171D01*
X0080434Y0069421D01*
X0086059Y0067546D02*
X0087934Y0069421D01*
X0091684Y0069421D01*
X0091684Y0061296D01*
X0091926Y0060912D01*
X0091059Y0058171D02*
X0091343Y0057959D01*
X0091059Y0058171D02*
X0089809Y0058171D01*
X0088559Y0056921D01*
X0088559Y0055046D01*
X0090264Y0055046D01*
X0091059Y0055046D01*
X0091343Y0056385D02*
X0091684Y0056296D01*
X0094184Y0056296D01*
X0094184Y0075671D01*
X0088559Y0081296D01*
X0088087Y0081842D01*
X0092934Y0080671D02*
X0092934Y0083796D01*
X0090434Y0086296D01*
X0048559Y0086296D01*
X0048559Y0081921D01*
X0048087Y0081842D01*
X0038559Y0081921D02*
X0038087Y0081842D01*
X0038559Y0081921D02*
X0038559Y0087546D01*
X0099184Y0087546D01*
X0102934Y0083796D01*
X0102934Y0050046D01*
X0091684Y0050046D01*
X0091343Y0050085D01*
X0091343Y0051660D02*
X0091684Y0051921D01*
X0099184Y0051921D01*
X0099184Y0075046D01*
X0097309Y0076921D01*
X0094809Y0076921D01*
X0094809Y0078796D01*
X0092934Y0080671D01*
X0096684Y0073796D02*
X0096684Y0053171D01*
X0091684Y0053171D01*
X0091343Y0053235D01*
X0087309Y0050046D02*
X0087309Y0065046D01*
X0089184Y0066921D01*
X0086059Y0067546D02*
X0086059Y0064421D01*
X0082934Y0061296D01*
X0082882Y0060912D01*
X0077021Y0061037D02*
X0075407Y0059423D01*
X0075407Y0057950D01*
X0076972Y0056385D01*
X0083666Y0056385D01*
X0083559Y0055046D02*
X0083666Y0054810D01*
X0083559Y0055046D02*
X0076684Y0055046D01*
X0076684Y0053796D01*
X0079184Y0053171D02*
X0079184Y0051296D01*
X0078559Y0050671D01*
X0081059Y0049421D02*
X0081059Y0051921D01*
X0083559Y0051921D01*
X0083666Y0051660D01*
X0083666Y0050085D02*
X0084184Y0050046D01*
X0087309Y0050046D01*
X0091343Y0048510D02*
X0091684Y0048171D01*
X0104809Y0048171D01*
X0104809Y0034421D01*
X0127934Y0011296D01*
X0128087Y0010779D01*
X0133559Y0015671D02*
X0137934Y0011296D01*
X0138087Y0010779D01*
X0133559Y0015671D02*
X0133559Y0025671D01*
X0131684Y0027546D01*
X0131559Y0027574D01*
X0131059Y0027546D01*
X0126059Y0027546D01*
X0125559Y0027468D01*
X0116684Y0033796D02*
X0116684Y0070046D01*
X0127934Y0081296D01*
X0128087Y0081842D01*
X0137934Y0081296D02*
X0138087Y0081842D01*
X0137934Y0081296D02*
X0119184Y0062546D01*
X0119184Y0046921D01*
X0113559Y0043796D02*
X0113559Y0083796D01*
X0116059Y0086296D01*
X0157934Y0086296D01*
X0157934Y0081921D01*
X0158087Y0081842D01*
X0177934Y0081296D02*
X0178087Y0081842D01*
X0177934Y0081296D02*
X0177934Y0056296D01*
X0121684Y0056296D01*
X0131059Y0062546D02*
X0152309Y0062546D01*
X0117934Y0081296D02*
X0115434Y0078796D01*
X0115434Y0040671D01*
X0111059Y0036296D01*
X0109809Y0033796D02*
X0116684Y0033796D01*
X0109809Y0033796D02*
X0106059Y0037546D01*
X0106059Y0041921D01*
X0108559Y0044421D01*
X0113559Y0043796D02*
X0108559Y0038796D01*
X0125559Y0034373D02*
X0126059Y0034421D01*
X0137309Y0034421D02*
X0137559Y0034373D01*
X0137934Y0034421D01*
X0149559Y0034373D02*
X0149809Y0034421D01*
X0150292Y0034904D01*
X0155559Y0034267D02*
X0156059Y0034421D01*
X0156059Y0034777D01*
X0161559Y0034373D02*
X0161684Y0033796D01*
X0162108Y0033372D01*
X0164809Y0030671D01*
X0173559Y0030671D01*
X0182309Y0030671D01*
X0185434Y0033796D01*
X0185559Y0034373D01*
X0187934Y0037546D02*
X0179184Y0037546D01*
X0179184Y0034421D01*
X0179559Y0034267D01*
X0179184Y0037546D02*
X0171139Y0037546D01*
X0171059Y0037546D01*
X0167934Y0034421D01*
X0167559Y0034267D01*
X0173559Y0034373D02*
X0173559Y0030671D01*
X0173559Y0027546D02*
X0173559Y0027468D01*
X0173559Y0027546D02*
X0177934Y0027546D01*
X0179559Y0027574D01*
X0179184Y0027546D01*
X0177934Y0027546D01*
X0177934Y0011296D01*
X0178087Y0010779D01*
X0188087Y0010779D02*
X0188559Y0011296D01*
X0188559Y0027546D01*
X0186059Y0027546D01*
X0185559Y0027468D01*
X0188559Y0027546D02*
X0191059Y0027546D01*
X0191559Y0027574D01*
X0191559Y0034267D02*
X0191059Y0034421D01*
X0187934Y0037546D01*
X0167934Y0027546D02*
X0167559Y0027574D01*
X0167309Y0027546D01*
X0161684Y0027546D01*
X0161559Y0027468D01*
X0157934Y0025671D02*
X0157934Y0011296D01*
X0158087Y0010779D01*
X0148087Y0010779D02*
X0147934Y0011296D01*
X0147934Y0023171D01*
X0143559Y0027546D01*
X0143559Y0027574D01*
X0143559Y0027546D02*
X0137934Y0027546D01*
X0137559Y0027468D01*
X0149559Y0027468D02*
X0149809Y0027546D01*
X0155434Y0027546D01*
X0155559Y0027574D01*
X0156059Y0027546D01*
X0157934Y0025671D01*
X0167934Y0027546D02*
X0167934Y0011296D01*
X0168087Y0010779D01*
X0082879Y0037684D02*
X0082309Y0038171D01*
X0078559Y0038171D01*
X0075434Y0039421D02*
X0074184Y0038171D01*
X0070434Y0038171D01*
X0070434Y0043171D01*
X0072934Y0043171D02*
X0072934Y0070046D01*
X0069184Y0067546D02*
X0069184Y0067267D01*
X0077021Y0062794D02*
X0077021Y0061037D01*
X0079184Y0053171D02*
X0083559Y0053171D01*
X0083666Y0053235D01*
X0083666Y0046936D02*
X0083559Y0046921D01*
X0078559Y0046921D01*
X0078559Y0045671D01*
X0081059Y0045046D02*
X0081059Y0044421D01*
X0079809Y0043171D01*
X0072934Y0043171D01*
X0075434Y0040671D02*
X0075434Y0039421D01*
X0075434Y0040671D02*
X0083559Y0040671D01*
X0083666Y0040636D01*
X0083559Y0045046D02*
X0081059Y0045046D01*
X0083559Y0045046D02*
X0083666Y0045361D01*
X0060434Y0033796D02*
X0060384Y0033796D01*
X0055359Y0038821D01*
X0117934Y0081296D02*
X0118087Y0081842D01*
D17*
X0096684Y0073796D03*
X0088133Y0074160D03*
X0080434Y0069421D03*
X0072934Y0070046D03*
X0069184Y0067546D03*
X0077021Y0062794D03*
X0078559Y0058796D03*
X0076684Y0053796D03*
X0078559Y0050671D03*
X0078559Y0045671D03*
X0070434Y0043171D03*
X0072934Y0040671D03*
X0078559Y0038171D03*
X0060434Y0033796D03*
X0053539Y0031307D03*
X0052549Y0038171D03*
X0038834Y0032552D03*
X0067934Y0028796D03*
X0089809Y0021296D03*
X0091898Y0026474D03*
X0111059Y0036296D03*
X0108559Y0038796D03*
X0108559Y0044421D03*
X0119184Y0046921D03*
X0125259Y0040736D03*
X0120828Y0033630D03*
X0119409Y0029311D03*
X0156059Y0040046D03*
X0161059Y0042546D03*
X0181011Y0040430D03*
X0152309Y0062546D03*
X0131059Y0062546D03*
X0121684Y0056296D03*
X0089184Y0066921D03*
X0067934Y0050671D03*
X0055707Y0049106D03*
X0036490Y0051406D03*
D18*
X0055359Y0040645D02*
X0065645Y0050931D01*
X0065645Y0051619D01*
X0066986Y0052960D01*
X0067674Y0052960D01*
X0069184Y0054470D01*
X0069184Y0067267D01*
X0091059Y0058171D02*
X0091926Y0059037D01*
X0091926Y0060912D01*
X0091107Y0055046D02*
X0090264Y0055046D01*
X0091107Y0055046D02*
X0091343Y0054810D01*
X0086397Y0043786D02*
X0083666Y0043786D01*
X0086397Y0043786D02*
X0086680Y0043504D01*
X0086680Y0037754D01*
X0086610Y0037684D01*
X0082879Y0037684D01*
X0086610Y0037684D02*
X0087509Y0036785D01*
X0087509Y0020359D01*
X0088861Y0019007D01*
X0090757Y0019007D01*
X0092098Y0020347D01*
X0092098Y0022244D01*
X0090757Y0023585D01*
X0089735Y0023585D01*
X0089609Y0023711D01*
X0089609Y0035197D01*
X0092140Y0037728D01*
X0119409Y0029311D02*
X0121203Y0031105D01*
X0131158Y0031105D01*
X0131559Y0031506D01*
X0131559Y0034267D01*
X0131158Y0031105D02*
X0143053Y0031105D01*
X0143559Y0031611D01*
X0143559Y0034267D01*
X0143053Y0031105D02*
X0155192Y0031105D01*
X0156059Y0031971D01*
X0156059Y0034777D01*
X0171139Y0037546D02*
X0181011Y0037546D01*
X0181011Y0040430D01*
X0055359Y0040645D02*
X0055359Y0038821D01*
D19*
X0091343Y0057959D02*
X0091343Y0060489D01*
X0091926Y0061072D01*
X0091926Y0070367D01*
X0088133Y0074160D01*
X0091926Y0061072D02*
X0091926Y0060912D01*
X0124816Y0033630D02*
X0124869Y0033632D01*
X0124922Y0033638D01*
X0124974Y0033647D01*
X0125025Y0033660D01*
X0125076Y0033677D01*
X0125125Y0033697D01*
X0125172Y0033721D01*
X0125218Y0033748D01*
X0125261Y0033778D01*
X0125303Y0033811D01*
X0125341Y0033848D01*
X0125378Y0033886D01*
X0125411Y0033928D01*
X0125441Y0033971D01*
X0125468Y0034017D01*
X0125492Y0034064D01*
X0125512Y0034113D01*
X0125529Y0034164D01*
X0125542Y0034215D01*
X0125551Y0034267D01*
X0125557Y0034320D01*
X0125559Y0034373D01*
X0124816Y0033630D02*
X0120828Y0033630D01*
D20*
X0125559Y0034373D02*
X0128559Y0037373D01*
X0128559Y0051125D01*
X0144132Y0037332D02*
X0152559Y0045759D01*
X0152559Y0051125D01*
X0161059Y0042546D02*
X0161559Y0042046D01*
X0161559Y0034373D01*
X0162108Y0033372D02*
X0158147Y0037332D01*
X0153218Y0037332D01*
X0150259Y0034373D01*
X0149559Y0034373D01*
X0150292Y0034904D02*
X0148329Y0034904D01*
X0145900Y0037332D01*
X0144132Y0037332D01*
X0141218Y0037332D01*
X0138259Y0034373D01*
X0137559Y0034373D01*
X0137934Y0034421D02*
X0136812Y0034421D01*
X0133900Y0037332D01*
X0129218Y0037332D01*
X0126259Y0034373D01*
X0125559Y0034373D01*
X0083666Y0042211D02*
X0080476Y0042211D01*
X0080285Y0042021D01*
X0074986Y0042021D01*
X0073636Y0040671D01*
X0072934Y0040671D01*
X0067934Y0050671D02*
X0067934Y0028796D01*
X0083666Y0057959D02*
X0082830Y0058796D01*
X0078559Y0058796D01*
M02*
