G75*
%MOIN*%
%OFA0B0*%
%FSLAX25Y25*%
%IPPOS*%
%LPD*%
%AMOC8*
5,1,8,0,0,1.08239X$1,22.5*
%
%ADD10R,0.04331X0.03937*%
%ADD11C,0.01181*%
%ADD12R,0.02362X0.02067*%
%ADD13R,0.03937X0.04331*%
%ADD14R,0.00984X0.01181*%
%ADD15R,0.05512X0.05906*%
D10*
X0035713Y0020921D03*
X0042406Y0020921D03*
X0083213Y0031921D03*
X0089906Y0031921D03*
X0089906Y0037921D03*
X0083213Y0037921D03*
X0083213Y0043921D03*
X0089906Y0043921D03*
X0089906Y0049921D03*
X0083213Y0049921D03*
X0083213Y0056421D03*
X0089906Y0056421D03*
X0089906Y0062421D03*
X0083213Y0062421D03*
X0043153Y0061581D03*
X0036460Y0061581D03*
X0181213Y0068421D03*
X0187906Y0068421D03*
D11*
X0155000Y0052031D02*
X0155032Y0051941D01*
X0155060Y0051850D01*
X0155085Y0051758D01*
X0155107Y0051665D01*
X0155125Y0051572D01*
X0155139Y0051478D01*
X0155150Y0051383D01*
X0155157Y0051288D01*
X0155161Y0051193D01*
X0155161Y0051097D01*
X0155157Y0051002D01*
X0155150Y0050907D01*
X0155139Y0050812D01*
X0155125Y0050718D01*
X0155107Y0050625D01*
X0155085Y0050532D01*
X0155060Y0050440D01*
X0155032Y0050349D01*
X0155000Y0050259D01*
X0153465Y0048685D02*
X0153375Y0048653D01*
X0153284Y0048625D01*
X0153192Y0048600D01*
X0153099Y0048578D01*
X0153006Y0048560D01*
X0152912Y0048546D01*
X0152817Y0048535D01*
X0152722Y0048528D01*
X0152627Y0048524D01*
X0152531Y0048524D01*
X0152436Y0048528D01*
X0152341Y0048535D01*
X0152246Y0048546D01*
X0152152Y0048560D01*
X0152059Y0048578D01*
X0151966Y0048600D01*
X0151874Y0048625D01*
X0151783Y0048653D01*
X0151693Y0048685D01*
X0150118Y0050220D02*
X0150086Y0050310D01*
X0150058Y0050401D01*
X0150033Y0050493D01*
X0150011Y0050586D01*
X0149993Y0050679D01*
X0149979Y0050773D01*
X0149968Y0050868D01*
X0149961Y0050963D01*
X0149957Y0051058D01*
X0149957Y0051154D01*
X0149961Y0051249D01*
X0149968Y0051344D01*
X0149979Y0051439D01*
X0149993Y0051533D01*
X0150011Y0051626D01*
X0150033Y0051719D01*
X0150058Y0051811D01*
X0150086Y0051902D01*
X0150118Y0051992D01*
X0151693Y0053566D02*
X0151783Y0053598D01*
X0151874Y0053626D01*
X0151966Y0053651D01*
X0152059Y0053673D01*
X0152152Y0053691D01*
X0152246Y0053705D01*
X0152341Y0053716D01*
X0152436Y0053723D01*
X0152531Y0053727D01*
X0152627Y0053727D01*
X0152722Y0053723D01*
X0152817Y0053716D01*
X0152912Y0053705D01*
X0153006Y0053691D01*
X0153099Y0053673D01*
X0153192Y0053651D01*
X0153284Y0053626D01*
X0153375Y0053598D01*
X0153465Y0053566D01*
X0131000Y0052031D02*
X0131032Y0051941D01*
X0131060Y0051850D01*
X0131085Y0051758D01*
X0131107Y0051665D01*
X0131125Y0051572D01*
X0131139Y0051478D01*
X0131150Y0051383D01*
X0131157Y0051288D01*
X0131161Y0051193D01*
X0131161Y0051097D01*
X0131157Y0051002D01*
X0131150Y0050907D01*
X0131139Y0050812D01*
X0131125Y0050718D01*
X0131107Y0050625D01*
X0131085Y0050532D01*
X0131060Y0050440D01*
X0131032Y0050349D01*
X0131000Y0050259D01*
X0129465Y0048685D02*
X0129375Y0048653D01*
X0129284Y0048625D01*
X0129192Y0048600D01*
X0129099Y0048578D01*
X0129006Y0048560D01*
X0128912Y0048546D01*
X0128817Y0048535D01*
X0128722Y0048528D01*
X0128627Y0048524D01*
X0128531Y0048524D01*
X0128436Y0048528D01*
X0128341Y0048535D01*
X0128246Y0048546D01*
X0128152Y0048560D01*
X0128059Y0048578D01*
X0127966Y0048600D01*
X0127874Y0048625D01*
X0127783Y0048653D01*
X0127693Y0048685D01*
X0126118Y0050220D02*
X0126086Y0050310D01*
X0126058Y0050401D01*
X0126033Y0050493D01*
X0126011Y0050586D01*
X0125993Y0050679D01*
X0125979Y0050773D01*
X0125968Y0050868D01*
X0125961Y0050963D01*
X0125957Y0051058D01*
X0125957Y0051154D01*
X0125961Y0051249D01*
X0125968Y0051344D01*
X0125979Y0051439D01*
X0125993Y0051533D01*
X0126011Y0051626D01*
X0126033Y0051719D01*
X0126058Y0051811D01*
X0126086Y0051902D01*
X0126118Y0051992D01*
X0127693Y0053566D02*
X0127783Y0053598D01*
X0127874Y0053626D01*
X0127966Y0053651D01*
X0128059Y0053673D01*
X0128152Y0053691D01*
X0128246Y0053705D01*
X0128341Y0053716D01*
X0128436Y0053723D01*
X0128531Y0053727D01*
X0128627Y0053727D01*
X0128722Y0053723D01*
X0128817Y0053716D01*
X0128912Y0053705D01*
X0129006Y0053691D01*
X0129099Y0053673D01*
X0129192Y0053651D01*
X0129284Y0053626D01*
X0129375Y0053598D01*
X0129465Y0053566D01*
D12*
X0132102Y0056086D03*
X0132102Y0059432D03*
X0128559Y0059432D03*
X0125016Y0059432D03*
X0125016Y0056086D03*
X0149016Y0056086D03*
X0149016Y0059432D03*
X0152559Y0059432D03*
X0156102Y0059432D03*
X0156102Y0056086D03*
D13*
X0144559Y0046267D03*
X0136559Y0046267D03*
X0136559Y0039574D03*
X0144559Y0039574D03*
X0112559Y0040574D03*
X0104559Y0040574D03*
X0104559Y0047267D03*
X0112559Y0047267D03*
X0049764Y0050993D03*
X0049764Y0057685D03*
X0035354Y0044504D03*
X0035354Y0037811D03*
D14*
X0042674Y0035756D03*
X0044643Y0035756D03*
X0046611Y0035756D03*
X0048580Y0035756D03*
X0048580Y0046337D03*
X0046611Y0046337D03*
X0044643Y0046337D03*
X0042674Y0046337D03*
D15*
X0045716Y0041133D03*
M02*
