%
M48
M72
T01C0.01378
T02C0.04000
T03C0.04035
%
T01
X67934Y28796
X60434Y33796
X53539Y31307
X52549Y38171
X38834Y32552
X70434Y43171
X72934Y40671
X78559Y38171
X78559Y45671
X78559Y50671
X76684Y53796
X67934Y50671
X55707Y49106
X36490Y51406
X69184Y67546
X72934Y70046
X80434Y69421
X89184Y66921
X77021Y62794
X78559Y58796
X108559Y44421
X119184Y46921
X125259Y40736
X111059Y36296
X108559Y38796
X120828Y33630
X119409Y29311
X91898Y26474
X89809Y21296
X156059Y40046
X161059Y42546
X181011Y40430
X152309Y62546
X131059Y62546
X121684Y56296
X96684Y73796
X88133Y74160
T02
X38087Y10779
X48087Y10779
X58087Y10779
X68087Y10779
X78087Y10779
X88087Y10779
X98087Y10779
X108087Y10779
X118087Y10779
X128087Y10779
X138087Y10779
X148087Y10779
X158087Y10779
X168087Y10779
X178087Y10779
X188087Y10779
X188087Y81842
X178087Y81842
X168087Y81842
X158087Y81842
X148087Y81842
X138087Y81842
X128087Y81842
X118087Y81842
X108087Y81842
X98087Y81842
X88087Y81842
X78087Y81842
X68087Y81842
X58087Y81842
X48087Y81842
X38087Y81842
T03
X128559Y51125
X152559Y51125
M30
